<mxfile host="app.diagrams.net" modified="2023-05-18T09:21:10.811Z" agent="Mozilla/5.0 (Windows NT 10.0; Win64; x64) AppleWebKit/537.36 (KHTML, like Gecko) Chrome/113.0.0.0 Safari/537.36" etag="yHxqLOT29If-8VpI30xp" version="21.1.8" type="github">
  <diagram name="PÃ¡gina-1" id="kJzYXncbS4Vj4y1uaz-R">
    <mxGraphModel dx="4376" dy="984" grid="1" gridSize="10" guides="1" tooltips="1" connect="1" arrows="1" fold="1" page="1" pageScale="1" pageWidth="827" pageHeight="1169" math="0" shadow="0">
      <root>
        <mxCell id="0" />
        <mxCell id="1" parent="0" />
        <mxCell id="_Qa4FRTeHyNOR7-FeHma-89" value="" style="group" vertex="1" connectable="0" parent="1">
          <mxGeometry x="-1797" y="860" width="755" height="495" as="geometry" />
        </mxCell>
        <mxCell id="_Qa4FRTeHyNOR7-FeHma-55" style="edgeStyle=orthogonalEdgeStyle;rounded=0;orthogonalLoop=1;jettySize=auto;html=1;" edge="1" parent="_Qa4FRTeHyNOR7-FeHma-89" source="_Qa4FRTeHyNOR7-FeHma-56">
          <mxGeometry relative="1" as="geometry">
            <mxPoint x="310" y="277" as="targetPoint" />
          </mxGeometry>
        </mxCell>
        <mxCell id="_Qa4FRTeHyNOR7-FeHma-56" value="" style="shape=image;verticalLabelPosition=bottom;labelBackgroundColor=default;verticalAlign=top;aspect=fixed;imageAspect=0;image=data:image/png,iVBORw0KGgoAAAANSUhEUgAAAfgAAAHtCAYAAAD1M2xXAAAAAXNSR0IArs4c6QAAAARnQU1BAACxjwv8YQUAAAAJcEhZcwAADsMAAA7DAcdvqGQAANFjSURBVHhe7P0HnGTHnd8JRsTz6TPLm66q9t43GuiGISwBggTNDAFqNavZmdUNuaPbPUkf7qxWc/dZAJ+924/2dPpo53ZvJIykDyVqdzQEZkgOhwsSBDkNgCAI00AbtLfV5asyK30+/yIu4mVmo9DsRrvy9f9WxbORme+9ML/4R8SLwAgAgDnhT/7kVW1g15ruvtXdO2nA0n7ANMunxKQIVW0PWX6APA8hL0DI8SlyAoo8fi7g+z4NEN9FlP+Jfcq36xv8v34C8Y9y/9wHP8z/P4X4HnE8/JhYEISk8Ey4GaLwA4rYaZwQmwohSGnsEEksxJp74GuJ7zfPyUTi+/XPG3yh8c+JfY17iMgKiukSMmTCzyEqEWxhhnJXRsaOHHn9LyZefPFFcUUAAMwxIPAAcAe8dvRoNIZQFNUQmuD7tSoXbbEj1oFLXFOTcFRriaXaPucHdC31aZsbMMPyGDG54pouCwXe4SLs8v0qY6jGFZsfRixgobAL1Wb8uBB3xsQ+PykIhZsicUgcuaqWjdMCxv/E8fB84zjXYoRnpPhwX2QBjWP1fe74hthubmBJ+CGIazj/PN8O9Z6ExzW+HefrKF/L3I/Yj8gSiqj8GF8bCg5kCZuShKcUWT5fNvNvsFKhFJNUqmqUxcKHGEViHYuKHxX7/JopZbaqBiOnTlWfe+45t34GAIDboZG0AQC4Ed997bWo5aiGSxXVrjqKj6m0a9uWnkw8ssnkolzi1njJpqhkBqjm+rjqUqlmsyi30tssJ1jtuEGvHwQZbq1rdkCJ5TNkC4udK6/HxZ1/FJlchMt8n2t+XZW5sNedWNXXdbVuqLpwgtlOweH3Nr5ciLkQeS7adeXnxYHGuu7qtQAJglGEe9P4MZWLvR46Yb3zfYIDRcGOIpFpXZOGI5o8GNXlbEwhVlQnQVSVWSoioaROUDKi8AKChFSFFyAw8WSJ1Gw/OPvRyY9HkuUREHoAuE1EcgUAgPPaa0ejqsoUx7GIMDkty8QFG8mta7duqDp0S8H0ust20Fp1/JjpUMWxfcXiJrfDLWsu3NwSZ6E17lEmeQHTvAAlfJ+2Boilg4BFuGxKfsAw13fkc9HmGs+N8rql7fG1yzfE9lWRFWvhRCoNj80Tzd+6Xu4gjoXH+YL/c11HGl8oXNzFNuFrmW/IYs3Pc+ud8U1fwtgkBOU1WZrmGl5WJOxw8WcaIYz7CQsEGi8QRDQJRTWJxXTJjehyJaFJk0mDDEUk5ePpobODnQk5iPCH6Uf5AzYM6k1N2U8//bQjrggAgE8TJlUAWMlwCxn/+x++kdy+Z++2IKBdlkcN26Fy2fGVyaofn6h67RNVv3ey7Hblq26maPlGqerLpZqPuT/EQgt3RlLimsYXEiNI5WJpcNWL8JRGmqlNGOQzU94taffM718Iwov+bD51hdz7NfsUUWbygxbfcjFmvNyD618qlvz7cYBQhFvyibhMUxE5SEXVWktUyXfGlbHOuDzK3WRbVKklNNnTNcXXFWzKRBr64OgvTn7ry182w+8CAOAqC5xrAMD88fzzz5O1Bw8aOAgks8rNRU7gOaTqRrXYmo33c8t8W9EKuqq2H6txC73m+nLVCSIVhyYrHk1X3CBpCvH3uPXuBcR2uTUetovzr5qZksR22LjNJZ4LfbgdNl5fw28euQHc4y37vQNCgeWu+RvX+61QisPFzbmeN9HOIP4QF3aERUVF3ZdYXnUMKdzs11TCdIVQ7ryISsy4IhdjGikkFFKK68SKqrIfNSSPC305beAxQyFHnYnL71Mz8CJRn0ViHou7CVZIet7vP/KILX4GAFYic5ltAMCiQAh7bO1Bo6OjI9o10LujZgepqs1Ux/Jkx6H6eMXPjNecAW6tD4xX/Q4u8pGK5cuWH5CAIpkyrHMDVKMYa9xel7k6hemm2XntuoQ+xOIzTO/FkvqaAisIL7m+eVfc8NmIqoAZJ5ubMw6JJyYcLx0xwstQBDGHl5BsXlKyZQkFhiIFMV3yW6NSrSOqTHTE5Ss9UeVyW0wrRnTJ1g3Cz8uOoZFc9tKZj81xx/z93wehB1YeiyWLAYBZRYh6d/devShRCUVa4y19A/tyVdpXcr3eksOtcSfQPSeQfY+qZZvGi27QVnL81hLfNr1A5VY69n2GubiLqnWuLdwaF1Z46Bo/IjaWQwoS4toUWHE/C3FPn7qGxkZ4jBcIqKi/R6JKP+Biz7iVzzRZolGVuCldKic1KZdSpVzCkKuqJrmaSnx+3OIun1LloaRKBgvjEx/msxesgWibD2IPrBSWQ/YErHBefvllaXw8JucTkziRj2Da5hCmb4zHOnp3Fipe23TJbi9afv+kFfRmbb+j4LF4xWUa9ahEfUoChjSfUYOvoz5lCrfaEeUyHvZev0oo7o3N+mrZ8ClxbbjFQPOawnD4JDBECYvwa5T4QVnCnoxQVcLYkgl2iUKowgW+RZHcjI5Lrbo8kdbJSMpQhlJJZTITVabyudGjTnbSSqQsljFNFo1G6bPPPuvxstvV3wCA5cByy6qAZcyhQ4fkQYTkyNRUGG9HuKOOQ1pX3dMm6en103YQrTq+VrWoUXK8VMWhPVXTa6uYQSu32NtKtp8p+CxuBlS3AyQxSgniVjqrt4/LXNIlbio2LPTrJI3lmlqulbXFdp/Xk92G3mOxwS17vumHJTJu3UuE0LiCgpgs2XHRbi+TfMwg2ZguCys/y7dHE7pSihuSldRkpyUmVe2ydXJw8I3iC7/3ew4IPbBcWK5ZFrCMEMJ+3LKk377/0QHK2IBpU71Qc+VsxZMHc5YxOO1mrpS9zpGSF7cc33C5gPsBTbgBTvmMJT1KY75Poy5CuhcgLWCMW+08DxdSLjq8f2K+fiLuKy1lXH0EjfViR1zvVaP+6kb9+rnki9f2FIIpt+xthTBbxqTGLfyqQlBRkUhRlUhF1rAd1WWrP6WW+lPGSF9KHiKV7EcT1vnsi/DOPbAMWGnZGLBEEKKezWbJMGPSEwefXu9StLFi+b0lJ+gu1LxooeqqUxVfGi+7xmjJTlwp+cnxihe1faqigIkRVTVEsM7tc41n+Aq3zLljRLSk82g/I95fkwQgRSwdPpH1GczUei78VBThMOXbHj/nYYYdRJmFJOJggj1dJW53Uq30JZWp3pg60haVLqTj6hXsVI5ZH34whVCUdncX2De/+U0fLHtgqQHZGbDoeOmll5QHv/x3N1p20Jur0NaK6/WWa97qsZrXPVzyWrjlHpnm1nvZCqSaH8hVN9ArPtVrHlMoQxJiVLyeRnjWLqrdhaQ34nnTQm/CdyAFLC9CCZ6hw/X9+gHRWU+8ooeRz4/xNaGShP2ohJ2YSqpxmeQiMh5Px9ShVES50hKXJ1bF5GpnQqlqxL1w6effHXvhhRcCEHpgqQDZG7CoeP7ll9X7tz26x3TY3umaP5Ctup1F02vjVnv7ZDVIDVec2FTNV8vVgDgeFS9UC/NM4muZimHUmKhzF/l4M26L7ljXAWL+8ua6EiwONsQ+fCefRwIu1oQLP2HI4aVCk+t+KWHI05mYnGuLysXOqFri61IyIo3qunIlquPT/92jfZfE58LvAYBFDGRzwIIiXmfbunVrGA9/OR6TezduPmg69EC2FmyfsrxV+Zqfsdwgbjs0WnGpXnKpUvMCLMQ9uDqLirDMQwcxGrh1mhItNJ9yi15U6GPmqhK2NEWqRVVsxxTJjMq4qmtSNqpJwy2GfDqG5V/3Df35yVNbt7Jn+cdPnjzJuGUv+mqC6AOLCsgOgXmnKeonazXlwQNf2TBZ9tNj02ZsuOCmczV3c970t03WgjU522stuzTiB0ijAZN5HkwCno2KYdCoEPOrObQAxB24TUT0aUahpjYzJt6Q5A75RIyhL3rnY27dE1xRZWmqLSJdblXR2ZSmnGuNKZXOlOb0txpOS0SZOvPqyUtbt2bZs88+y6MniD2w8ECWCMw6Ymz3xibils2n4ljm3nuVnesObDk/6bSez5tp02GrilW3tWQGqZLlpYtO0Flxg+6qE3TUAmrYAQprUHlG3PgevhJbYK0Dd0tT4JvxqLkOpZmGHfTCPfGHsSNJqBKVSS4hk4mYSqZ0lVQSqmylI3ItHZGyhkaGuzNacVVKm7xsnjmL3nhDlEWvIqz8xqaocLq6DQBzBWSRwKwixP29996L7969f20Q+IaPkFJyAlyq+iRbc9VcNYhP19yBjyfMjuMTVttUyW0pVryk69NogHEkwCzmM5zkoi4GnhFt63VETP0ke6zvQ+wF7oaZEnttXArPzfAgJuTHOJAYMrllX+GWfZWLtCMx5ioIWRFVLral5OnetJ7d1mlMrm0xBntSarUtpnnJqERTuoz4P5Nl5ElMrr7zzpvnH4Fx8oE5BrJIYNYQ4n7x4sW2tt7+/TUr2Fi1g3TF8vRs1SPDRYeMll0tVwniuaqXuVJx0kNFN1mqBVHLEaPIMQWRcLAZlcdKviak8bWNWNqIqiLPbcba68Xez8q0AeBuEHGLiQn5sce3uRMz4oVt954iYSuuS9VMRCn1JdVCb0rNt8WValtCdVclNdqXVFBLRAkMXbaiqjRtqPjUxbMn39m1a1et/uUAMPtAFgjcNULYz58/39o7sG6D59PVJdvbk6v4A1MVJ5MtOvrgtEVOTzn4Yt6WC2agldwganvMsBnVfFofeIZHRTHMeGNS1bCBnTMjeorNm4l383yzEHA9PwBwN4RxjDER6Xk0rVfjYx5xGbfuMXNkgh1NIlZUJmYqqtjtcTnY2KqzbW06603pNJNQrHRcnW6NKpfihnRYw+TKqVPHT4LQA3MBZIHAXXHhwnh7vK1lXcH0V5l+sK1Y89dwC71/vOx1ZMtuPFt2lLGSg6+UXTxR9XDFYZLtU4Vnj1K99/vVSVwa33gLzBR6wcyPinMg8MB8IwRfyH3YF58FBCPPUEmQMCTWm1TZmqSGuuIqa00obktMLXcmlPG2mDKYicqX44Z8Mq6SoanR8pkNG1rLjW8EgLsGskDgtimXy62xWKyb63KiagU9YzVn83De7hvMOb2DWbtrtOy2coFP5Gu+UrB9XHV8bPoM2dzxfxTUB6Lhot74QrFxOzGxKeIC8blrPzvzHADMF2G85Iu62DNJIkzhSq/LBMVUjBKaxDIRibYaiteZkIvcos+tb4+Mr2s3RrqSypVMVDqjStIo/5byqVOnrmzbtq0afi8A3CGQBQK3xVje7EcS2Vp26KbpmteRq/mduYrbOV50O4bzVvpKwU1MVdzItBUoZZti06PIDbhZIyz0UIwbUe5uYt7NBB4AFopmvGyuG4goqssIxRSCUiph6YjsdiU0c6BFK69u0fNdSW2yLSZPtMSUiUxEGTdU6czw+RPv7969u1j/BgC4fSBrBG4KpbTL81CrHfjxadNfX6j4e05lrf4PxmttZ6ecVK3mJWzLi1XdwKj5TDa9gNgBwl5Qt9jrI4Q2vkxs3G2suybzhFgMLBqujZszkHg8lbnTuFWvyYgZskTjquQlNGJlInK1PaGWN7dHCtu6jan+FmOwNaYcjRnKWUNGlQsXLoxu2LABqu+B2wKyRuCGVKvVzqrD2iRFWWt5dF3ZDjomSt6qwZzd8/GU1fmr0Wr8TNaJ+KavsIAqlOdh4g14MUpIM58LX1+HWAYAdXhhVyQH0ijzEsaYjDCNasRLRxV3c7th7e6JljZ0GhOr0tpwe1wdiWvSpKZI5xi1LpWy2bG1a9eWwu8CgJsAWS/wG4he8UXbHpCwvLtsBtuyFWfVaFFMx+pkLmetzIUpJ32l5MSHa56SNQNCfSqFbY8iNl1bBX87necAYLkj0km4rq+QeOmOH1O4ea8rJGgxpKA7ofprMnp5U4dRWN2i5XvS6nRHQhtvjapDMQN/PHT58rvcms82vgEAbgjkvsCnEOJ+bmhydTyefqDqBntHi866kaLdNZhz0penrciladu4nHO0nOWrYsJsr/6xeoY1G+3rALAcaQr6zLQhjoWubtWL5KMIRxDrjqvexjbdXtemW/0tRm1VRi/0ppSxzrh2LqaRw1fOn/zFnj17QOSBzwSyYiAcG/4f/IN/0M43Y6aHYi6J7R8t2vddyTvrLxXsnsGilxovu3qu7MnTVVfK2z6ueWKabf4JkSuFLvwqAACupSnuTWamlea5cM0XDcFPaBJqNyTaFleDTFLxuxOa1ZfSimsz2tDqFv3cqoz6LnXMw6ou1dxyudjX15cX3wAAM4FseQXz8ssvS/fcc0+bzZRkW2vrtloQrCpVafdI3u4/M1FbfWbC7Dlb8JJXqp5WsX3J9SjyfIY9ngkFzapGEYUgFgHA9Wkmk5lcL73M9MfTluiQJzrjKTJBqkZYMqIEq+KKszmt5rd2x0a390QudSX1oYQqjekKvlKs5k9Wsk5h2zYQeuATIGtegRw6dEhes2ZNO6VKMtnasidf89ZOlN2e0bLXMVJwWofzTsvQtN06UnISozVfmXYCJHrFh+2HIiMCix0Abp2Z4n2zdBP6baSzMK1xx9XeUCSU0TDricreQMYormvTc30ZY3pVWs11J9WJ1qg0EtfVC241fySfzxc2bdqUE98ErGwgm15BCIt9z549LXoikUomM/sqlr+2bAYDl3LcUp+w2s9OmsnzWSs6XvGNkhNErCCQLC7sXN8bE2s1ogvEGgCYG0JhF4sGIq3xAjU35pGYpMGQEIqoxMtEVWt1RjO3dBq1DW2R4tpWbbI7qYykDfVKXCPnJyZyH1awW9y6alUBZq5bufDoAqwEXnrpJeWpp77Sn2htf8ilykPTNW/3xZy97dSEuf7jcbPv+Git49SknTyXtaOjZVcveQGxAozFe+xh7hCK+o2UvZl/8PM38gIAwO0hasoaCYpRhnzubJ+iihOQkumrfK3ZLopWPT9Rc4KU7dE0pSzDCwNt8US0uzUej5dLhYphGNU333wTRH4FAgK/AhDi/sBjTw/EUunPl2xv70jR3nExa284MlLt+/Vgtf3YWC15YdqOjFddpeJTyeO5CsM8mwjzFyHajYymntfU9by5LZih73W/AADcEWHy4Ysw3YVHPilhi/16WuTpE2GPUlJ1AmW65mu5iq/xdYwyliQEpxkiKSLjhKpH4ms3bZjKJBIg8isQEPhlzquvvqqt333fmkii9enxsnPPlWl729lJc/XJ8VrHx2Nm8uMJM3Kl6MjZmoerHs80xBs7obiLDKWZqTTctVx7LPR3PY8AAFyXmZLbTDphOqpvformce7Ex7wA4ZpLcckOcMny5LIdaB5luhOwmOWxhFh7AYskjWhs7cYtk23peAVEfmVxvWgELANeOnxY2e66cZLo7pSi6adGi87eoZy9aShv9wwW3PiVsqNP1wKct31kiZ7xgZgKq8FM6+F6NLOIpp/rZVIAANwckXaEa6ab66WfZvoSbfMzzzeOCytNlbBom0dtEZm1xVXam9Ts/pRS2tBmjKxrN053JdUP7FLup045m9u7d28Z2uVXBpAdL0OE1d63fu8qNRW/d7zobLicdTZfmDLXX56yegbzTnq06kgTNR/xwr+o6kPC1WlsQKwAgPlByGxTakW6u1HaC/01PIZ++EKsw0N8wf/Dj/OFJiHWGVVQb0LzN7fr+a2d0ZG17cb5VWn1ZEtCO1vIZt/dtq5nBER++RNGFWB5INraN2zYEI13bei0pegTF3LWlnM5ew0X9lXDeae9YPqpkuOTskdx1RfTVjc+GMYCvoDYAADzy0yJvVn6u5Hf8DhfNM6LHvdi1rq4KqFWQ/Y7o3JxTas+ub7LGOLW/MVVqcgJz8y9PnZ6OHvkyOu1F1988WrlHbC8gCx9GfDyyy+r6XTaaF+7uTMSTe2fLLhrTk5Zmw+P1lZ/PG52DGetdK7qRwPMCCWkbrXPDHqIBQCw9GmOU8ERSVrY5ySgTEGY9mXU6ubuaGFbb2x8Z5dxaU2rcbo1Jl8wy6X3zh67OA1CvzyBrH0Jc/jwYaVSqWid67f1IKzvHSt4fcMle93laafv/LTdc3Habh0tubGi6ek1brUzjBud5/iHoTMcACwvQnFvKHxjJarpCGUspUusPaFaAy16dW1Gza5t0Uf6W/WhnpR6oSupDSqO/f7hw29nn3nmGQuq7pcP0It+ifKdQ4f0/du2re7sW/c515fuuzxp7T01Wt3+wVB1w/tD1b6TE1Y7F/dkwfIVl5vr4Wtvou4uFPaGyAMAsHwIk3YjjTfTOU/zjGDscqGv2IFSrPr6dNU3SpafsD2WYhi16LLc0tZidG1Zv6ElWymZMV2H3vbLBBD4JYZoZ//mN7+p37vngU1WID16KWvtOzlu7vhopLrx2Hit/2zObh8pe0LYDTNgxOfKLhL4Jwmff4lwAAAsb66mdS7yfBHwgr7PDXo3oKrpMa3kBrGyzVK2F2R8j2V4XpFOGkZ6196d5Weefro6MDBAQeiXNiDwSwRRHf+lL31J//rX/7NN7X2rP1f22MGhvLPn+Ght80dXqgMfjlbbT07aSS7ukYoXKA7FhDYVvSnsAACsPBoiL5xoZHfF+/NeIOdNquWqnl61/Zjj0QTCLGGocjweNdrWDAy07H/goKXJcglEfukCAr/IERb7t7/9bXXfvgObO1evu3+q7NxzOefs+WisuuPISG0tF/ju81k7PVRwo1Omp9R8YbWLKnnx6Yawh9sAAKxYGnmAUGrKGPJ46d/xKbEDKrs+0kw30MsOjRacIF5zgxRjLKFKUvK+vftLkYhWAJFfmoDAL2LE++y/9Y1vbOpdNXDApXR/tuzuuZg1dxwdrW44dL7c9+6VavvFnJ2YLLtKyQ2IyxMtnSnoYLkDANDkar5Qd0KxuTGPbT/ABdOXh6u+cbngGiU7iGkEx3QJRxNxPXbw/vvKhqpOg8gvPSD7X4SIWd9isZj88OOP7/E8dF/VpRvytaB/cNrqPDZSzZyYMOMfjdUiQwVH9SkilDLEuJhfHbAGhB0AgM9ihlRjbtGHr9RJiKkKYevbDPu+7kh5V09sfFt35ExPSjsi+cGrP/3Rn5/75je/6UMv+6UDWPCLDDFX+9NPP721b/Xqg46P7iuZ/t7hgr3pzJg5cHSk0v7u5Urq9IQVnax5iumJN2AaabUp6qGwg8ADAPAZXM0r6gjjgOclohMedt1A4ha9UXUCjfvRCCG6EZFTu+/Zkw4Cyd+zc2vplVdeAZFfAoAMLCLEgDVf/erX93mI7qk5wdZs1V89WnRWXc6aLWfHrfiZKUv9eLwmTdV87PGgC6vjZyazmZY7hCwAALfCzDyEW/PC6lO4609pwa6+WHF7T3RiY0fkykBavdwWV86mDPm8hqTzuo4vgTW/uAEZWCQIcf/6179+wHbpwbJDd4yXnbVnJ632kxO1zMWcrV+ZtqWxskemqh6qefTTYn6VxjEIVQAAbhch1c3R8Pg6oUmoJ6kFfRmtuqFdz69vN3Jb242R1S3GldYYOaUR9K6qqidA5BcvUEW/CBDi/qWvfvVeLu6fK5j+3pGis/HMlN1zbLSS+WC4apzN2vKVohfO/OaI9NcU8VDkZ7rGcQAAgNslzDuaGQhGPhf5shuQsh2oFYfplh9EMcIJiaCkREiMSFKMoaCqSlIOOuAtTkAOFpi6uH/9vrLpfm665u0bzNnrTo5b3ScnzOjlgi0Nl1xSsANUdSnyRYP7dS13AACAWSKUamFJhHtIkwlKGYS1RtVgIKE6a1u08q5VsYnNXZGLq9La0bgufaRp8mUNobNgzS8uQCoWECHuT33pq/u5Yf7IWMnZczFnbvh42Oo5PFiJnZyoSQWHIpunMp8nmeCT9AahBgDA3DJDpoVNIXOnEox0hGhbTPbv7U9UHtiQmNjaExvsSigXWnTlNCHSe1EVHQORXzxAFf0C8Z3vfEd/+reeu3eq7D58OWfvOzlW3XBkxOw9Nm7GzmUtaaTioprHxZ37Dad4gip4AADmi2ZeIxyXa/EqrsetDMuj2PKYxG0PzaHUcHwW9T2WDBCKKxKL6ERyCUETUGW/OACBXwDEADaPPfXVfRXXf+RSzt5zdLi64fBQtfvwcC12btqWclZQb2sXk8MQ/gEh7oLGCgAAYF65mgeJ4W4xqvmU5ExfKZuB5lIaIQxFIqqsR3WsPvi5R6uKhLIg8gsPCPw887133jHu3Xff/uG8++ip8dq+46PmhqPDlZ7TU05ssOjWxV0MXCPUvDn7m0hbjfQFAAAwr1zNf0ReFE5cg8TsdDVXWPOBbPtUtz0a8X2mBpTJskTkJx5/rKJKCEa/W2BA4OeJQ4cO6S995zsbetNt28oWe/joUGX3W+dL6z8cqvWcyTqx8ZovVTwatrfXE1L4MQAAgMVBM08Sa1HDyJ2YuKbiBNJ0zZeLpk8sl0oJjaCOpEoeefARU5JQHkR+4QCBnwd+dPhwZNe2e3bma94D53L2AyfGazveH6qt+/BKredS3olNmlzc3XpnupBrxX1m8gDhBwBgobhG5MWbPSY3TGqOj02HynxbJoTIEmIaP5e4/4GHpf/hhT+WYVa6hQEEfo55++2345vWbd5edNmj57P2nrcvVTb9/Hxx4OMJq32s7MTKLpOcoNmRLvzIdUScpwuRNMLjfPEb5wEAAOaJmfkUdyJr4jqPXT+QTDeQy7av5qpBhB9PJAzSoSty4uFHHnU+/9jD+f/wH/5DmNUB8wMI/BzyQy7ua1Zv3mEy9cnTWXvv0TFr03tDlVW/Hqq2jJecSNVjYga4urgLGgnmM2m2yQMAACwU1+RV4RS0AQqt+JJDtULNjRAJpXSZpCVMxKB4qc5VfbV1/atyP/7xj0Hk5wkQ+DlCWO7r123fVnClJ85kzT3vDZkb3hup9lzIWfFcxdU8iohowwqZKdrXFe/G+fBcYxsAAGAx0MjHQkseIxxQKjsBUzFFEc9nUW7dRxWJ6boiRbdv315a/+xvTf/4z/4MRH4eAIGfZY4ePRr9py++2GekuzZXfOnJk+Pm7qMjtQ3vj1V7jo2bcTHvsu+LuM1VPRT2hmBfK9oz98Pzwp9w9UMAAACLB54xETFlNUaUIswNGMn1qFyxfC3gQk8x1iWMtLihxjcnEuWN657lljyI/FwDAj+LHDp0KLZ5x47NWNYfnq6x+09PmtsOD1fWfTRqdl0u2PGcmAXOr8t18z90gqY136R5HAAAYNEyI+MSBghHiLx40ZcLO7Z9JpsB1US1PRd5JaIQJW7o0bVr9OL9B/YXXnnllSD8EDAngIzMAsJqTyY72qLJaD+TtEfGis76k+O1gaOjte53h6otZ6asaNUPsB3w5y1mirneUweBBwBgqSHaGZt518waRn5MWI9iiFtNJShuSHRXd6z88Or46K6uyNmBNuNDGTk/+eCN108+99xzbv1DwGwDFvxd8vbbp+Nbt67ZaMQTj5Y9dHAoZ+04OWZu+Gi41nN83MpcytvRqZqHPV58rX9iRiL4LG7FDwAAwEIj8qowv/p03hZa8VzoxVtCps8wDajqBUj1+VomSI1pWqx/TX/h/v17wZKfI0Dg74J33303sW3bxl1Y0R4vmt6eSzl767Hh6uoPhiodH45U4+enbV3MBOeJsR0FM0u41yKOz3QAAACLndBuabiZ+Va4LY41DlKGbJfifMXVai7VuO5rsoTVRESNrV67unT/PXvzIPKzDwj8HSLEfQcHK8qTuZq/a2ja2XRytNZ7eKTacnLCjF0uOFLW9Lm48xgu4vhniTsAAMBSJczf6pufYuZxruhispqqG2DXo6rPkEYpVlRC1ISuxvpXDeQfOACW/GwDAn8HCHHfu3f/XkmSniiawe6LWXPj0aFqFxf3xPExU79SdlHFY9gXvU2ak8VcLwEAAAAsd8K8r54Bijk2fL5TcQK16lEN+YEqMazFo2p83eo15YP37Z0GkZ89QOBvE9FT/v7779/tBYEQ910jRWfDiZG6uJ8cN+VLRQflbcrFnXueOVkMAADASqUp8vzfo9yS5waQzUU+oEgjjCq6JqmZuBFdu6a/8OUvPjUNI97NDiDwt8Hp06fju7jpzhh7tFDjlvtUbcPxoWrn+8OV2NFRkwyXPVxxZ4p7/XMAAAArnqbIcyeySPEaneVyS95lmoSwqspEixlqrKOro/KVp5/KgsjfPSDwt8g777xjbNu2a6/r089V7GD3SMHZcJxb7h8OVWLHx0xybtrmlnsgqp8acRgEHgAA4FM080Su8H6AUJUbRKbjq/y4KmGsaSpRMhE91tnRXtq4fs00DGt7d4DA3yJ/+qf/ZqvL6APjJWf3mfHahg+Hqj3vD1Xix8csMlLxUNmlSLzmflXcBSDwAAAAn2ZGvigs+fpENVSrOlTzPKpyUVJ1TYnu2bGrsnFdP4xdfxeAwN8Chw8fjkQz7TvKdnD/YM7edJiL+7uXS/Fjo5Z8nlvuRS7uflPYm5b7jEgMAAAAzGBG/ihG7i47FOernuoFVCOIqRFZtMlrsV27dhS/+NQTOaiuvzNA4G/Cq6++qt1z4MD+ibL34Okxa/uRkVr/kZFq5mzW0iZNH1c99slUr1AtDwAAcGuEeWU9wwwteb7DGFItbsVTxBQJI9VQlEimtaPyW888BSJ/B4DAfwYvv/yy+oUvfHmb7dMDF6es3e9frKw7PFxpPzFhRQaLLql6FAVXLfbGGgAAALg1wjyznnGK8cAsn+Fp09ecgGkyY6ouY6U1qcX6e3tL0aeemH4TRP62AIG/AaG4f+UrG3MVX4xQt/vYSG3j+1cq3dxyj01WfbkixF14FMIuImhT3JtrAAAA4OaEeWY9DxVD24qRP1lANSe05FG9d72uxu7rWm098ciB6XXr1rE333xTGP3ATQCBvw6iWv7pp7+y3XKCfZdz1s5jw7XNH12p9H00UksPlVy1FjAsIuLViBlWMDU2Q8EHAAAAbplmtolZOH+Nyy35PLfkXW7Jq7KkGirWYzpO79i8KfPE44/QrVu3iqFtQeRvAgj8NQjL/cFHn75nsuocuJS19hwfNrccvlLuP521WodKjlHyKLlquV+tnhcHGmsQeAAAgNtnRj4qOt45PsWUMY1SpFPKdCKRpCKjJMYksnXrRleRpCmw5D8bUKMZPP/88+SP/viPd01X2IOnx6v7jo1UN348Uus8NlrLTJqBXvIDyREtQOFTazw6sQqjmFjwHXiiAAAAd0ZTrhvT0BoyRhmN0PXtRm1fXyy/pzcxvrXLONWf0Q4nDPkXhJBzjU8A1wEs+Bn8k3/yT1SS7Lvvct4+cHS4uuWj4VrfqUkrM1R09KJLJb9psTeFvCnm4XbjGAAAAHBnXM1X65mpaAqteQw7HlX4SqOIaYpMJFUmAWE0t3/PzstQVX9jQOAbfOfQIX3HjgcfOJetHTgyZu44MmL2nxg3MxNVR6v4jNRHqOORDoagBQAAmHsa+axQbzFBje0HkukymTFGZEKQrhC2detG8949uyZA5K8PSBUnbHd/4pn7L+Ttz713ubLvvcHqhjNTZteVvBOpcXHnpUb+1xB2aGMHAACYe2ZItsh2Ze7ShkS3dhi1vb2x0Xv64qd39EQ+7IqrP0tGlMMYYxD5a1jxFrzoMb/noc8fmCi7D52dtPa+P1Rd+/G42TVe8SIVj0n1eQsb4n61PNSMR83jAAAAwKxyNW+t57eUr3zKxHzyiu0xVVOwnDRkNapLWsCQayhkHDrdfZoVLfDCcr//sScPTpaCR4S4Hx2urj82YvZcmrajZZfWxV1EstBqnyHmM/QdLHoAAIA5ZIZkU4qQ5VJccwIVE6JFdEmNqJIWUSTj849/zlYIiPxMVqzAizb3hw4+eu9E0f/c6UlrzwdD1fVHx82eK0U3WrB9ScxZHIp36PgHZur4zH0QeAAAgLnjmiw2YAz5DGFugCkeYxoiWIkpkhpXJfmBBx6ydEWaBJGvsyIF/jvf+Y7+1ae+dN94yXvk7JS194Phyob3rlR7zmTtaMHyJTd8FY7HqlDIr4ld4W544jfPAQAAALNHM78N82Ph6vuidtX0GSlwS54GWE3pRE7pEtG5Cf/EI49VJAlNg8ivQIH/3vfeMT7/5afuyVf9h09PmXveH6mtPzZe67k47URzNa8u7oKrESvc+zTi2PWOAwAAALNLM78N81y+EGsu3dyKR26AsIKQnJCwFJEINlTJj+qoPHT50nmYZnaFCfw777xjfO6xfXtzZffRwby99/0Rc8NbVyo9Z7N2rGD6kheOP8uZGZEAAACAxcHVvJk7xsLp5yTGCAqYhBklcU1icUP2du3dW75n1/bJlf763IoR+EOHDul77n1wk+nRh06H1fLmho/Gqj2nJ+zYFLfcPVEcFFyNQOEeAAAAsJho5s0im+bZNneYBlQKKJKIhIhECI6oRLtv187qjh1bsytZ5EljveyRZdkIqLunbPlbTk7Za14/X+z4aNiMFaqeRD1a76kZtqmDuAMAACxqwjxatMVjVOXG2WgtICem7OgvL1c737pY3jBUcPcyTJ949tlnt7/88ssrtjP5irjx1157Lbpm695t2So9eCFrb/v1lUrfr4aqqfGyo7gew3VxFw7EHQAAYEnQyKtFQ7tLGXICRmw3UANKlZaIKqcjCuYWrLRh7Ya8pkmFldjpbtkL/Ntvvx3fsnPvdovKT35wpbrrzfOFNcfGam2jBUd3fFavwQjFvbEBAg8AALA0uJpf4/AdeT9g2PeRIjMm04BJikz81qTulAu5i3/5l38Zjji+kljWAv+jH/0osm33/m0WVT5/JW/vfn+wsu7XlyqdQ3knWnIZuTqn+6dewQAAAACWDI18m4n343mmHvgUUYYlIfZRjbB0VLbX9PdPHdi/N7fS2uOXrcALy33//oPbbaQ8dX7K3HN0uLbh6Git+/SEGS+6FLuiAya0uQMAACwbhHpzQx67lEkWpXJElUhCJyQa0aObNqwrRnVVvB+/Yl6fW5YC/9prR6M79mzdQmXlydGyu/v4cGXj4aFa1/mclRgue9gKEKZNix3EHQAAYGkzIx8X6u1wE94JkKzLRFYJlqOaLLfF9ei+nbunN/xnzxV//Gd/tiJEftkJ/NGjR6Pbdq/f4iPl6eGis/v0uMnFvdp9dKyWGKt4uOwyHIZsKO6g7gAAAMsDnp83DDcx0nhAxUygVOMGncqFXstEFTWdjMZXG5HC7/yd5wp/tgJEflkJvHjXffv27Rt4ue2JqbKz+9S4uenYaK37CBf3MzkLVxyGxRtxV8VdrAEAAIClzzX5uaiut3yES26g6bKkpgxZjShEaU1GIpGYMR0zDNGzflmL/LIS+D/+4z/uiKXbH8mb7q4LOXvz4cFq95GRaurStIOnrICLOw/yprgLQOABAACWD2GeHmbyocALg87xGJYQ05iPFIUgJRmRSVsiptz7wMGpPTt3lpdzx7tlI/CHDx+OpNq61zlMenC44G47Plrr+/XFUvL4SE3O22Gnurqwg7gDAAAsX67m7fUNyhiy7ABPlz1NkpDcmdCklCH5MVUJGPWHXnrpJTv0uAxZFgIvqubXrdu8QY3FnxgtODvPTJlrjgybrVzcjcGCjWzGQ1q88d6slgdxBwAAWL7MzOO5wNsuRRXbxxFZkloiMo7rsq8rpGJEtcED99xTWq5W/LIYqnbTpl1dajR6T7HqbRrMOf3Hh2stZyZrkbzjo4AQXLfaQdUBAABWDDOzfC4DPsZ4suZqH49Vk8dGat2jRXdtNJI5sG3btlTD17JjyQv8q6++qiEFtxVsuna05PRdzJlt5ybNyJW8gysu45Y7D+UwoHkBbdm2tAAAAAC/QWjbCQ3AiPLVtOXjU1O2fmq8lhkq2H3TNWe9Ek13Ltfx6pe8wO/Zc7CHydq+0bw9cGqs1nlmyhbvuqt5O0B2wBCX+Dog7gAAACuPUOSFBGBU9hgeLjrqmZyVPDth9VyZdjZLkeQXDhx4eM1yFPklfUPf+973jI6B9euKNnro7IS5+dhQtefEhBkbKrty0aFYzDT0KZpt8ABwp8wsKEJcApYiIg7PjLsrIU437kv0qrd8YfZhRZOJZChYTuiy3NESj3at6srHI5FlNSnNkhV40bFux54Htldc8vi5idrOY8O1gSOjtZbLBUcX4h72mg9DVYRlwzUPAcBsAfEJWEqE+eIMhb9e/F2ucbpxX+LuKTfnLSdQfZ8pEYVoCZ2oyUgkumfH7mIsZuSXi8gvSYF/6aWXlKeeemqrjeXPX8pae44NV9cfGap1npwwoxNVPxxn/qqoi0Cd6QDgbmkmfYhTwFKiKe6fkq5GBF4pcbpxb45PUcH0ie0yLaZLasaQ1agmK63pmHbvPXtzmqaVloPILzmB55a7/NQzz2y3mfzwcN6554Ohysb3B6s95/N2PGsHkk15EF59JU64+ucAYNZoximxhvgFLAWa4i64Gn9nRN5mXF4J8VncI38UYtwzQhjGDOv8mBxTZSkTk1k6FqE7dmzP/vN//s8r9Q8sXZZcJ7uHH364z6NoZ9H2t46WvLWnp+zuo5NW4nLZk2oixKSVEkuBBaEZtSCKAUuFpriLdbjNaYr7p4411isBfv+iJb7sUHw2Z5L3h6rxs1mzq2QGq72ArTcMo42xq120lyxLTuBrLktO14K+c5Nmz8fj1bahghMt2D6xAxrOInTVal9JkRWYe5oZoXAz41YzcxTM9AMO3EI7Qbhu7FzNF6/JHK8eX2Hwe3a5aBStAI0VHe3SlJU4P1XrGi3Zq6mk7Mvlcl0Nn0uWJSXwzx86JFtukJ6seN0nx6zWo8NmdLjoSGJqwKsl0jCyNmJs4xAAzAqfyjz5gs1w4YIyxMCBWwQurIBuRE5uis6MqAiH6zqNrHLFEd4zrg9j61Gcr3l4cNrWT43UMley9irTQRu4Fd+x1K34JXPxou197bb9u4t28NixMfOhty6UN30wXO0YKztGwabYC+Msv52VGFmBuaeeNdYJ41h9R2yqEmISJhRTGvDCZf0Ez1bDNQAsBGEcrWeGQt99vuYOC9nnBQCCKJL4aWEYcU91fyEzNlcEYVkIoZiC0eq0Srd1Rs2Da2Kj961OnuhrVd/E1P1pWyJxgT+mJZmel0RwigEIvvKVZ7dfnrYePTNRufeDwdrWd4YqPScnzETZo8Thj76p7wAwJ4gIdm0S5/FNIYjFFeLrRLJ4HmBzLx43kERXz2t9A8A8IzLEeknT5CJWCxgOAkaYTxV+UOPirvGzKvfGPYohPxsfqW+tDMTD4U4mXORVgrpiSnBgdbz4+Prk4Pbu6EedKfWXBvJ+HovFxusfWFosiaAs2XQj9b2DH49Zn/vVxdK2D4bKAx9P2snhois7okbqmkIoAMw61wi86MupSpjFNeJ3x9VKOiJP82NZzHCZR0dRoRR2CQGABaOZJ/J4awYUCWPI9agS+CzieyzlMZpyfBQ3PWpYfqDyfJTUBX6F5aciXfP7Fe3VcQ2zPV0x+6HV8dy9fbEzm7tj76WM4PvpWOxI6HeJseiDUVjvD37ha5+rWf4X3hks3/vqmcKaI8PV1qmqp3Hh57loI3RWUoQE5p9Q3PmC/4uopnODJ6lLQXdCrW3rjowPtOgXNRmd43njBKbEZBgF4hMAsBiwvECIPLEsqnlOkDJd2lW2g+4p0+scK7stkxUv6VIURRKS6wK/AvNUbizqMkZrUyrd2W5U71+THD6wPnl0bWfkdSWQDkUieKjhc8mw6IPQtumGoZL1+KVp5+G3r5R3/vRsqev0hBm1fUaCsB8J97TSIiKwMIi4xk1zEd3iMmYdEdlb36pP378+eX5LT/RDnjm8PXhl+CPkI094V7SwxRMAFhRLLEyEXMnBZlUmjGiRRCq9u2QGa8Yq3uoLWavvQsHqLti0vUaDdMCwcjVTXUl5K0+uCjfj2w2J9cdV997VielHNqXPbeuN/iohST9qTanvN3wuGRZ18D3//PPkH//3/4/Hjo1Wn3njYmXvB0PVdcfGa6nRkqtSUQEKwg7MNWHnjiYiwjFE+KGEgumqmGJt7TTGHt/acmTvQOIn08OXfvLYfdunlmqHHGBlIHqGf/cH72f8eCop6Yl9lwrO5nNT5oYzeXvd2byzynJpC/ek1o2nZiY7I0pfPbbM4GldVNNHJILSKqY7eqLVB9elR/YOxD5a06If6sxoP4sSMlL3vDRYtK/JCXH/oz/6451lO9h5Je+uPjZSbT8zUYuWap4cvgUyM8IBwDwjYcI0QvyIJJlJVSq0GvLUL3/6V1kQd2CxI+Lof/Fb907//Sc2XlL80b/ti1p/sX8g8cttPfETvRn9SjIqTWsEu41ud3VWRJaLkegda/kU5ewAX552tOOjtfTZcbN3uuJu9C2/p+FxybAoBV6UMP/bP/7jrVM2e+hS1tp3KWcNDOXs1qmKp9seI58yqgBgocCMEsI8TJApE8luHAWAJcPvPLIv9395bPPZiDf+1/t7Y798dF3yxO6u2GBbVMlHZOzJocivkAy3UaARnWfEkOeTVU85OVaNHxuqdQ4X3LUlJ9hbtKw1dV9Lg0Un8MJytxlb63ho30TJ3nV2wlx7Ycruyta8qOlQyRPWe1hFtEyriYBFRjOucXdtlOOWEGWhCzzGoFMdsGT5r75wz3iH4r3+2Nrkewf7YmcG0spYSpVKCkJ+WCcVJoFmWljGNO4znDveoeRi1jZOj9daL0/b/VNVd2fNIQeqVbpkRrhbdAK/detWHDjBuqrpbx3JO2tPTVpdg3k7VnWo4nPTPSxLroB4BiwSmnHtRvGN5wU8TopoGUZNAFiqfONg32hGr/1kY5v+/s6u2KWBjJaLqcTClNZfVhKsmHyXhe+6Vj0qTVS92KWs1XFh0l47XXW3O4G/uuFp0bOoBF5UzX/5y19eWzP91bma1z+ctzvOT5nJ8ZIni7HmPzOjBQAAAO6KxzasGutNqaf29EQvb2yLTCZUUiViILwV1e+pcZ9CaySMagFVLk5bKW7Jd4+X3HUOQ7ssiy4JkV9UAv/KK68QM0Ab86a3hVvvvUMFJzVS9LRpy5PEpAD1KiIAAABgLhAd8HQrf2ZLV/TU2jZ9OGbIBSJhm4te3YpfKRovEHpDuMD7VLpS8owzWat9MO+syde8e6vU//xSEPlFI/BiQJunnvryettF6yYqbv9gzmobLXnRAhd30xdFSB6zQn0HkQcAAJgrDu5cm+3LGBe6UtpwxJCzSJWqXOj8eta7EhSe32hTZvja4vozVvXkSwU3MVR0uifKzsaa6e8PCH04l8st6p71i0LgRce6g4891s0U+UDRCnZcyXu956ac9EjZ0cLhFSlD4aQ+okTVfPAAAADArCOs+K6UfDkekc8lo/JYVJOLskQcngnXh19e7hovNGaG1oiO3WUnQOMVT7k0bWcuZe1VQuQtJ9gdT6UOjoyMtNR9Lj4WhcB3d3dLqWhie9kKto6W3DWnp8yOIxO12JWiI9m89ASiDgAAMH8QQkZrtn+2I64O9cTkqahGapKYkG4lVdEL4QnFnjt+31Uu8lzclaMjlcz5SasnV/HXWi7d0N7evXaxTiu74AIvquaffvrpjqrL+iYq7sBg3u48n3cSlwquNFUL8NW290X5+AAAAJYnMV0ebtOli+1ReTIqSxWCiceVbuVIfCjunwiPzcVorOigs5OWzIU+wa34torld7lBkHrhhRdA4K9HLBaTOzt7dpcsf+PpSbPn6Eg1NVRw9JoXkIBHpcaLcQAAAMA88ts7W0cMGV9oiym5qEKqBCMPMVyvpl9R1LVbVNUXrQCNlVxyJe9oQ9N2aqrsdXDh7/3mN7+ZCT0tMhZU4EXb+/bt29ssRlcVat6qc1Nm68nxWoSXjIgb8KcaPtdFWTACAABY9rRGZSujyxWDIBvX+zqHZteK4eqtYiQMzpoYxtYMyHDBUS9mzfhY0W03Pbq+vb1ru9CzhudFw4Je0L333qtE2zp3T1e8DaNlp3t42k6MFBytZAc4gPFoAQAAFpS4KgUxlXiyhCkWA7ytOHEXt8ydsDO5E9UXVT9Ag0VH+njSilzM220Vl/ZRSvv/4A/+IC0+sZhYMIEXbe8DA1sypu2vmqy4q0YLbutE2YsWar5kuRSH4ypA2zsAAMCCocsK0yTCJIzrvchEvhwK3wrh2nvlmuRwlR81fXIia+nnc3YqW/W6TZ9tbOnoWHRW/IJdDGNM7V/Tc2/RDDZcmjK7L06Zyamqp1kBxaLjfBibQNwBAAAWDEXmIsFVArJijjA4+bMQVrzpMTRdDeTBvBM7l7U6+Lq/5tD+3/7t307WPS8OFkTgRSlnz/33t1oBW52reAMXJqy2yzk7WjQ94ounKB4kAAAAsCj41NSxKwVxz2EtsnCN/RlFHSdgZLLs6SfGq6kzk7XuXNXfuHnztt2HDh3ixaLFwbwLvBD33/3DP2xrSXU+Wjb9beMlZ9WlgpO+UnS1shvgcEqu5jMMp/EQrrEPAAAAAPPFVWFvMGPfpwzlLU8SxunFrN2eM93+qu/1t7S0xOs+Fp55F/iDBw8afS0t99Rcb+tYyV07XHQ6hktefNL0pCo338O2d4FYN51YNI8DAAAAwILBFZ7/i47gFZcKK97gWpbKlv2ekkk3rFq/eZfoY9bwvKDMq8AL633Dhg1xn+G+shWsHivYXSNFLyHEvegy7HB1v66Og7gDAAAAiwUu8PW2+ADlqp40XnJikxWnnW/32y7tX7NmTazucWGZV4F/8skntd7e3h1OwPqna37n4LSbHC87Rs32cVAf1YY/OFE6up6rfwcAAAAALBihFol3BjFyA4RKXoBzVV8fLzipbMHprjn+hp079+x56aWXlND/AjKvAj9FqWx7uL1mBx1TZTc9mLeMsaJDatx6pzPfexcP8FoHAAAAAIsBrklCscTodjWP4azlSkN5J3olb7eXTL/fp3Rg//790brnhWPeBF5Uz/dFInrRdFrFO++Xc1b8wpSt8G3+gCii4omBpQ4AAAAsIbyAoawV4BM51zgyZaeGi25PyfQ2rNu08D3q503gv/a1rxnrN2/fNW3R7svTVuZizjYuTTvqeNXFJhf4sPUdxB1YYmDECOEO42Bea8MAAFgciNblgk3xmYItHc1ascsFuy1f81Y5rtenKIrR8LYgzFum5Pu+TBnuHCnY7R8OVZPncrZWcnzscbMdJpQBliJC3PlS4lFYoxgteHsbAADziDBIG33EKGXIcQJcqPj6SMFNXsq7nXlLVNMf3Hb48OEFyxvmReBF9byu64YT0LbBott6eLQau5B3lGpAMRMPqP6kQr8AsCQQ8z8zLPFYq3OXIAwnt27dumgGuAAAYB4IZYsbqFzgqcewbflkuOBGzues1HQtaKE4aKlUKgv2yty8qOrrhw8nd23e9tBkyX/s5Q9z9/3lR7l1IxU3WQuoFIiuiND2DiwVGEOEp+eMStiahOLu7IlNfWln66kDG5LvRFX5Z2/+/KdHhoeHV+CUmsCdsmHDhrAKM5vNsueeey4c62ux8MqH2X0fj1Wf+dnpwqPHJ6yNpkfTSMLyyhza7gaI0GvkC0kV03VthrmjOzbyxe3p95/YlP7pqz/8qx9+4xvfsOqe55c5DyVhvT/51b/ble7t/juDOff+Hx7Jbf/x8ULnlOlGPEJIeAWhFQ8AS4BGQk6rElqdUPxd3dHKM3tah+5bkzwdVclxnu9dJIxZvoQWVUYNLGoYN/F8xuPNyGDu7KFDf1MUB8fGxnhMexht3Zplzz77LMWiNXOeAYG/BRoCL9YKT/xxVbbXtxlT/8X+9uN/Z2/rz6+cO/nd3bt3h2E638xpKPEIiz88e7alp2f14yfHa49+PGLufuNcYeCXFyqpoutLlPBYAtY7sJTgiRjzxByTCeqMSGx1WnPvW5MobO6MjksyGeWRfpqfdyhjIPDArYFFkZG5fFF2PDbu+DTHD9o4YH5cI34qrpiGFFz+3Jb28cYn5g0Q+FuEB15d5ClTEAl60mrxP9/Xfum3d7Z+2B6VXxu/dOL1ffv2mXXP88echtLhw4eTW3fuuXei5Dz65vnSPW9dKK4/Pma2n5my1JrfaH8HgQeWGjwdKzzORiSM4rzI3h5TnJQmVwhiFZExI0R9xqN3wzcAfCaYqwI3z30eY6q8VFjkOlHmOmEhLvBtCcVZ364XNvQYF9oT8gdf2tF5qfGxeQEE/jZoiDw34llbVHGf3pKefHJT+vymTuPDdS36oTMnj7013yI/Z6EkrPePPjrTtXrT2q9fmXYf/PGp6e2vnS52DRXs2GTVJ2JY2vDXoXoeWIrw6MsFPayul3hklxjy+a7HIzTl2TW0wQO3TvgiEQv42uVbFsPIZpTHp4AGPUnN2bUqmrt3bfzMzr7Yuxvb9V8NtMfmzZIHgb8Nrgo8QmmdsHv7EtbBgejY/oHE2T398fcSqvy3P/zhX37w3HPPufUPzD1zFkrvvvtuYtPOvfunK+6T57LWwR9+XFj3k3PFdMH0ZNOhWLw7CAIPLGkaCVr0oBUlWr5ff+NzAdpKgSWOiDmi7UcUFBF3YmhPimhvSnX39kSm71uTOHnPmviv1rbFfrq6TT9T/9DcAwJ/GzTyA/Fk4gpBW1r1YGdXpPy5jcmRg+tSR9IR5Y3Txw7/1X333VcO/c8Dc/aanM5xPTqQr/pdYwU3M1VzjYIdyGJYv7BxEuIHsNRpFlDFy3Iyz/EUQpDKnYwlcOBuyylcNGWi8LXO96N8O8bjU5wLaYJIOCkRlOSxLC4RDOMtLFbC/KCu82II27zpkaGCHZ0oei35mtdru0H/9j37N7/66qta6H8emDOBZ8xQLJ+1Zqtuy3jRiZWqvuK6AaKh6d4ArHdgqRMmar6Y6YR1Aw7cHTm+kHghUcLiDSMJEcaLj1z8GRd2Me4Cnr/ByYA7J5wr3qZ4uOLKIxXHEHOvlC2vjQtgVyKRUBve5pw5iSznzp1LrN24ek3V8tsmyl76SsExCqYvh+Ie6juPyCIjBAAAAD4TxhW+sQmZ5hLB5zpX8gI0UfXRaNlTRguOPl3zIzWPGrIsz1s4zonA27ZkWB5bnat5reen7cSpKUvLmb7ECzWfRFUAAAAAWE6EtXjNanqEqj7FIyUPn56y5aG8K1fsgFQqlaUt8IwFStl045MlN3Fx2jbO5V0pZ/soELfVeAAAAAAAsOyYoXEBt2qzVRefnTTRYMHCxZo3r+o3JwKfNwM5Vw1SY2Unlq16WqHmSZYozgAAAADACkG0Sk/XfHS54ODRkounawEuNM7NB7Mu8CdOnIhFW9u7xypeZqzsxWs2VVnASP1VIuEjXAAAAADAskbIXsUN0HjVx1NVXyranlyrLuE2+Ao1oo4krz+Xs1rOTzuJacvTGBZDLUOvOgAAAGAl8Ek1Pdd3UnYCJVfzjOGCE827zpzUnF+PWf8hFvhy3vQSJ7Nm4th4zchagcSar4CEN9y4awAAAABYjjS1LlwziQVMnTb9+MW83YJb13Y9//yheZlaetYFftKmSrbiJ4fyTvxKwdXKtj9D4Js3DAAAAADLmFDruOgxMZo10vNVL3kx67SWLHmjsdWPhn7mmFkV+O++djRKlHTnRMlttc0gwbxARZT/BjS7AwAAACuOulFLCZILpm9cmLLiQzknUszNTzX9rP5IPKG12UjaO1lxu2sOTSEf6aJ6gp8Cux0AAABYWQjlkzBmmJGyR+WRvKuMFl0la81PR7tZE/hDhw7php5qnyo7vbmy1+kELMkIUsI7ZMI1PAIAAADASkJMJUSZ5DMql9xAdlVzaQm80rkmQxVl81TZ7ZyuehnLpwaSsYIw9J4HAAAAVjJEjOIqcVtXt1zfsMr60qqir1ZcKVf14tmKmyhYXtShjIs7PwEd6wAAAIAVDSMIE40LfNzyWKsZ6Wh99uWXRfP1nDJrAp+ruCRX8ZVs1dfKdiB7ARXz3n8i7iDyAAAAwIojrMWWucgbGJMWh9JVFOP9rRcjifr5uWPWBD5f9Ui26ihTVU8q2gFxfQpzIAEAAACAmPw3tOBZxvHYqrzF1mYjrV3PP//8nL4PP2sCX6xa8lTRi+RqnlYSAi9mjmv8AwAAAMDKRVjxTOXrhB2w7rwdbAqUyOO1Tb/T//IcVtXPisA//51DeikwMmJ62IoTxB2fqkFwjbSL+nrGF9CbHgAAAFhpYEwYxlGbsjZuBA9MO8FmParcO8x6kw0fs85dCzwvfajpjr4NgWI8mLf9Pm65p5mEdUSYxG+oLvKhqDfFHRQeAAAAWIkw4gc0WvNoR9kMBqo1b60aS7U+//zzs1abPpO7/lJj/X1tkqZvGzeDddN20O0wmuaH9Xq/ghmArgMAAAArlVASMQ4Y0myfJqoO7S5a/mo9Et+/5d6vtIR+Zpm7FvhC2VQnLK9lqOK1TVp+2vYZF/ew8f0ThRdbYjc89MlhAAAAAFhRcH3k9q7u+iyTN/2eqVow4GpGhjExItzsctcCn3cCOVtzIxNVN1Kwqe5QdP0OA01tB30HAAAAVizc0mVMtQManTaDtvGy1y1FM9tf+/VJUfs9q9y1wOeqVJ6ueoZtU40GlIu7eKG/oeKiWn6mAwAAAICVSlMaCcY1j2rDFS9+qehkxqtuS7ZkafWzs8ddCbx4h2+izCLFSpD03CCCKJMRbah701IHcQcAAACAOmFzNUImZdJY1dUv5Z34WNlJlG2un7PMXQl8cdNXe8uBsiNbcztcyhL8qjWERe/5hgeB2J65DwAAAAArGa6JjNvxQcBUywvi+aqfKjHVaJydNe5Y4EW3/pylZUYKzpqpmtdpU5REREwuI85eY8UDAAAAANDQRYK5wkuIMt11aSpv+p1SPL37pUNnWkM/s8QdC/yqJ/5OZ0SVN+WrXnfVoa0BZVFeJlEaF/4J4maaDgAAAAAAoYmYEay6lKayVtA9XvbXVkyaaZydFe5Y4CmNx2yXdlZsv8X2aIIypHHDvS7u0O4OAAAAANcnNHjDmm7VpiiWs/z2obLbo8SSm39w5HJKnJ0N7ljgpyu2VnWDpBuwuE+RJtoTwhNgqQMAAADAZyP0nSDsBVTL17zEeMltKdt+p2u50YaPu+aOBF68kJ8zg0jVoRmPoTg/IgbRF/Pl1AGRBwAAAIDPhmslN5BJxfTVQsk1ChVPt2verE0+c0cC/69+NboBy8ququ93U8aSvCSicZHn38WLJELcmw4AAAAAgN8k1EiMKGXEc6lUrQVyxQ7kvO/dcc36tdz2F715qtqFfbylZvnbbI/1BAiJ0XdE+/usXRQAAAAALGvCvmp8wR1liDg0UMqmrxVrCyjwlm8lbdfvL1tet+P4rYyx6G+8+w4AAAAAwM0J672ZTCmKlJ0gVXF0tXHmrrl9gXcCpWoHsarlx52ARXjhQ0aY8AsEhQcAAACAWyfsSS+mVtcCjFO2R7tUI7L7f/3+qVmZXe62BT5veyRveXLJCmTHZ1IgSh+g7QAAAABw6wjdDHvS8wVBBmUsY7q0z7Tp7kRHct8P3z4dr3u8c25b4KdqHhqv+XjKpdj0GeYX1TgDrEhmtCPB2AcAAAC3QWgchwIvBwzFLNdvL9a87opN+5gq3/X78Lct8KM17qo+mrACVAkoChrHgRVMKPLNDQAAAOCWEVY8dxQjhRvN0YLlJwo1P246VGn4uGNuW+A9z0NVl4q2eOTRRpYeVjWIDWBFAmEPAABwV1DGiOUzqegESskO5EKN3LY+X8ttf4HLLXjKBZ5SJiat50dA3Vc0YdDzhSiFQjwAAAC4Iyg3l+2A4oob4Lzt47LjNM7cObcv8F4gBT6V+dUQ7rjI85wd8vWVTVPbIR4AAADcHo28k/KVwxdll6ESN6IdOzx7V9y2wJc8X/MojTAmhqdtjD8PAAAAAMAdgpGoFLcpQ2UvwKWFsOD//r95J2NR1m4HKEORmB4WifnfwW6bbZqd1qDPGgAAwPKHqyjXd+wHDJs+JaYXSBUm3bUBfVtfkKfxtY5Ht9k+7eBXlEAYK2DFzzKhqPNF8/VDEHkAAIAVgMj3kYR8pHkujVqmLTdO3DG3LM7P/8d3E2UXdeScoNcJUDu34GP8ML+AsHcVMBdcFXm+plT0bKQoEGsWzJ8Lf48HN78IKGwAAADMEZjwvFahAY25bpDGWqzzH/+L7xmNk3fELQt8kOha5VK6rmD5HTalKYawwT8NY9DPNuHz5Auxbj5bhgLuXESRyV0F+bQ6P45VeYSr8isw+cW4XORFPxAAAABgVgkNZTHlukYJTnIjuovntrvk3h199fN3xi0LfNX1jLLlp0sWTTmURRgOx89tShAwm4TiHj5ahhnyFYyqhkyyUZmMJhQ8lFSlwYQqXZ5Tp0iX4zIZjMjSsE7QhIxZkZcvbRB5AACAuUC8kYYV7uJc4DuKFu21kdT5J6++qjU83Da3LNDf/N/PPvTWpfJvn5+27wsQWocISfBP33UbAXAD6lXiVCGo1BpRJjpj8kiLLmUTulRVMPHrFeZzq7UuZaRsBXrO8jM5K1g1bQddPOJlEGE8wkHhDgDmDMqTd8BQb0L27umJFQ/0x0/uHYi/taEr9v1VGe1Yw9ec88qH2X0fj1Wf+dnpwqPHJ6yNpkfTSMIyEvOLAbOLaALl+b6MsNkSIaMDKfXDvT2xN7d0Kj/9rx9bc6Xu6fa4pVD6lz84lDpZ7Xz8rQuV37qYd3YFGPUiiUT4p6WGF2C2YTyFB9iMKHh8bYt+dm9v7OO1Leq5rqQynVSJx8+yYI7HCRY9OYcLrnFhyt5wOmftuVh0Npdc2oswiULYA8AcAgK/MuECTxB24zLOdkTlY7t7o2/u7NL/+o+/uPZcw8dtcdNQ+u5rr0Wr6tYDH43WHvvbc8UDV4rO+gDhVh7IoioBQnlO4Pa5GOaf0nJMli9u64588OCaxBv9qvW+Mvr2WMPTvDA2lsZjfVsfOpd3vvpx1tmfd4J1/HA8TOQAAMwNIPArEy7wmCFPJXg6peITu7qjb9zTq//g//lbG083fNwWNw2lvz4yvfXjycojh69UH/hgqLpzvOL3UsyiiPAQhjCeI4TAM58n8HxclU/t6DJ+ubkVvdxz+YenX3zxxXlvA/8H3z1777ms9VtHJq37p21vE7fgkyDwADCHgMCvUMLGV59QltcxPrGzK/rGwW7l+//i72071fBwW9y0k13ZcyITZb8lb/qtLkUJ/usqWO7zgAhmjBnjQk8wtiXK3IUQd4GMGSUSC/jV8IIHL18CAAAAcwblhrznU2J5gVQK7lxvP1PgRW1BzaVyzvT0ohPoHqVC3OufAYmfexoiTxGjUsDFdYHg4i6uBIQdAABgrhHzuzBMuDWnBAwZdkDvuLb0phZ80UE4X/VEb2riBIyEuTyI+/zBg7qxBQAAACx3ROM3RjIjOOoylvGon3725ZfvqFPzZwq80PGK5aNs2cMF00e+D69AAwAAAMDcIKrjw+HfNb6RdinrkRTtwJbIPduff/75mxrk13LTD1iWh/Jc5Cu2j8S7WQAAAAAAzBGijxtBOrfgxaByPdMmXeswtnPTF/9vPQ0ft8zNBd5HiHoUUb4GAAAAAGCOEXY8QrrjsVTOdNunq15bNXDE/C+3xU0F3vd8RJs184z/qqi3ry8AAAAAAJh16lX1dhBouWoQmeSuUAuUxslb5tYs+E81vTdFHgAAAACAuYBb8Nj1GCmbnlSoesT2vdtW3psLPLfgg+aY5yDsAAAAADAv+JRh0dG9bPm4VmscvA1uKvCmgzD/DYyIqJ8HAAAAAGBWEf3Xm24GYvQT32fIdSlyvcbB2+CmAu8GvhJgJMadlxAJe/eB0AMAAADAbPIpkecy21Ravk8pRR7/u10+U+CffeUVYvvEYJjF+K9p/JdgBjEAAAAAmEtCcReLutCLIWhqrjh2e9xY4BnD6dqO9YTQtZTiVn4gxksSCl/f1OoHAAAAAOA2aOj59RAd3T3v9hX+hmL9/AsvYNenqyhlq7mot3OfMf7jMr+CG1wCACxyrlZ/AQAALCKa4n4DkfcRnT0LXkwy0/fAfzkgYzRAA9rDf7CF/2qEn4IqemAJ01B4EHoAAJYCQuxJvaO7cwezyt3Qgvck0sYY7QoCLu4MixF0PplJDgCWGp+ajA/UHQCAxU4o6MJJDDE5YMFt6+8NP+A6VLUDGvUCFgnEHPCM+4V8EViqfKrwy7evVxZuWvZNdz3Cc3wRuvqhkBsdB+6MTz3Pax7ozOPXnAKAZQVGEs+7NGFku5TojaO3zHUF/oUXXsAWLy3YPpNdSmVGofc8sAxoFoivJ+5NhGA0RWPmtiDc5otrjze5evx6J4HbZuZzbm5fu3/1AAAsN5gwqoVxHaeItSQ0PPBP//piR+PkLXFDC75qI2R6DDuUYVrPFD8rWwSApcHMWByKBF/MdPWDnz72qXOfAfQ/nRvCRz8jHGYGw2edA4ClTNgkzhSeZyW4wHcyxja5rj/QOHtL3LiKPgiwFVDkBayeZkgo8gCw9BEROnQNQeBORG0RxUWCEE5UWYX714v24sC1Yt7cvdpsBtwRzbCZgXiazbCQhBP7M1z4tK9+ji+u8x0AsCQRA8whHKEUt9ku7eYxvv87PziSapy9KSJ9XJeKH0iWj2RuxItBasM0BABLmjDjFwJAGaIs4PsBX/syQr4hET+mSH5Ck/wUd2mdO75OqJIfkSVf5ecxxj5iwvHPBZQXqvl38a+6aj0KREqB1HL7iMcXhgt/riJseLjwB+kTQnxVJn6Eh02Sh4UIExE+yUbYRLnTedjwXFC8SVQPG/Ed4ruaBTgAWLpIXKV1Ho+Trhe0M5/24dbOW54X/oYCbwXEsCmNOAFVeEq5oT8AWBKEGb3I8Jloc/IIQ5ZEUUUmuBJVcTltyOW2uFLuSCjl7qRaXtVwnXy/NSaXE7pcVlWpLEm4IjFWI4jZWIiJUJFQnK7+CHC78DDhSzGnlcdtCZNQVpEwf84KKWsaKSdE2PAw6OTh0SvCJaWWe/i6I6mEx1P8vM7DUCaowj9bJfw7+PdxsW8oPAQLsLQhFDONF3ujvseifhCojeM35TeEW+R/Aw//XrvPWItJUdJhOEIZk/mJul0iEgskGGCxE8ZTkblzRxtrxigXdIsLRq4rpgyvblEvbWozzm3piJ7d0Rs5u7PbOLu7O3p2V+8nbg/f39kdObtduM7Iuc2d+vn1rfplLv7jaYMUuOXvcOtRWI2iVqDxO/VLAGYgnslVJ55Rw4nnFjBPQawaUUm21ZBH+lPqJf6Mz21t189t7zTCZ7+jJxKGxcyw2dXFw6aLhwt329qjZze0Guf60/ql9pg0FpNJngu9w3+jbslD2ABLFiw62xGXMsX1qeKzQLRS3RK/UZn4/PPPk3Vf+MP9f3u58thPz5UeztaczYFL2xjCjVID/whUQ84xPCfimR63aKZjqnScC8+hnQn6V3/6B3svNDzMK//oz0/vOzVpf+2jMeuhnBVsQhJOcSc3Ti8+wky8kZk3M3Uu7liRzIhGpgaS2ui6lDraldTyHUnVSuoyjRsYaYQg/s8duTqik6iJdylCjk+R5QWo5gRKpUZjY2Wn7VzO6Rkp2u0F00+ZdqAzwp8JNz0RDh2kkSbh869vztgQYcILRcjBlJXiupRLRpXJgbQ2xcW90BFTrHhUCrjoI0ORkMbNc76JJBFAHBEuYnxun68dn6H6lJqBNFn1IqMlt/VCwe4dLnjdPMza+O/oPDA+CZOlEDaiQBIw1JuQvXt6YsUD/fGTewfib23oin1/VUY71vA157zyYXbfx2PVZ352uvDo8Qlro+nRdJj2RYcIYO4R8YBH9ZSGi2uSypntHZG39vXHf/DffL7/cMPHZ/IbofTyyy9LtVUPPvj6pfJTr50vPzRd9dbxVJTmpxoZeiNxQPjOISDwd8QM7eBFXiZxpxCJqZgFmio5uiFNpCPcOmzRTqxNqh+s74hMb+hQ7ZSmU11BSJlxR81Nv7H2+Ebg+7jm+NJU2TMuF7w1J6esneez1uqpktuTr/lpy6cxmzLdoUz2GMO8UNxIJY00sxIRYXI1XOobEmY8TEigEuxqBOc0CY+0xJTLrQn5UndKOb2vN5Fdn1GdjogWxA3+AUW5GjbXCxff8xDXd1SuBdLZvKldmna7L+ad/Wdz1uZiLVhtuX47t3xUhyLiBxRTXgC7GjaLNVxA4AGBMFAC5Ce4wK+OKWe2tutv7exL/uCffPEuBD7fefDhv71c++Lrl8sPFqruGh7Rkjxt1o2aGXkWMFeAwN8RoZjwrBsxyoVDdMxyM4bkt8cVuyelFQZa9MHujH5MlfDbU6O/fPOFZ5+t1T94+/z1R0NdPo48PG36m7MVd81Uxeu5krfbufWYGq94sZzp6dzqr0+xLCx6kWBWYpoJw6S5IR4BYxEJe51RpdYdV/M9SXWoI62d1iTyfjoqX2a18ZN//LX9+brvO+P/+5P34npi9RM133tgOO9uG5y2+kYKTmqi6mlFO5BtLvYeL4Qh3FCpxRguIPCAQAg8t+ATal3gN3OB390X4QK/7pYE/rqd53xhrfCSLo9k3M2I/mKr6YB5AR71LSASgXCiFMpjLLcI7aQu5bti8sTqFm1oZ3f0wgNrEqe+sCX94de2Zt5uGz0Tirsw5O7UfXVv/9iuLv3nT29N/e3TO9J/+9SW1Hv8N45v7TAu9CaUsZRGpjVZMgnC9Y544XWGy5VHGIkZkwgOIrLkZCJqYSCtjO3s0s8/sDZ+7ImN6Tf36sVX7Xf+3dv/lIs7LxBd95nfqvuHT99X3qtXf/61bem3vrApdeT+1YnTO7qiF9ektaH2qDIZU+WCSogjannC61up4QIsKcRrP1TMKtfYvxWuL/DcBfyLkM9jfjPyh4kU5GYhCKtOtHATuBHc4pEYCqIKqXXGlbHN7cb5A2sTRz63Pv3rg2sTv9rZE/llX0J/4/ivThx69tmHQ3FvfPKOWdcVn/q3/8s/e5NYtb9Z06K9tn1V5GcPrUu+c//q+JHdnbHzfSl1LKpJBYyJmAeKCz2/yJUkJuG98nvGKCAEe8mIXF7Xpo/f0x+9eP+a1LEH1iXf3dJpvOFOXvjFc1/YnXvxxRfrteezwL59a0ujZ4Z+3teqHtqzKvbL+9fF3354ffLdA/2xo5tatUvtMXkyImMLRB5YCvDMI5RjO5w2tn7sVrihBR8q/FXLSAg7iDuwyBBRs+EwY1RF2Mxo8vjqpH5ha1fkfS4kPz24NvaTe1Ylf7a5O/rm1KUj7zzzzF5rtkREIERp17quqf/0r/8/b7RL7t/cNxD/OXe/2L8q+t6GNuPjTFwZVGU8RQirIdaw5mft1xcx4T2KembkS/zeDU3Otcbk0S2d0bP3DiQ+vGd14hd7++NvYXfkza89vj8/m2HS5IEHNlfssQtvbe+IvnHvqvjPHlwde/W+vtjPuDX/YX9KvZDU5UkZI0tUVYYXLK5g1q8CAO4eEUMdnnvYPuXrZjv5zbmuwIcKL74xFHm+Hwq9WDccACwKRLwUsyChQJOkWiZCxtZzy31Pf+yDTW3R18sXT37v/N++8up/+tfvvvXmq3/98YEDB+y5EBKBEPo9G7qzL58//IZeLf5wU1f0Zzu69V/s7op8tKZFP5/QpAleCClfFfnlTHh3YUHGkxAppQ15fG1GO7+7O3J0Z0/03c3t+t+Wpwd/9L+fOfzLh3ftKs1VmAh27dpVO/SzHx4V4XLx7e//n8Ho6H/a0hV9fX9f/MiajHYhzsNFxdjiYVN/nU5cyZxdDQDcIaLTLmOER1HJ8f27FHiOGAyqHuEbIt+M9ZAAFgansQbqNOIg5hFVQcxMGGS8I6Vd2NQZOXLPQPSt3JWfvflHv/tk7Vvf+pb34ouP+M899xwv986dkDR58ZFH/C8/sil39qf/6lCnUv7Le7pib+zs0D9sj8jnuCU/yRNcJRR5ISjLkTB/EGLJLXdMyqqCx7qiyumdnZF393ZHfsEF/s3SyAd/+3cf3jstntV8hIkIe/FbIi78w793X9nPXvnZnt7EG1vaI8c7IsrFqEQmJMYteRB5YLEiRpRFSKaY6YxJSuPoTbmuwAfCghfxHCL6giMev2h/AWYQxknRoQ4HhiLV2qLK2Ib2yPkdvdGP+tP6W6Pn3/zVi7//+3bod4HgFr3/D5/ekyW0+Nrm9ugvt3YYRwdS2qWESqZ5ocRCNBTB5QlDVELMSutkek1Gv7ipw/hoQ5vxBs2f+0Hl49ff+c+/8IXKfAj7jfj2Nw5aE+eOvLGuzRDt80fXtBkXE7o8oUrY5pcFOR6wuMBh+7jsMxbxGE5weU89//LLtzSa3XUFXjTBCwM+pNn83njT56oD5gV41DdAtLkTZKYj0nhfRr+wpyd69L7+5JuV4Z/98tvf+IbV8LXg/NMv7SiodOjt3b3xD3Z1Rc50RqURCaESF/hGO9hyg98TpYGCSLUnpkzu7TLO7+w2DqsjQ7/6J88+XubWtLuQ4t5E1O4k7COHDqxOvrmrJ3q8K6lcjqrSlISIszzDBVi6MMJjpOIGKOoGLKPLZM3eTY+saZz8TK4v8NxkFANDfwoQ9wXjlsclXAmIrJeLO8LE1BQ80RFXLq5p0T7qSeqH8In3f73Qlvv1+KdferCgBEO/3NimfdgZVc/rhExKBNer6uv1ZMsDfieYkUCVpFpcI/lVKW14c3vkdHRs8Nf/3d+/v7oYhH0m3/ryl03zyvE3BjLaL9e2Gqdb4/K4LPPCl7Bxwslq6v4AYGHBok1PDFWr1yiLc6FPOh6KNU5+Jr8h8K9wF/axazTBA4sEeE2uLu5164pbgShvaMrQQIt+vL9VfUsu/Oqdb33ry2KSkUWJEPlaafIXrQn1VDJChjWJFHlZ2eG3szyERNwDpVRC1ItpuNCeUIZ709r5dZ2RwWI0ay42cW8iLHkte+bnWzv0o2vS2pihShUet8SLSPx66/8AsNBwS4BYDMsmZZrFqB6wQGbN+WE+g+ta8DZXeDHO8zU2PAAsMGFu68sE1aIqmWoxpEtJQ35PHhx6dzFVy98Imh2p9CbV890J/UpSl3I88fFrFsK3DFSEhY16NiF4MhORB3tT2qm2hHy0Ojhy9IVnn72dsTnmnX69ZO/ojuYGMkYhoxFLl7BPRIEkDBZQeGDhEca2iyh2AkacAOGAu8apz+S6Ai86dYnJHABgURG+J4K8iERKvRFpdHVCudCX1Idf/K8fqTZ8LGr+5be/YSX94fe29RiDXXElJ2Fk8nvi4rfU68rE9WOe/7CcirC4txNr09q7kdLoW7/31bl9DW62WN2iW6vTqtkXV9yMJomhjqE1Elhc8FQU8KQmRpn1b7HIfF2BD6vo+Vq8IQcsLCJnDHvRr/TX5OoS4WOGzZiCp1fF1OF2GR9HI8dOhWeWCtWKuas7Ot2TUEsGwTYJX5lbwmaieLVMzOOOWUmR8Ai3fk9mNPkd7F059E//7gPFpSDugu6U6vSlNGsgKSa5kX2d8JARJ8TVL93QAZYTPB6KorSIjrdaJXZdgQeAxQeP2lwMMUYVQ5Um25LaYG9rdOLFRdzufj0G1GnamzSqXWmt0hJTrIiK/TARiq4FS1NIKA8aS0Ek12Iol9uj8oet9ujr/7/ffTwcU77hZ1Fz8uRJltDkWmtcLQ60R8tdScPSFR7XROEFABYDIiYKg5tbe2KMGl9Y4bcACDywRMA8ejOXMFTWJTKlKPhkrHLufOPkkiEajdLWlFTqSMj59rhcThqyLYX3JlhiehJa70wM2lOTMZri4n55VYtyubyqXFoq4i4QoxCeGLp4NhVTBgc6IxNdabUUUbDN74AXXhqeAGChCcubPFJybQcLHli61ONx3TUJe5uLKXSZqUm4EDVwQfSAbpxdMjz77LNebvLKiYwhDfcktcm0SioSxqI3/dJrEAubFrDHl/we0JRG0JlOv3j0leeeC1uVlhKv/8Vf1BK6NNKf0Uba42qOFyJr3IIXhRd+lrtmfBQOAOYNHP5fJaDcgueR8G7a4AFgwQgzUb6YmbEKxAhjFFOJR21DwnZGUcUMbUsO0SZdPnek3Karw31ReVRMa8sTocUTcb0lvnm/SwFhpWMughjZvJBSMjRSGCi+UW6cXVIIK35o6NTxnqRyviOmZDUiBJ6IjoN1K35m2CylMAKWNqG4N0Sex7uw0oyLvH+LvexA4IFFjojVfMUjuMzNRF0hNKJJQVqXl2wX0N/7vd9zvML04WREuRzTpJwkYdGPwAsLMUuFq1dKKBd6D0vI1hSy6AYZuh3e/pu/qWR0JWuopCApxMSEF17I0mlqAJYpTQteZA8i17uNN9xA4IHFhYjMTScQ2SuP2GJXkTGK6TJKcKfc8nQLiw9hxQ9mPyjye8lpmlwiBHFhbPSmb973oicMGOEYlritq0pBxNCWbKGrSURDjqpiW1Kxh2RReGmcEDp/dbuxBoD5QiQ1kbpE45dYQxU9sGQJpzv+dC4qIqouExSPSigekVE0ektzLSxaMuUOFjFkW1UlCymSj7hIhvcsEvJiJtR0sVEPH8LDSpEIMmQJRdQlVANxA2QkU02WAkOXmaFLTOL3FtK8MxB3YEERPT9vHRB4YHFyTUYqhERVMEoKC97gAr+09T3E0EigKoRiKazm5hLSUM/FrpONyxSBJPFw0njY8HIXL4DJ4uCShkmMabwgmY5ILMkLkmIbNB1YTIga+tnpRQ/yDywkwpIPrfm63iuiDV4jSFfJkq6ib6KrkhATpso47F+wFMdOE8GjcXHXCA+XxrGljsYLkgmNFyR5PFN5uJClFyzAMkVY78Ld1XvwoiBOeIIFgMWEyGeFoCyXqCmEUedpLcpvShX3FQpJeJdiY/ETWvL1YokIk2VgwIco/F4ivNBl8A1FDFm7RIIDWP6IJOdzE15Y8LcSLa+bVYrpSYWDeA0sFkTEDkuvfCPsRHqrdVSLGIkLItcRxA3GcB0KSdMtGRgStkRoVYT7Sx+RKcqYIJmLO1jvwOICi1fhkXU3neyWSUEcWGb4XN2dgCG7UYJd6gRiRCpeYHG4E+uw6b3pFi0zL5IhHhzIFRkOd7dYa7joCds4GY9jPL6JAiUALFWuK/BC4a9/AgAWBpHPejzjrflc4H2KluQoN9fgBGJqZopMruyuGGM6PNoUz6WBuGZbhAtXxSX9EvwMRDwzeYnL4hseD5ul/24AsFK5uY5D5AYWAWKkWpuLe9kOUNGhqLYMFN4NAi7yXET4fQXcVAznNlli6U1cs5jC0uP3YS0TE94KGCq6PipxkXdFuEBjJbCIEG9uGrfYyfizBb5uUgDAgiOiosOFsMQFvsRNRm8Z1NF7VoCpzzCi3HxnwjVOLGq42F3b60w0CvKwWRb6zu/B8Skq2vXCpGgSouJ2xT2DzgMLjIiCMiHoVl8iuq7Ay/xPnLi5eQ8Ac0yYudY3hZVrc+vd5tZVzV36JnzNpbLnUIl5lCC2RPpqN8Nj5tVyC16Mj+25wdK4h8/ACQLsejyO2R4WcS0QnQwES/7OgOVCqMvyrdkDv6Hhz3InXncR1QAYFB5YFPDcVcTmsEeXj6lo9F3iFnw+MYlrpmc4XqAzymTUHBQ1XC4FNeHX2Lxihgj1qezwwkp4ZAlj+0hy3EAKbF7oEgUWEedE0wkALCZusbbsuhIuetHDe/DAvCDyzqa7EUJIhIVLGaYBIz63fGu2v2Qj6PPPH5Lb2nZ05GpuW80OUowig9+jxF1dNevCubgJrzEMGMLDTuWGb9Ty/Ig4upTJWo5es2nEdwOFBVzkoRs9sIgQiU0g3+KgE9cXeF4OB3kH5o1mHnozkceMMMwUhwZG0aFLdiy7xJYpxdfb9kxU6UDBDlp9IfAIKfV7DL0sEcJRbnhOg6MBYq1lh636KP1gW+PkkoIxhu/9yu+0XM65LVOml3IpM3h0FBWhSypEgOXP7Wjzdf2KejZhwEPMBuaNmxlKmFvwGCsU45jlo0zV87qef/lQrHF2yfDyyy9L7e27W6ZqXs9wxe0tOn4mQELghZAskXb4JhiLvgNiVoCEz1hvxQ32TvstX/iDf/1BF1fMJXUvr7zyCokl2naMFJyNE2W3zaYsxqOkEk6CIHLCm8VPAJgnhDbfVSc7AJhXhBTcXA4kIfB8Ha/6fvt0zd9SVLrX1U8tHWq1mqImktuyFa9vrOS0Fy0aDxjTeEqsC8lSA2MZYcYFHnUVLH9joRbcp6bTn//T77+zpCz5rk2bEvmK3zk0ZfZOFZxWy6cRRjC3dbjAQxs8sGi4vTziswV+CeY3wBJDxLGmE9woLxXnCeIWPIrXPNY5nHf7h6a8vm9/97Vo3cPSYNBtIcNZp2W07HZkq36q6gZ6INqxsRj0vOFpKSGuWSIqL6S0VOxgYKrqbc9Vnfvl9tVP/fnPj3eIqu+6x8XL888/T3q6124o2d7AYM7uGC+7SdtnOsMiXBqewIQHFhoRF28zNd1Y4JtfdptfCMw/hw4d6jxy5Mj+N998c3Xj0NIjzD/Fgrsb5qVYYggbls8yk6a3quixHUpq85bGyUWPEBIz3pM6OmG2j5a9Vpsybr3fcm3b4gZjlSLUZtOgf6jobv54wrzHj7c99PbHQ6mGj0XL1q1b8UjRjY2U3MxQ1U1O2p5h+1TEtXruFy4hIwQWkKYWC8W+jXr363sNu9FzFzY/8Q2I24uaTZs2Pbxz586fPPjgg/8jF5Fb6165GGno+2eJPM90FcdnibxDu0ar7tqpirX2j/7tD+ON04ua6tqDhqUk7zs1Za6ZqHhtlLGoEEaevpZHCiNYcSluHSq5q46N1dYPFpwtRjK9jRdAF3WcPHnyJL44acYHi15yqOZH8i5VHMbt92amKhaQBwILxdW8cEY8vEWz4AZlgYbChyIv9iF2L2aw6OyEUJK7eHd399INLHHlV6/+BiKPmcQtxYgbBO0lM1gzbQUHtI6dD/7zRV5VLzrX6X46M1py1kyW3f6qQ1sChnV+k/yOl8OcZfwWeEQMEJOLVpAcKbgdV6bdnss5ty2bzd4gn1l4RBOCtuaB5NEJq+Ny3hbNDFFegJQpbTYtiPuqbwHAvBPmgY2MMExifC0GqbnFIvN1E554x46E81deVfj6b1wvwwUWnCAIpvnqBHejY2NjSzOURDQLY28jvoVccyvhKeGJqYyytGn7fYM5e+vlnPUI6tzy8P+2SHvVC3EfRP1tLN32WK7ibSlbfq/tBSmGsRb20p55y0uVMOiwmIkN83tTC6abHJq2289Omp2Tcv+irGER4v6//eDnGTOz7okzU/bOwWmn23JpnEc7RRRWwptaDmEDLGF4HtjUXhEXJYlrs8T1/dZM+BsIPP+ucCi7Ruxu/kDTAYuKP/uzP3v9xz/+8eOvvvrq//3FF19cJpN23oAwSvKIyZDh+rR9suysOZdzdl4qWI9I3RsfeulHP1pUg62IdvfzbF2mrLffd3rK3D5ZcddZPusIEIojTMWbActHQsSdEIaDAKk1l8VGS077icna2pLRcd+fvPpuou5pcSDE/Z/9+dspL7HpkStF58DgtL0lV3W7PI8l+EmRAy6XhhNgudAoc4avyd1NFb0Q+HAgO0l84TWxHER+0cFFnX75y1/OfelLXyo0Di1dRHQLI/J14l6T0A/BHhf5kh10DBfstYdHzB2/Hiw/XDT2PPrd1xZHdb2w3ON7n8nUIqk9H4xUtx2bNNePV4MuKsSdieEmlkPV/LXwQMOI8FKmMVbzWj8arQ18NFbbaqs9exeLyNct9/czQabv8V9dLN3/8XBtR7bs9psebQ0Q05bsGw3A8kbY3FyTw1Fm76qKnrvwS8TZMDMVRwFgEcHjJBdKbAXUmDb9zktT5rqjw7VdVwr25+TM7of/xffeEaPDLRjNavkSydx/asLadz5nbxspirZ3P0MRNsKBaZcl/Lb4vVGG9JJN09w6Hjg9Ze84OWHt95Teh/7X77/X8id/8qrW8DzviBqVf8Utd6Oz79HzU/b9H4+bOy8X3NVlXlB0A6pz2wXEHVh0CFtHtJorYi0hUcV0S1xX4IkkMRnjgMd0iogY5WGG2S4iPyQAYFHAIyK3toS1WHVpx2TZXXtirLrr3cHS56T2vscWouOdEPZ/8b3vGWeDge6c3PLkB2PWgyez1j05y9/kBayTIZLgqa5uvS/HdBTeE783fo8MoyS/5+6Jirfl8Gj13l8NVR4pqm1fX31w7+e+//p7LaH/eUBY7K+++qr20ks/isQ3PJypdfQ/+cGV6gPnstbOaStYY3lBe0CQHlrukLkBixCJK7xBCIvKhGoSYZIs31I9+nUFXpWZz0sJjiJhl2Dic22vfxnEfWAxIeIjj/jifWWHW/JFi1vyWXvN4aHarpNj1Yeljk2P/s//9ofx+Xh1UFiGwjJ14qvbO3sfeNKUU18/MWk9dGrcvGew4G2tusEqRlCaF5jro6Mt57QU3puwOZBMEWop2X7fhWln+7Hx2n3Hxs1HT0zUHpFaVn/+u6/9qv2ll16as3EAhLDzApf6wzeOJju3PXBf34H7v0Ta1v3OyVHzkaPD1V1X8s7qiu23u4xb7vWhkBvXDgCLC4IY5da7r2PkqgQ5XOcDHmVvKvK/IfAnT55kBMsVlZBSBOOqhpnDy7UU4cZ4jZAAgMWEiI/CEYI9bskXnaBzqGCv/XjM2nV4pPbEdMv257oe/dbB//mHb8dFZj8X72SL2eF2P/F3OnsP7ns8j9u/+u7l6sOHR83PXchauwpmsNYPWAdPjqL9mf92Q9xFaprplhthPtEQeYq5JU87p6vu2pMT1o5fDVX3/+py5WE7subZ1Qe//uj33zvVIsRYfGK2EAWuX//6ZHrrwS88JLWs+tqvL1UeO3Sh9MS7VyqPnpiy9gyX3TUlN+jwEaq3uYsLntUrAIDZQmgvpjx6WhiTMhf2gqRoZuPkZ/IbAi86bI1fvnAmCIKhCGF5jWCTYJ53Ml5agAQALEYalhflMb8WMGPK9LvOTdvrPxiu7vtwqPr48YnqU0py9TdS2x9/qn/7/r0/+tHhWelpL0REWKCbnujpryqZz58crT38wZXyo78eqt57ZMzaNlh0B2qe384YjX7Kcm8K+nIV9yZhfiHumUksoJGyTVsuFZ3uw6O1Db++XNlzeLD0iLDmidH21CtvnOyYrZoWES4HP//3WjPr1jx2Ke9+7vho7XH+ew/88lJp/3sj1e3nc9ZA1vTbrIBqlGDSjD8AsDjBwsB2eTytcTu7ULb8S+Pnzl5qnPxMrltFXz71miNjUtQIKWsE2QSzgCeAZkU9ACw+QmOxXl3vMabXHNo+ZXmrL+WdnR8O1Q6+eb70+e+fyD/xH4/kH7mU6X74T/7jq3fVo/vZl1+W0N5ne0d6nvz8W1fQl352qvDg24Ple05mne1jFW9NxaOdboASlHGrPRyI6Bpxb1K/7OVLeG/i3jHhGYjkUBQt87ARne+OjNS2/e3Z4v4fHZt+6J288dv0wH/5yP/r1Y/uapIaIe7qnqfaPnaNx/78cPaBvz6R3/+ry+WdJybMjVeKbt+06XWYLkt5jKo81+RXV/8HgEULTzg8AQUqRhY3uEsKQZVvf+Og1Tj7mVxX4AUqwq5BGBd65PEvp/WMCRQeWMQ0MmqGCHYR06oubRkpOz3HxmubfnGusPt7x/P3/YePsgd/cbb4yKCx8Yn//v/4ZVoIQv1Tt4bwLyzNTnP1wMkseuy10/lHXz1deORvjud2vzNUWXdm2umesv2My5hx1Wpv0kw+Yi2cOLMSxCW8R76oV4VLNmXKeNVPnZiyut68WF7/g6P5PT86nn/ktTOFxz6ejjz5f/3zD7vDAtTtwBgWn/G6Hu0Yt1ue+NnpwgP//vDUru+fmN7wy4vl3rNZsy1b8+OmR3UP0XonR8FKeP7Akke0wWsS8jUZ2xpDbuPwTblu9BaZWH7L7zx49Er1K7yk/cCkTdc5lCW4bzEwR8MXMHcwhgLG8yE0HVOl4zu7jUM7E/Sv/vQP9l5oeJhX/tGfn953atL+2kdj1kM5K9iEJJzibs47rt0VoYhy+5mJwinljmu+gu2IJhdWxdSh/qR8OqGRDzOGchHVho4V0oVq/YM34BWEtmw5iYdXfbnHIvrWkh2sG694uyfL3uqi6XebvDDB00cMSYSnkRvMDjdT4MU54cJjzRP8wEpIXpQ7ETaU/wVhZ6GyocvTyag82p1QL3ZF1aNJA10IvNKx4GfDOfRs/WM3YsvJk3iy4/OZWrR1R8Xy1pQdum+o5Gwerrj9jsvaeHJSwjBpvrnQMNxviWbQCOYzbPjj4XkA6k3I3j09seKB/vjJvQPxtzZ0xb6/KqMda/iac175MLvv47HqM7zA9OjxCWsjLyClw7TfKB8Bc4xofqfIjyq42G3IZ9a36b/c0RP7wT/77bUfNHx8JtcNJSHwZS7wH3KBHwSBXwBA4GeFq+LJn6eogyI8l+elX14KzmkSHlUlMqhK+DJ355OylDNU4hCZUZlI4XumYkhAhy+qXIMKDpMrfhCRfdSlYLrB91m/E7A+O6DtlOFkQJn+icVe/78uTcFonhcJeOaxlZC+GkESOrFgOOB6YUkSLvFwmdQJvqLwsHF5uPhEmkgryEqpJOBpgT/kOjZ3vhtgXrCSag7TTT9oxZht8AO0xqWs32a02w1QK2VMDR/q1cfKN271EYeXV9+sh019c14AgQcEIo1wgU+ouNgXk89sajXe2toT+cGLX113uOHjM7lh9aSuIMQzQCRDQAKLjWbGe62bydV9Hn+FNR2O3IQkrvO65bE2boGvzlb97WNl975s1Xsya7lfmqx6X5ys+E9zy/yLo2Kbu6ma88Vpvq7Y/hctK/hi3vEfn6p690xb/paqE/R7FLUGCBk8JfHCL/+d61mHM69RnFvpSar5DMJnJcKGhwvGEf4s27hY909bwbZJ09+fN4PHLdv7Uok/+1wYNk4YLmHY8O2pmvd03vafLrreF4uu/+RELbg3Z/lbSzxcbL8h7s3X38QPXi9sbodmGALAAsAzGK7HCEVu48XSGwu8LCODmzGKGBrvaqK4m9QBALMFz2WbFmDTzcx5Z2yGiP0w6ooMXmT4TOOH0gyzXorQRtNnu6cdeu+k5d0/XvUf4KL/wFiJO76e5Pt5K7jfdPwDnh/cw/xgOzeu1vDPdzGMRa2WGJVN1GzdPHGI67j22sJrqq8aixXCjPsOw0Q8Q6YyjFLcieF81zFGd/Jnvr9qBwdzPAzGy5+EjdieMoMH8nZwf9Vn+12KdvHPbKAE9YTjDaCGuAuujR+3Q/MaZ37FHX4VANwRM+Jb3U65dYW/ocDHuLgbCgmt+Hr9Vj2tAMCi50ZRNYzGfBFajVjhTsw+1xow1GMHdHXNY2tNj66rcVcRzq1vO9x5AVvLGOvnia2bf0+Gfy7CU4/oIX/7SWOmQFy9pjv4nqXMp+676cJwEc80ys+Lke66uTb3i2cvwiAMFx4mImya4WTxcy6lqwOGRbi08O8Qc+zz7xBmCf+/G8THm19xl18FAHeEyCsw42VWwmQZU67H7K4t+BdeeIEJCz6qSEyXECViuFqeuzVOA8AC08i7Z7r64hNm7l5zqv6ZUFEkngJEByyDIRzllmOcW4GJmY5H+gQ/Ll6pi3P/Qng0/llROOBp59ovvgFNb9eugd9EPJv6u+kKz9x0fkAMNxwXYSDC4jfCRpwL/Yi3FkRYNmpTxPeEz5kvmus7pfnRa9cAMB+IXiqEBbos+bpKPEUTA0TeGjeuolekwBBfJhFfEs38obyHCwBYWEQG+ynLT7j6qU8hjl3veJPwvLAaiRAUIQw3d3W//HPC1b/mlgh/q+GAWyMcPyAU7Ju7eoHrN59u+Mz54m6fe/g9DQcA80vAo7etKaQaVaVqRCa3/JrcDQVeVbFjaKSqyrjGd536q0b1cwCwbJmZkUOGvriAsAFWHgHXXYcLdVlRSBZhdkVy6UTj3E25rsBjjBmrmlcUIo0qMslihCv8MBd5dstVAwAAAAAA3BVisrcqwWhKlaURROTh33mkJ9c4d1NuaMH/7ufXZpmErsgSGSOITfMfMXmJOWicBgAAAABgrhAGNUMedxVuck/5lJ7WdHmkcfaWuKHAczOeMUTPIUzO841JfkRY8fzHwIoHAAAAgDlFjMJJmcs1t0IYztk+Gv6fnukbbZy9JW4s8Jz/92+tH/WYP4Qx5hY8E23xPld+xksU9f520CYPAAAAAHNEXeQJYrWIwpzGwVvmMwVeEFEUSyK4xi16l/9YvYoexB0AAAAA5g5RiS4cQgGWkCfL5LabyG8q8LokBdxmF1XzAXfCegdpBwAAAIA5B4t/JnOp1qRQ7G+Lm1vwGhMzaCBEG1XzAnhFBQAAAADmHq67Ygz6tKI2Dtw6NxV4QxFlh2toCjyIPAAAAADMLqExLRbccZ2VCUGKehtj1Da4qcCLaTPD8e0BAAAAAJgHuLALfRdGtBQqPFJuX99vLvDcgEeqQpDE12CwAwAAAMD8IKZVkBUJqSrhrnHwNripwKcNBbXHlXCtyFziRTu/KFkAAAAAADBniNlcUzEZZbiL3oEJ/5kCL3Q8YcioJaEy8SMKwSy04m+/Mx8AAAAAADdDyCt3Qmt1blRnuAZnElzgxbyKt8lnCrwYk95QZdoWlYOULgWqhPnPNtQdNB4AAAAA5gShtoZMWEdURr1RbmTPRS/6WETyW6OqndBlR8HYQzR8Fx4AAAAAgLmAayymiBkSpp0xNeiMK7Q1oty28t5U4OM6K3ELfjoTkQsKITUcDldL+Q+BygMAAMwHIqO+aWYNLCMow4wFKkFOiyGb3Io30zrl2nt73DTOWCffuJTQpfMtujyuYFbADJsowGKO2qu19cDC8frrr7f84he/WCvWjUMAACwTeH4bdnuiGBHGHcZeuD+fYMaNScjq5xH+sMU8cgjZKiGFpIankoY0pSiSWT9/69xU4J977rmgzdDHuMhf4T82yUW9irCw4kHdFwN79+49+Oijj/67xx577A+ff/55KOQDwHKBS7nIZQNKSRAEiuvRiOOS2KFDh8TwJPOCbQayHzCZUQZ5y3wQymq4cBDGRUXCYzFdPheTyUl78OhtTRUruKXS4PPPH5ILm1d9/vWzha+fm7b3BZj1I0Ki/ALCUWyB2YYHcMA8XoqbjqnS8Z3dxqGdCfpXf/oHey80PFzlT/7kT7TNmze3+L7vPf3009nG4VnlH/356X2nJu2vfTRmPZSzgk1Iwinu5i2TAYAVR6MVtDsqBzvbjeqe3sjQrp7YkY3dxq9UIr375quHLlRTlhCCOYM6KRLp2XT/hSnnS29eLh84nbNXWz5Lhmm/XrEAzDa8JIVoWENeVQm6zMP98IFV+v9xAJ/4NTe23YavW+aWQ+m//csL9//ifOnrZ7PmQZvi9RThOLf/IZOfE25d4OcDEHgAmGcahlyrQdjalO5sbtWn1rVql3rS2glDxRe9AE0GCHtkjro8SwSTUs2NjJac/ot5d8eRMXPLlZLbbVMUQ4QbdqDvc0ND4GUJFyIyPru3N/arA6u0v/ifvrbxaMPHbXHLwfTiq0P3HDpX+NqprPlA0aGbvYAlGcIKBPRcAAIPACseLt2GhFFaJ6xVk6t8neX5wbgkoSxjuMy13edeZl3gRZaOMSGuH6hVN0gX7aBzwvS7Sw5L+YhqiCs85PtzQFioo4wX2ryoRvKZqHxiT3f8rd29yvf/hy+sP1n3dHvccjD9y0Mju966UH7m5KT50ETZ3coDvoVb8aoIa2C2AYEHAIBn0DzTF1msRCmVELK5dVfmxywu7i7PvXkWLHzMAbwEwZdca5AWIBahBMcDhDWh/CDuc0RD4GWEnbQhZXvT2rHdq6Jvbm9X/uYfP7bmbN3T7XHLHSfiCrJao1Ipo0klTcIWD+N6R7u5iV4AAAArHpG9BnzB1ZxYAdOtgGZMRjssxnosSnutIFg1J058N0M9NmLtHkIpfg11cW9eFOT7cwN/rhgjX5dwrUUlpRZVLqYIdhpnb5tbFvjah8cHE1g636JJEwYhBf5BK+wMAAAAAMwNTWtZdGoTc4aqWEES1pGMI3w/OqdOQhFE+G9J/DfJdcQdRH6W4QYzN5wxZaYh43xalyZIgM6gwcGJ+vnb55YF/h/+w6edpErGWg15RJPJFA/cxutyAAAAwJwhRD50fIEJRhIXejKPTvxm+NuN6wDmEk+ScDmikMlMVB5OEC/3+7//iN04d9vcssALov4H53hwn9BkNClhVOYlDtFtH6x4AACAlUJT5EHsZxFhvWPRp8Lh5amSLssT2HM/Us0rww0Pd8RtCfy3v/ENi0jSlOjCzwgRo+r4/LqgHX4Bef7556GzGwAA80PTigdxn11CDWVC4H0kk5qk4LxPaP6PfvfJWnj+DrktgRcoKvaIQkxCMLfeeYkjLHmAwi8Uf/iHf/hFSul/1dgFAAAAlioYBYQQF2uSpYnJ3e6S2xZ4Q5NpVJECXSaUW/KfKDto/IKgKEoXX90Pw9QCAAAsQRraKQYtElOyR1VME6oURKJ3PwPAbYtCOopQQicopmCmYP4FUFWzYExMTHSk0+nexi4AAACwJGGhlka4IrdwbW3VCEsr6vwLfEpRUIsuo7Quicno6wIP1vuCYBhGgq8663sAAADAkoRrqJjYJSpj1KpIqE0jKKHVT90Nty3w7VEVdUVl1s5LGBEJMxiUeEHBHOhkBwAAsJRpCrxEWMaQWFtEZm3a3Sv87VfRJ+SgLSp7Ge4iKvb5F/BLC1/QB+YZSqnHGLvjUY4AAACABUAoZlM1w37qjAs8phGF+JmI7KWikh+P3b2u3n4VvSa7mbhaSkWVoqFKNYKw17xAYH4ZHR0V08OO1vcAAACARU8olWLxad3EEnKjmlxtTSjFdFSrKDg6/73oXZllNY1cScfUMV2WsgSzan3IWlD4+Wbbtm3VM2fOfB9j/IsXXngBnj8AAMCSg2snRR634KtRjUxlYspYTJMuppFdani4Y25b4B/sTxUolg5HDfmYoZAR/gUFftjmhREQmAVgy5YtJ7jA/3vu4PkDAAAsKYRhLMaTwZaM2DQX9iFdkd7zrfLJffvWzr/AC/7ePe3jtmOeMGQyQRAu82ucMegNAAAAAADXJeyXLhYNxxjl5rErYVyKKtJ4uZw985UDayeFr7vljgRe0BJRnIgqlYksWfxbfIRB3AEAAADgMwmVUiyaji8I9iVNNnWDlGKqMmsdp+9Y4FO6HBiG5Cgy8jHBLJxtCCQeAAAAAD6bmfpOCJM0TBVd8jVDdo2oQoWX2eCOBT7GBb41IvvpiHhdjviii39YQw8iDwAAAAC3hIoR4waz3xZTvHRE8iJysPACHzcUvzMmVfsSarVVky1+kX5d3EHhAQAAAOC6hE3vYsHhRrEuY683ophbMkqlL6qbGUmZtSnY71jgFckrtkfVsdVpdbzNkHNc4E1E+V9z+tjQmgexBwAAAIDfhDHMkB8huNobk7Pr0vp4ZwwPKwnDani4a+5Y4J/Y0juNfeejVRntdGtUGdUILnBht37DigeNBwAAAIAZhIawUEdLk3A+E5OHO+LyCbcwcfLJravEq+ezwh0LvOD3H1k9qCHv3ba4MmTIJMe/zEKiqr5+8SDuAAAAADCThi4SggIZY9vQSD4TVYad2vS7x9/4/thsjmlyVwIviGmonIwq44m4PB3RJVMmmAs8vvqKHzA/HDp0qPPNN99c3dgFAAAAFjEakYJMRHY64lq5NapMq4Fvv/jii7PWwU5w1wIf0UklE5fHeAlkKqZLJV4icUVLfF3kQeHni02bNj384IMPvvD888/D7HIAAACLkbBmm4XDxqgy9loicq0rIZda4koxkmR3Pfb8tdy1wP+9g2uz2LM/7omro62is52EqvwmxAQ0jcFr+SK8KbENzBUYYxGW8e7ubihVAQAALFq4NlIcGBKqtUblXHdMGU/rZKJNMWZ9ZtC7FnjRXtDKWG5VQrncHpHGdRwOXVufYe6quIO6AwAAACud0PBlGFNTJyTfqsvD7TH5bHly+vivX3ul2PA0a9y1wAtyR/5iAvnWkYQuTagyKSIs5igXM8zxW4G2+HmBUioix9TY2BiUpgAAABYbzZyZYA8RUpNUko0b0mUrl31z7MPs2Gy3vwtmReDFhcnMrsYMuSgrkokx8cJGhvCGGgoPIj+n/M3f/M3rnP+Bh4XfOAQAAAAsKoQoYh9LuKYqJBuNKOOImuUXX3xkTvLtWRF4QWtKDloMxUnq2DMUTCWu8I1TIO7zwLe+9S3vySefnGrsAgAAAPOJULxr3acQbe+IKdyCj6pSJWUo2WRUHtPb5Flve28yawLfpqqsPSnR1ohCE4rEtPCbf+MOAQAAAGB5IfqZXXWNYzMRx/g5buv6hoScVl0udUalKTufP77WHC/XPc0+sybwKd1AnTGNdkVkmtElqiqkcZvXu1sAAAAAWAbcSNCvA0aY6jJx23RS64grRdm1zOeee27Wxp6/llkT+HgioG1Rxe1KqE57TPJ1idBwinhxo6DxAAAAwHJDaFxT4GY2RX9Gs7Rows5EVbctotipiDRn4i6YNYFXGXEzUanUlVJLbTG1ZkjEQ6JPIIg7AAAAsNz4DW3jqi4Gd2uK+6dEnnsWVfSUsqhMWEdCpl1pjfL/OVXIWRP44TMf5gj2T3Wn9PGOhDYdkXANB40BbwRi2XQAAAAAsJQJBfxTKl7fbbpr4QYv5i6hSmggbaA1LRrr6Iw2Ts4Nsybwoh2BmMWprqQ23JFQxqMqKRMxbO1MQNwBAACA5cJVkefueqI+A3FajCOe1CU6kNGEY3Os77Mn8IJj75YnJep92BpTxlIRpRBRsaNgMeDN3FZDAAAAAMCC0ND369KotRYvjesKYcmYGmRiqp+Oym7CUDyDRuZUG2dV4L/1rX2eVZucao8r0+m4VIkZsqPKOJx6pn6XoTcAAAAAWBmEr8cxFtFk1JJW/JakYsYjUsWQSVVV3aXRya6JgSW/NSKXBjJ6ZXWL6sR1Kbjam14AIg8AAACsCIT2sVBoW2KSv7k94qxu0ctJXc4WS6VTnGrd39ww6wIfiUteJqqW17capU1thtWiy77oWHBV4AEAAABgpcC1T+KuM6LQHZ2Gs4ELfMYghbHLI9PPPffcp/upzTKzLvAfHCoXVRmfXZVWp/syRjkZkV1MSBCOTS8AoQcAAACWE0LXmk5wdRsjRSIookmoPaYGq9Oa3Z1UK1FVLsuyM6fV84JZF3jRDp8bG5xsi6v5jpRaMaKyg1VCEcH8hmc+AQAAAABYDnBdC5uihftkn/C1oRKUisosE5fd1rha5dslQ5bKqqouPYEX6BHitcaVUndCq6xKak5XXA1i/CZDxM2HDwAAAAAAlgPcgL1O/zKJH8vohPUlVa83qdZaY8p0XJXHPds6Oz4+bjW8zRlzIvBJRfFjilLuSijlzS2ataNN8zt1GUniJIg7AAAAsJwIxf03RV7GGHXFFLa1TXdWp9RiJiKN6woZvXTp7NjTTz89Z7PINZkTgR8eHi5rGr3QGpFyGzJ6aXub4bRzK14S9RXXKeV8CrDwAQAAgKVCU7OEtjWGqsX8T+HbEQWzzpjib24xrL6Elotr8pXAto9wnyZ3c86cCPwjjzxin7pw4UpEk6Y6EkqhO61ZyYjkE5n/nGiLv5HIzxR2EPlFB4+vECoAAABNrvYr4y5ciTULq+ajCkYZVWYdCdXrzKjVdEye1mQ8fvr08cF9+/YtXYEXxAnxVBVn03E125XSKqm45kV0iSlc5EN9Fw8DWBoETAxF6DGKXB5uHnc+oixAAaXhIIXgwM2Gu9pBCQCWMDwOy1zkEipB7TGZtcdUszWlTceiyoQi4SlCiN/wOefMmcCPj49XNUm5lIzIEx1JNd+TUMyuqBokVMzqbfG3kJjF+UaJCBL+wuEGzKEBLrOAFpAXcEdL3FW55Fv8pMuPecilPj8WgAN3644XEj1eSPS5ugeQxoEljoi/3IlhaSVuxiY0QjuistkWl3NtUXU4rsmXZSxdyOfzc9723uRGleWzwvHjxzvWbtry22NF9+HXTxd2/uJsoev0pBW7nHexJUrs4tdnTq8naCZycWymsF/rb1nDbzxgYrrd6ZgqHd/ZbRzamaB/9ad/sPdCw8O88t/8u3NtFwq1+3nY3Zuv+Rt58bSVlwzjPEAiDLMIYUjlRUUJMRFIAHCLYMyjjuh7yzSPGz0eRkS8NxSIhA4xCVgqNDVKrHnWLQQ+qWC6vdOo7eyJjj20PnXugfXJw7EI+cVPfvCDj77xjW/Mee/5JnOajA4fPhzZuXPPfXnLe/qDwfJ97w1W1r1zsZL5YKQiVzwuDWF7/GckZhD4RSHwgmf/lxN9DqJ7/YCtwxJuIRinEGEpHiRpHjRRHqllJnqWAMAtwLVctNUpPK5HeJaYmKx5yfGSo5Y8Smo+48Z96AkAlgYNcRdrElDaYsj259YlJh5YGz+3qzdxeGdP7NAvD/3k3S9/+cvz0vbeZM6T0EfnzrWtX7XmuUt5+8HTE7Xt/+eJ6Z7XPi7Ecw4lVPREuJlwXxX4xnpFsPgEXvBvfj7Roep0FRfyCGUoFjOkjogsdfOgiTHEVB6UKyqUgLuAEYlgZjCM2xyP9R0bLnf/6mIpPVh01DEzwCYX+bBCCGIUsBQIdYovKGMyQ353TC389u6Wi89sS7/XntReO/nL429+4xsH581ybzLnyeedd94xdt9zz31Fmz42VnT2f+9wbuNfHZnqGK96qs1TMBWXAIn4GhanwAsY4/LOeeGFF/C3v/3tjK7HVvMA1PiZsGsFANwMzOHxRVTHRymjWyo23fXGmcLWvzmSW3Vi0owPVjyp7FFERUwTXgFgMdMUdw4XdxqVsL2mRZ/8nX3tx7++u/X1o7/68Ltf+cr9VR7tm+bqvDEvqefcuXOJzr7Vj+dN7/Pf/2h6318dzQ1czDvJvONLblPhIR3PYPEK/LXMFPzwAADcIs8884y0ZceeewqW9+Sbp/P3/+RYbvOJKav1ctlTyh7DIPDAkkDINs+yRY/1iIxpV1I1t7RFRr62M/PBF7dlXvv1odd+MN9V803mLfUcPXq0vX/Dlt/96Yn8wz8+Vdj28bjZPpi39bAtXniA6rgZLB2BB4C74dChQ/rqnfc++8sz5adf+zi79+Sk1c0F3ij7jIDAA4uepvXO/0UVZqsh0S1d0cqevtjQo+tTv354bfy1H//1938ynx3rZjJnr8ldi+/7jiyR8d60PrWnN1pd16K5UZkwwrVM6FndNTwDALAiOHfuXEARKTPEKjz5OwzjOZ+AAwBmFaFb3BFeGI3rMlvfpvu7OiNOT1w2JQnZ7e3tC6Zs8ybwLkfCZLgnoYzv7I5Ob2jVrXREoRrBrDH0DYg8AKxAsBg8SQykhLi4M54JLEBbJQDcNiKWCs3iiEFaoypmbTE5WN+iWVs6IoX2mJojTMpyaOhpAZg3gT948KD14XsnPo4bylB3UpsYyBjlTW2a3ZdSWUwhSLwQCwDASoRRrusLlgkCwN0gc5fRJLQho9Pt7YbVnzGKbQllIqrLVw4dev3Us88+KwqwC8K8CbzA96ctXcGXMnFlqD+jZjd1RMz+lBbEeMlHvBJft95B6QFgJYKF9Q4AS4Z6dFW4eGV0iW1q1YNtndFqf1qbSkbkQUMmQ6VSyVuI3vNN5lXgxSQ0Vy6e/TCiSBfb4urYmoxe7E5rTtSQGZb4pYQdariDZA4AAAAsVrhGhTPGcXGPKARloipd1aJbfRmtmIrIo4oiXXj//XeOPPfcc27jEwvCvAq8IJvNmorMLqWj8pX+Vi3bm9Fr8YhCFbk50KlQd+5A5AEAAIDFRihRYuZzhlQu8HGdsNa4EnSntAo3WCdjujwoE3RlbGxs3sacvxHzLvDCij9z4sT7CV250JPSx3rTaqknqdqtEZkZMNMcAAAAsAQQE8pEufXeFlWD7qRS60qq+Za4OmLI0tn33zn70UK2vTeZd4EXnD9/3owZeLBdtMWn1Oz6lFpblVBpQiPhPLrA3fPd7343+uMf/zjd2AUAAABmhXoNs9CqpIpZT0Lx+lJqoTOhjLREpQu6RoY8b8JayLb3Jgsi8KJd4vL584ejunS+O6mNbWwzSuszup3RCRWlojpgxoeImqA7YOfOnRuffvrp/1EIfeMQAAAAcDcIWWpIkyIh1hpTvPVtemldmz7eFpPPRRX5+MjghWOPPPLIvM35/lksiMALBgcHqzImgy0xeWhrVyS7pTNSa42qVBFXBNpeR/TiwAwThEnw/2/vzYPkOu48v5f57vfq1dlV1feBbnTjaACNkwTJEQFKI44U3JXGI2J2PLvmTIRjOLHBCIXtjXDY/oNExIRsjz0bYa8nwmKER6N1jD1LaC2J4kgipRUA3sRBAsTR3TgaDfR91l317nTmq6pmAwIhgMTRx+8DvKPey1fd1S/z981vVr5M/t6G9BoaGho8derUv7169ar18ssvC6+//noDW3784x9Ha0kAAACAuyXQpao4sWgsi7yfjsqVLU2hhc2NoRthRTw7OHj+7Y0bNxaCRCuARybw1F1aly8PnTJk8VJ7gzLZTV18a1QyYzLvKzzTNZpoPQ98w8SdENbII/oEKQT59zSZCxsacd++fSOHDx92n3322c7nnnvu39PlJ9/61re+/6tf/SpRSwYAKwCEEZsbPpiEBgBWKlU9EmguDUmYpHTBbYsrxZ6kOt2ekEfCGh6lxiq/Eprm6zwygWe88847eVEg18OycKMxLM5uSCilrgbVi6tCMHgA57O/07pVeBbsRMIh3edI3MVSqD6xy73y5ptvjp49e/a/P3PmzH/16aef/k8XL14s1k4BwKMHcxJdi7RGy9NsH1RsqycAYIVBTSczoG1h2e9v0szeBiUTDwkTiogGLw8Onj106NCKGmr5kQr8iy++6Ixdu/axJqNL9I802dWg5HpTqtVoCIGLf6S/3COFBjnEOmlimXB+1Pb8Fl1V9//vv7m8oZbgnmAufufOnWd27dp1cmBg4JPvfve7j/zxDQBgRKNRwSd+iGZ4g6q6TNV9/RZ7YMVT6zlP2qKit70pVOpuUObCCr6OCT/B3Hst2YrhkRcm6ipziODrUUUcY3+szU1qqS2q+BFF4CS+/thctWlkfRGIvOIhFCs7fmvG9DdxvLb7zTNTqVoCAFjVHD16VHj2D/9wm8DhDirsCYKQRsu5SPM9OHhg5RA0JBNOoCFZlTDH5lBpiyn2hqRcaInKs4qAL01O3lhx7p3xyAWePSs4Nzf9sS7zw51xZXxzWst0xuVKgy56Gv1jBo/NrdtWeoJ9jugllyRnS3brQsXtyNoePPoGrAlGR0cFath7MOZ6aOxM0WCk0Uwv1L6eAoAVQtVgChhxEVXgGiOS356QzI6EnE0b4gwV+Jm/+7u/y9USrygeucCzDgnDw8MZUSDXoqow2hIRp/pSSm5rSvFaDJGT2RC26xUa5nxacSzYnj5VcBvmim7a9XGodhYAVi0/+MEPlH/5L1/Yz3NoK+FQB8KIdfzUoIkeWDHUnHsAjcXMcHbEJNLfqDob4kouqUkzIYmfknk+98orr6xIG7oiChN7ZjAzN3dWldH5VEi6srlBndnZrBa6YrLLxvldlwQeBiOXcHze8tTxnB2bKzrNqZjS7/t+S5AGAFYhr732mvRnf/Znj3OYHKAvd2DCtSGCYjTPi0EnOwBYEVSdO1tYpjRkTHqSirWzJbTQm1LHYjp/hRrQi1NTY5dXUs/55awY9Wxqapq/PjJyTBXxucaINNadVBY7IrKZVnk/TEW+2lRf+4OvF6qhDnkeESuWF8mWnabFots3ulhpDc4AwCrj6NGjyne+853HCSFfodl7gMbFDQSRNBV7BXEI3Duw4pAFxMVVnjQbok1N50JXQhlNhcRBReQ/ymTmT7a3t2drSVccK6ZAsRrQmTNnpmSMhqOGNNKcUGc6EnKpIyx5SYVn3Wtr4r6eFJ5BHY1PROJ6RrHiNo0tmBvHF9zHzl2vdNcSAMCqgDXLHzhw4HFa1p+hpXgPra/30uLMWqM0Ku73NM4DADxwmNTQRRMQaWUj1sXVbGdMHW+OyBcNTXpncXri3VQqNbVS3TtjRdWYWS/EQiFzjnW4azDkibaEnO1JqmZTWPSp8Fefi1+xf8oHCI1+xEdqruw3XJqrdA3PlvdVfOfZmZz9RLHoN9VSAcCK5f3331dfeOGFvcy502UnPdRDl2Yq8npV3NdjwQZWFCwL1pc6VHNCPO+1R5XKxpQ81xqRRkIy/4Fp5t/r6OiYrKVasay4JrFjx47NigK+GlHwaGtcndrUqufaYoqrMoH36F/+1huwHqBVRA9zQsZ0whenyq3npkqbJvPW0yXX+6aL/afKhLTXUgLAioM1yz/++OO76C77zr0q7gg1061OK688oUE06MtUK94A8MioZ0C29eniEk4Tkd3VIGe2NIYmmqLiVVVBl1ri8RtBuhXOihP4559/3ves8kVZ4s83RsTLG9PqeHeDmkkbkhsS+WCYwDX7XTz7TPWlDvu8rPGCbgo2Ea9lrTgV+M5zk+VtF6bKj41nzIP5gv31bKXyhQbBAYAHyalTp7Snn356L939Kl320KWP1ldbaBkO0S3P8nqQ3etbAHjUsIxIFzZ9eVLj7VZDKnQ3KFNdSflyXBM/cTxrpJpw5cPkY0VSqZANZd/5+lzJefy9y/n+Nz9dbD87VY5Nlx0h7/hcMJgl63C7Yj/BPXJrdFv+uWrnWOVGoVWyZEh0t6S1Un+Tmt3Vaoz3pdXLaUM4ndDkE5blVESRsAEXIF4Cjwqq3Qg5jiPxPJ+QZflpemwbXTbShTn3ME2BfercTeqQMmWXe/dSlvvFp/Pc+ekyN5J3OFbG/XoZB4CHQT1iUgPJnG9jSPR6onJpT3to7Om+6LmBFu0XER29G1VVEPj7QaXid5d99/fPXi89+c6V3NZTN/Id56bN8FTJFhx6M/x64V8LMeBOAl+HpsF0xWqWcVXw2mOSs7dNz+5sCU32ptQbrVFpQpP4LI+QxRJWm2cwh1dcOw2wlgmyG+Z4QohG83EDzYltCJF2mnUb6RmDan+QhHWpMV2fy1Y87r3LVYG/MFPhrheqAr9UiQeAh0EtBrPengpGXF9KNfd3GvOPdxhD21q0jzrj8utRXTpRTbU6WPGlJ2f6G8fmS/9seKryex9eL/S/N5JrvDxvagWXYIt9d7dWgsBdCjyrXbKZY2UecTGF57pistOXVPI7WrTFvqSWjetCRRaxKwiYzdzBYZpbBZqWZzEVYiXw8GDjTEs0v+pU0GM048ZoYQ3RrLtU3WQCb3lU4E2P+2Akx/3qQoa7NGdyE0WHK4HAAw+TWmxlmVMXqYFSBG9nm1782qbojV2txummiPBWKqa8o2M8HqRfJaz40sNmUBvPmgdyZfebJ0eLj/9meLH7k4lSYrLoSVnLC76bDoLAeokDtYoAc/Ii/dwqFe+UJng7mjRzW5NqpQzJ0xTelyWew0FFAHOShIMKAQA8RKius2yKBJplZZpx6cKOfabYTOBt3+cKtsd9PFbk3r6c565nLG6h4gbOPsjqnyUHgAcHy2w0Q4rUuad1gY1YR917ZO6ZzdHhbU36e4qE3kjq0qlq4tXDqig9i+Vyh+vyv39uovS1ty9lt390o9A6OGfqk0UXOyxK1D/FagwGQRQLVnf/+7Pk9Y6GdKsJmOuKin5nTPFjNHPKMk8keoyn4i7TrS5QK1WfuAcAHhIIEfqPZruqMQrUPThBCbIvXVziB2J+ed7kPp2qcPMlhyvSintQrhkg8MCDhmVEFh3pVhEQ2ZhQ/d0tamFfR/j6/g3hMz0p9Re8h9/XNDxWvWD1sGpKT9m291+dtf752YnSvhOjhd73bhQbhudMpcw64wQ3iMKCwWqLB8GvXvv9GV9A5FmTPRNxTUREEqltwpjD1LFjKu7MwRt0X+VX358GWCMsE3YGy7as5a1ebFn5naeufarocqw8e1Tcg5Y5AHjQ1OIoy6HMEEVUTPY0hyrPdIdnd7Vqg30p7aOY7P3YMIxPqxesLlZNzPd9v3UmZ31tNGM99fGNws7jVwudp8eL0dmSh8u2xwXz9N1OHFf6JwyCXC3SMe5W4BlB5qzt1PfZ5WzBbPgQFDQ56XRhIwGu9D8FsD4IsipdMRGnWTOg4hGuRJ08G+oCAL40y/PRnQJfLSNKNFbGNJ60RGXviY7Q4jM9kZGtjdrHDSHxuG/m300mkyt+UJvbsapi/mzO7KVC/gdDU+UD747kt354rdAyNFNWJwouNutN9Uwg6zc3eF3dXdHcbWa8HUvX0p2lz03fpDZ6ImuYZ4/XwTigwEpiKdsG+R1RYSdsTJGbigIAfCHqmYhtWf76vJjKzjP3TpeIhEhfg+YPNGvFfZ3G2O5O41xrWP51qZI51p5OX0MreDjaO/F5H33FQp38E6MLlT/65EZh73sjhY0fXC/Ez0+bUsGm1TD2Td9qFPgHAauZrsosCawr6i1W67WcAvefetxj2ztpAD3PxF2ku2nq3ve3G+WneyJzO9v04Y2N+gnsFo/E4/Hzq1XcGUuPrKwW6B97PCQLQ71pbay/OZRpisimLCJ/aR6q5Td1XQcN+uEDJw8LLCt4qWVVALjv3ClfBZJNOAEjTqPuPRGS3I6Uku9r1ifbGpTLisKf9zxvfjWLO2M1CvwNXRHPtcbU0Z5GbbozqeaThmzrEiass1ngXIOqWTX9uoV9flhgWQ0LANxPflf+CiSCruh/medIXBO99pic7UyoEx0NyqVURPmkVCme+tu//duZ6gWrl1Un8AwkoklZQMPpkDCyo1GferwtVNwYU/0Qe9abfRcf3MBqWgAAAAAICLShqhGIEGLIgr85rRX3dugz3Qn5ii4JJyrF/PG333rr+uHDh1f9wxyrUuBVjhvDxP0woYnnNjeqVx7r0Ke2pJR8QsY+NfLBAFgAAAAAsERd3Ck8VT5VQFyDypubkkp2d2torDuhDpdyC1Tb3xplU5cHCVc5q7JzNa1ZcTzPZ3bteaygyZKBMTIc19ct11ccl4g24RDrcxcAag8AALC+WSbu7NHMhMqT3qTm7W4J5fZ0hMaoi7+QCEuni+Xs8IEnn8wHCdcAq/bpqePHj5OQKi08+cQTlq6IzfTehT3P18uuL+dMjy85PqI6DwIPAACwnlkm7kwORMyR1ohEdrXoxcc6jKn+5tBQW1w5UZxfePvMyQ+mjhw5Uk28BljVj0czkf9v/81/jWRVTfgkmMwiUnK8UK7iSSVq4T2q8PURL0HoAQAA1i+sP7wiIC6mClxPg2rtbgstbmvRR1pj8tnsxPjrk5PXxp577rk10TRfZ9WPf6KqamnP3sc9VRaaeMRFK45vLJQ8qWC6gu0RRBeaqqbuIPIAAADrDyoDmLr4qIJJsyH5W9JacXd7aKo3rQ8mVOnj+ZmFC08+ubdYS71mWJWd7JbDejpiz5wNyeKVdFS+1pPUprc1acWehOpHJZ5DTOCD5hm2rV4DAAAArGFqIb8a81nsZzMeIS6hCoSKu7m1Scu1RdXJuCqMLCxOfDQy8mmGpVxrrIkRTJmL3//Ynooqy2GeR5okYMXxiDyTs+T5vFMdqWBpcI3gEgAAAGAtEgh7EPWrMZ/CnKyMOLIppftf2RjO7G43xjoSysWYxp9ZnJkePHDgQClIuMZYEwLPvovftWtXtr27M6srsiFiLLkeUTIlTy6aruzR22yx+83udX30LAAAAGANUhN3Bg33PA4ehyPtUdnb0xZa3N8VHutNKYNxnT89szB3fPLGjfkf/vCHq/6Z99uxJgSewXo+7t25M9Pd05XVBDlMD+me7+seh5Sy44k5y0PBHQSBBwAAWBewcC8LiDp3zXuqI7S4ryN8Y3OTOpgKS6eyc5m3Rq8Mjx88eNCtJV9zrBmBZzCR/8bXv56JxI28rulpWnMLc4joOcuXsmVX8AmH2IxVAAAAwFqlauLY8+6GjElSl9w9rXrm6e7IWH+zNtgYFk+WK7k3f/nGT2985zvfWbPizlj1nexuhdXGCgsL41FdHO5OKVf7m0NT2xq1Yk9c8ROqUK3RBN/RsB0AAABgzUGtO3PuLRHFG2jWM9ua9bGNKe1CY0Q8YVr5X1y9eHH0xRdfdGqp1yxrysHXobUyJxwLl+N6KMrznGY7vmo6Pmuql7OmV+1YX0sbAK32AAAAq5taUGfOnQ1mE5EEr79RzT7eYYxta9IHu5LqKd/O//yXP/nJmnfuddakwLMOE//5H/9xXjXUfEjVIlTAZYw5uWARabHsyK7PIc/zqx0tA3G/ReFB8AEAAFYPgbhXnZtExb1BFf32iFjc3WZM7e0IDXUl1FO8XfzFWz/7yfX14NzrrEmBZ7z66qv+c9/4xmIkGs/Gw2pIlXmpYHnyQtmVbduTyg5BVOOrsJ4YtdrfkriDyAMAAKwa2PPQTNAMAZPOqGRublTn93WEr+5qC52wMpnX3/n169fWk7gz1qzAM5iT379vd2Zb/6asgPkwNe4qjzit5BFlruQINj0QKPlyMQeBBwAAWB0sc+4iRlxIQqTJkDwq6pn9ncbY5ib1YltC/eT86XdO/+mf/qkVXLOOWNMCzzhy5IjX0da22Nffn00bckMyIoUXTS90JefIJdvjCZuR5pZBEUDcAQAAVgk0fGO6qAIiCV30elNa9mBfdPyrvdHBlqjycXF+4Z1KpZBZq8+634k1L/CMN954wz/0h/+8vGFDW4MqCOG87RkFy1ORzynE8zHxCcfMfE3mQeABAABWOjRgs1AtU+ceqTn3TWk1t6NVH9vTZgxtadZOOqXs0Tfe+Mn19dKp7lbWhcAzvv71r7td7RsrqsxHBIy1mMyzCp9SqniS5RDseFTkmZMPxJ2uQOQBAABWJoEbI4GAhSXMNeuSvzWlFp/oMiYf7zKGOmLKR8Qp/mrw/Pkr61XcGetG4NkgOM8++9VcZ3uXKQrICIm84vtELtuebDmeVHYJsqjI39SzHkQeAABgZVFramWTx6gC5hp1we9Lqub2Zm1+oM242teofyQR/63LF84Mr+VR6u6GdSPwDPYdzFe/emC+tbWtoMqChnxOEhCSLJfIC6YjFSy/On/8krCDyAMAAKwYas6dhWXWNB+VBa47qTj7Oo3M7g7jxoakeqHBkE7+9Mi//2A9O/c6a24ku98Fq9H96uc//TSsCL9ui0kfb21UL21tUSe6G7R82hB9VaT1QpaJarVEAAAAYAVQj8l0y3rMxzWB64jJTm9Ky/c1adMb0trVZEi6oPH84OTkpFdLva5ZVw6+DmuuH9i2dWZT75aSJvOKKGBJwEii9ULZtHyxaHmYjXYXVBNhchoAAIBHSyDun7kuGre53qTKnHtub3voxqZGbagpLH+kyuTdf3r9x5deeumldddj/nasS4FnBLPP7do2u61/i6mIvCZLWKbeXcqbrpwvO5JL1d4nt4g7aD0AAMDD4TM9X4JN/apJPNegC86ONj3/lQ3G+EBraLjZEE+EZO6d//V73zsP4v4Z61bgGUzkdw1sm9m8dUtZ43mFR0RyHF9yXF+xXV+quGy0u1ouC8SdrkDkAQAAHix1ca9vWdxFVXFvj8rO9iY9v69Nvz7QagzR1x/qMnf8f/ne9z49fPgwiPsy1rXAM5jIayKePnDwgCXS/IODZ+OJWvF8JW96okNtfH0cHBB5AACAh8QyB48xx8ki5hpCorutUc3tazfGdzSFhjvj4smoho/rknT24MGDy64AGOte4BnHjx8newa2TW/e0mdKGIdEHoepc9cthyiuRwTT9atOnn0fDyIPAADw8KAOKyTzXHNYcvpSSm5fm3FjZ0touDshf2DowvH/7X/+3qcg7rcHBL4Gc/LPPfv7M909XRFVwAmEkMFRJ287vlgwPd72qJMPUtbEHTrfAQAAPDhoxMU0zoo84lK64Gxr0nL7WkPju1r0oY1J5WTMEI6ldAnE/Q6AwC/j7//+74ko8UgV+JCEkUYX1feJaLlE8FyCLZ8grz4SDgg8AADA/SWQarqqSbZBnXuTITqbU1p2V6s+tquZOvek8kEiLB47/vOfnu/v74fv3O8ACPwyDh8+zP4giwee+oovS7xKM5coCVigx3jX58Rc2eVNlzr5QNyZyFevAwAAAO4HVXFnzaWY7jQbkrurRcs93hUeY83yPUnlREST3v7+v/3eOegt/7sBgb8F9n38wMC2mcd2b6+oEuYVKu8Sz4mO50sLZU82HZ/3qMIH49bXFR6EHgAA4HdTc+ZLMTN4zRT95iCqCYiLSrzbm1QzT3RFxve1G4NU3D9MG+Lbx9/8KYj7XQICfxvY9/Fbt26d7d/SVxZFgWeD4Xg+p5dNX7c81mTv85ZbH7eeZkwQeAAAgDtTF/eboAfrx1kspfs8IiStS15fSsvuZDPDtRvDPWnlQ1UUjlNxP3/o0CEYpe4uAYH/HJjIb9++fX7HQL+pK0KE5ryI4waLWrE8sWz7iFUhq9VIEHkAAIDfSWCKqru3gug/RUAkImO3K65md7WGxne2hQa3NKsfacT89d9dOD380nPPgbjfAyDwdyAQ+a1b57ds2aQihFOKyEcFHmvE52TXIzwVe85yfHDyAAAAv4s7xUfqlCTq3Js00duUVHN7WkNj+zqNod60/BG2yr+Zvnbx0p+v85nhvgjrbrKZe4U1BymCMJY0xOGtLfq1vZ3GzK52o7QlrfjNIZHTeczRSietmdaX2oW3wo5/3jkAAIDVxheJZ0zkl4S+Gi/ZSwkTEhYFryMiZXY1qWN72/TBgZbQRynJ/fWJ37x+ab1P+/pFAQd/F2zdujWzpW+ry4tcROCRokq8rEi8wvNIoqcRm5jGpm7eW+r2QbPs8trqrQVh+TkAAIDVxvKYdq/xLLiWrtiWLrrAkY6Y6m1v1jK7O0Jju9pCQz1p7QSxi/+JOXeY9vWLAwJ/F7Cm+q9+9cBc14YuSxWxFtcFMaKKsiAgySecVLF9lKu4HGuy/4xarq9n/vop9hoEHgCA1Uo9lt0m3N019Fp2iYgIiauit61JyzzeYYzv6wgNbm0xThhe4VfnTr975bnnnnOqFwBfBBD4u+SHP/yh/8yBA9M9G7oqIo9VkYq7jLEkYqR4ni9ZVORdqvYOXYKpZhnLH/1YLuz3WhgAAABWCsvj2JeIaSEJk+aw7PWltcyedn18Z6sx2J1UTmAr/6v/9NbPrrzwwgsg7l8SEPh7gIn8gQMHZpoa02VVEo2QwkuazMvIJ7Jlu5LlEFS0fc5yfVpBreX4eue75QXgCxQGAACAFcMXiWc148OSCxiRhCb6m9NadnerPrGrzRja3KSfxqTyy08/fHsExP3+AAJ/jzCRHxgYmO/p3lDSFVmjGVXGrKUJIZnKusSa6amDD9w81flqbq4937nE3RYIAACAlUoQ26q7d6Qe+0jV9oRkTBpDst/bIGd2tenjAy364MaUehI5+TfPf/j21UOHDtnVC4AvCwj8F+DIkSPeU089Nd/a2pKXZTEkC1jUVCxJPOYJIbzr+HzJ9riK49eGta3BMjo8TgcAwHrhFnEPBrHRJG9LWsnuaguN7203Brc0qae4wtzPhz75cATE/f4CAv8F+Yd/+Acm8gstba2lkCppqigIMo8wdfRsvAbq3glmi0cVnX0vv5TRWS5fLvoAAABrkXrMo2CMuIiCSbOh+H0phTXLj++gzr03rZ7CTuGX45fPX/v2t78N4n6fAYH/EjCR3zUwMNezoSunKpKkiNg1FN7XZcGXqNAThDF18kLBqk81SwGBBwBgrRMEvKqxQVTcRQGRjrji7+sIZfZ3hMZ3tYcGe1PqSdHK/fz64Nlr3/zmN63gOuC+AgL/JWHN9QMDAwvdXZ05Q5HdkCqWNRnbVOyZlRdLDhErjicwVWdGnkHIMoEHrQcAYK1Qi3EsrEk0AqpU2KMaz6UM2d/WrGee7DbGd7bpg90J5SSu5N8cAXF/oIDA3weYyP/RH/3RommWb+iGNq5LElYkmrlFLFMTr/K0AktVnbcdH/k+x3l1pQc3DwDAmqLq2qmj4WISJk26SPqSmrmrzcjtaw+N72jWBzsj4ililn9+6fzHIO4PGFCX+8ypU6fE5s7OjZoafma65OwdnK5sOz9dbj07VjQGp8ryXMnhMmWXc6myk2Cg4NotgDsBAMBqZZln4YlPVB5znRHJ74lL5f42I9vfGprqalAut0alj+1S8Zcn3v3NFehQ9+ABB3+fefXVV/0/OXQoqxpaMarrhiQg2ZBFkbp5XhF51vmOK5oe53EEUzdflfVgTVcg8gAArCYCYa+69sC5I0JCIk9SumRta1Hze9tDM/0todFNaXWwKSye9ovFNz987yj0ln9IgMA/AJjIf/XAgVxf98a8JvFaWMZ+ROO9iMJ7FYd4mYpHXCrunuvzPpX1oIywpnoQeAAAVgvLxJ0FMfY9pCbwfsoQKp0JJbO3MzS+vzN6qbtBPpeOSJ84+fzb779/bBTE/eEBAv+AYD3st2/fmtm5feuizCOfuveiLuEidfQV1tue9cFzXSL6hPBsYBy6rV3J+AJif8vlAAAAD4wg3lSDDvMmqohIShP9rohUHmgLze1pN0Z3ssfgUupJr5R5g7OLF65cGR6HseUfLiAFD5ijR48K27dvb1IMI12xyY5MyW2bLDhd717JbXz7cr59ZMGMT5VtpWwTtHwyumB1t3enLu5sW78G7iwAAA+CZeLOoGaFiyu839cgV7altPnHNkRGdraFLkQU/hPPKr7/1hv/39UXX3wRhP0RAA7+AcOGtv3rv/7r/MC2bTNdbS3TIU0YTxlK8AgdwkQXeExfILZgl1r5m3rY363IL09T37+b6wAAAO6Fz3Sd46mwR1WBa43IXG9ScXY2hzK7WkNjO1pD5zc1qx/xbuWdoQufXoPpXh8dIAMPGebod+9/unehWHl2IufuuzhV2nJuqtx2frocGZqtYNbLPhjDnhHcHbq6m7u0rODBXQUA4L6z3LlTi6KImOuKyd7ORtXe1qQVtzbq1zc0yBcbdPk9VfGPfvzBB9cOHjwI4v4IAQf/kGGOnn0vv2P7jkKDzodUkZcVgZdoZVj2CJFZz3rXJZzLZqRjZaku8ss2t4Wdqy8AAABfhuWGIYAeYMeo+RB5xCV0geuIK+72Zq3yWKu+ONASGutNa0NtCfmE4HnH3vyn168+99xzXvVa4FEBAv8IOHLkCKEiv7Bpc39Z5rEWkrFsKFjSBUEWCSeapofzRTd4pI4LnpWnQC97AAAeBsxZ1AW+HnNYqyKLR3RrSJjbnNKcJ7qMwhPtxkx/c+h6Z1y+FFOEk4rCv/tPr/946NChQyDuKwAQ+EcEE/mB7Vtn+/v7ixGNV3VZEA2ZlySMJcfyJMsmOChc1Nozca+XtyVA7AEAeNDQOMOz5njq2sNU2BOa4LVHZGt3u579vQ3R8V1t+nBHXD4f18QTEs9/8D/+1eGLL7300lJ/YeDRAgL/CKmJ/Fz/9v6ygJCqCFjRJF7SqNDrMs8LIkK0Gow8WqNmM9ItPUoXiDsT/uAVAADAA0MVMJdSBb8rLjsDLXrl8Q1GZm97eGxTozacDkvvh2T0riLyF//qrw5fPnz4MIj7CgIE/hHDRB5z3MwzTx8s6QpWDUUQYrrAR0IiLwmId4nPhnVGPhV4QgXeo8Xnpu/mQeQBALgf1JsJa1v2Xbsu8VxKF92ehFzub9JzVNxnH+sM39jcpA42GuJHuiAcUyT+NMZ48fjx47/V0Ag8WkDgVwCsYPA8N/u1Zw6aIs+JMi1ZmoQx2yo85jUBYwlzbP5ZZDo+Z3u0HC19Jw8iDwDAfaLeSkg3MVXgeuKqs6VRK2xv1ueowI9taVIvdzYoF+O6dEpG/IeyjIYQjUzVi4CVBkjDCoI6dGQTsp1z/H1lh2ydLznd0zmr/fp8JXlpphK+MF2Rzk6W+MmSgy3q5INeLEt3sLYDdxQAgLslkOaqPiP6D9N9ka5Envc3JGTnsTY929+oTfWktWstUflaVOPPx2T+mqAIoypCN0DcVzYgBysQ3/d7PI/rqXjuQLHi9U/n7I4bi1bj8Ew5cnq8pA/NmdJY3uazlofqFe4l2B1l7h4AAOBOsOBRix8sYog8x2aBIw264DWH5UpfSsnt7QhNbEpqlxuj0smoLl0K8/wlRUGjIOyrA2iiX4EcPnx4EWNu5OBXnlmUJMxpIm/GNMkKq4IbUQRPEjDJ2z4qOT7GPmFFLVD0oMQFe3QFGg8AwOexTNhZJx+FuvawLHipiFjZktZyT24wZve1G9e3N2kXWxLyB3658Ov/6//4m9Nf+9rBLIj76gFkYIUTuHmO6/Zcrm+x5HRP5CrtQzNm07vXCqmLs5XYYt7RC2Xq5h2CS67Psa/nA+5G6IO0bPU70gEAsDZYXuYpEo+4qIxIQhHcdFjKt8WVxb60Oru7WRvfEJdHk4Z0zi5VPkinI9dA2Fcf4OBXOK+88krmP/7oR9f6+rcwV5+jbr5IXbyVMkSvyZC4mMQhicfYcQlf8XzEpqGtXUrLcG33TuK9VNbp6k7pAABY3dTkmck0xojjeY4YCk96GlR3V0sos6/LmHiiK3Klv1m/2BGRTkRU+ayZz598771fj/f398Pjb6sQCOmrBNYB79ixY/zTTz+9oWJ7m8s22TyTt7YMThQ3XJyspM9Ml6KDC6a2UPZkeh7ZPoddWpCDZ+eX7vItIs4K/NL52rngS/1b0gEAsLqplXU2QQwbF1uVENEVwUuHxcrO5lB2d4s2sTmtXepNaqfDMrqWKeXP/NOPfjQ9OTnpwbPtqxcI46sMJvSvvvqq8J/9yZ90c5zy9ELR3jy2aHWcnym3XJwqJa4tWJGJnKXOF12l4PjIZI6+fpfZ9tYOeKzg30T9AE0HuQMAVj+BuLNRrwmni4jEFYE0RSSvPaEUupPKwuakOtmXUoeTYem0lZ9+6+233poAYV8bQBP9KoMWOu6NN97wNUlaPPiVJ2ZjhlROhKScJiFTFXlTRJyLCWLTziKq75Lr+6ynPSJBKV+u2LV9tqkvjGX6HqzqxwEAeHgE5bBWZu+lDC5dtwz6ksYFoguINGiS35mQyptS6uLuVn1id4txpb9JPd+V0E5WFhZ+c+bUh+MvvPCCC4PWrA0gfK9imJs/cuSI+NTXnmtyPbJzuuh2TmatjdcXzM7hObP9wkwlPbpgxRbLNl+0CGJD5i0NkLN052uv6ywv1suPAwDw8GDl8Navz34XQdmlq3oZZtdTD87TQJEyJL8tKpk9KbXcm1Qz3Q3KVGtMutoUEs8lQuLVmbGpkxcvnpyDSWLWFhDC1wBM6P/+2DH56Y6+tBiL7JnLexvPT1e2nxgr9J4bL7eNzlXic0Wbd6i6e/SOs/JfjwFBDoDn5gFgZREU0lopvVMZXSrIDPqi9prV5dki+D6REXJ7klp+R4ee3dlmzG1pVCc64+pIRMPnp67dOHrx4sfzCCEbxH3tAZF9DVHriCcrjZ2Ngh77ZyML9p6rM+aWKzPl9tFFKz5RsPnZisPR/8hi883XrqvmArqC3AAAK4OgcNZL6OeUzaUCTFlWGWCzvxkSIjGJJ42G6LaE5IWetDLdl9bGNiSV0eaIdDmhS6PjMzdODp0+PQ/CvnaBkL4Gefnll/G3/+zP2pOxlm/O5M3HrsxWNg1NV1o/nSobg7NlaaHsijnTRY7PZqqrXRTkhM8JJAAAPHxuKpu3UD8XbKsjXbGZpTGPOEVApFGXvPaIWN7WpOcGWvWxrrg63ByVLhoqvpLJzJy4fPZs9vTp0yZ0pFvbQCe7NQjrINMYjea39W2ZScXDmiJiXpd5LiTxflgT/KjKE0MS2GRRyHSDZ+c/IwgYtYgCYg8Ajw5W/m5XBlkZZY6d/menRboKiWyudp50xRXSl1TdHc16fnuzPr+9RR/dlNYvtEalD3MTYz8ZGT578Revv579y7/8Sxs60q19QODXKKzwRqOhwubeLTPphCFEddFOhsVya0Qy07pAYprAhF3OmC52PFId036puNOIUQ8stwswAAA8fOrls9Ycz4omG2aWFmXSoApce1T2Blr00hMd4czudmN8Z6t+uTulXGgKiyfGLl15a2Tk/Oy3vvUtC4R9/QACv4api/ym3m1TjUnd0kV+PqIIuYjCu2Fq60UBiYjHisYjLOPqTFK+X517/jOWKTyIPQA8fG4Rdvaap1XysIS55pDIdcZlrzepmlub9MJAa2i+v0m93pVULrRF5U/imvDxyPDo22+88Y/zL730EjTHrzMgZK8DWOe794aGQmI+L8XjTbFwY/LZkkl2j2asTVcXzfYrM6ZxebokXV8w8VjGFrKWi1iPe8K+1KsT7NIV5BgAeDgs1bPpDv1fHwkeEZ+oAu+3hUWnP6U43SnN7Ego+ba4NN8SlcfThjSiKOIn82NX3y4UCsWf/exnBfiufX0C4XqdwcT+0qVLze2d3d/Imu7ehZLXe22+nBqeLoeuzFbkq/OWOllwNHqOLzoEmdTN2x4bJodFl1p2gVwDAA8WVtyoY2d1bNYrXsRsYhjMqQJHdIl3EppQ6o7J5R3Utfem1ExLXJ5OhqWxiCKMaAq6dOPatVMbN25kj7/VqgXAegSa6NcZbCS8RCJR6t3YMxWPRgWZBgtDxoUE9fdpQy41xSSnISRwEsaYVvnZePbYoddVW+3pKtjSqHMnka83JTLgGXsA+AJUyxrrQKdRdY8rApcOCaQ7qZkDzaHF/RvCk/s6wzf6m/WrnQlliIr7uYgsnJybGj06OTExsnXr1gyIOwDRd53CnPz09HSyoSG9y/X9RtvloiXbSS6Uvfbri2bH2Ylyy+B0OTaatUMzZUcoWC5n2z5nudTVez5H/98s3vXdIKQsjyv0BOQyAPh8biPDEiZE5REXlnguTm17yhC5xrBktifUmc1pdWxTWrtMj13XJTRFnf3olRsjF72CUNyzpztXewsAgNC7nmEif+bMmUg4HJY9zxOxqqrRWOqJTMkbuJG1eiYyZutYzklP5uzQVN6S5vIOni7Y/HTRQQXLR4HABzlomYiz7U0iv+wcAKwXbhXtzysDLB1r8VpWXOhCkprgd4REvzUqkZaY5DdFFKsxLC42R+VrTRH5QoMuvJ2du/GJIMsVxffLXV1d2eobAMBnQOgFbuLSpUvJ5vaux2yXbKMivnGuYG2YzFqpGwu2cW3RlC/PleXhOVOZLjiiTQOT46NgsJygVb4anKrL8oAFAOuNev5fXi4Y9eMB9AX9z04JiBCRVpgFAXOCiO0NEamyI63am1KK257UnOa4nE9p0mRU4y9Qx/7O9anr7w/09MxW3wcAbg+EX+C3+PTTT2Pt7e0JNRTaVyh7OzMlt3kmb8enCpZxbcGOXZ2vxEbmTWOyaEuzRZcvWh42HYJIEMjoKtgGb1V9DQDrESbmywU+EHe6Cvqz0231NREx4mKy4CU13mswZKshLOY749LCpoRW6EjIlRQV+wZDzBoyP6YJ/AcLC7OnGhsbZ9jVAHAnIPoCn8vQ0FBDR3f3Ts9FHRXbjRUcEl8oOC1TObN1aNZsOjNRigzPVrTZvC1lS65oUyPCBrVmQl9/JicYRBNyGbBeCUT8MzAJ5m7mMOcTTAsGjzlXFXinKyZZG5NKeWNSy3QnlanWuHIjbcgzsRBfUEVcVgVc4BG+Mj09foFWvhdrbwcAdwRCL3BHrl69GonFYhHX5WXPc2VBDW3Pmu6OsYzVOTxXSV6ZryRm805kumAbC0VPzVRcseR6fMXlkO36nOOTJbGv5jYQfGANcouQ3w7WI17lOULFmtMl7EYkwY7pYrlB5wutUTnbGZMyHXF5ui2ujGq8+55AnPGIytuiKLq+77OHWXLxeBw60QF3DYRa4J745JNPop09/Tttj2zOW06ain3TfNlpGs84jZenS4nhmUpkMmfr8xVXylV8VHJ8zvZ86uprwl5vsoecB6wlmMDXRX553q4dY1O3hqjCJ2TsJ0OS1RyRip0JNduXVhe6U/JUTJWmDAXN6CI/5Tr2+dGpkcGDO3dCxzngSwFhFrhnBgcHjc7OzjTGWCMYd+Yq3pbpgtNxdcZsG54pt4zl7IapvB1dKDpipuzhvOmivO1zZSr2LuGQx/k03lGlD3IfXUEuBFY7gcDTVSDohNZnkS9iRBTq1kMS5gwJk4TK+6mQZDaHpUxLTJ7tbFAnNiaV8a4G5brAWZ+ICC3wPF8cHR2d3bx5c4G9EwB8GSC0Al8KJvaRlpZWjkidFdvfkS073XMFt2s67zTNFqzwTNYUry/a+GrW4sayNi5avmC5vkQwJ3AYCVTnqwoPORFYzTBx94lPF5e+cnkO2VGV9xpCgt8ZVciGuETaYrLVGJGzybA4kdCkkXhIuIp863RcFGZnZm6M9/f3F6tvBgD3BwirwH3hzJkz+ubN27st4m2kIr5nvuh0LhTs+FzWUkYXTHxxvoKuLNjiYslRqeM3yq4XqrhEc3wieASx/kY0L1LZX3L2DBB+YIVQa2qvUnvBNoSKOkE+xpwn8MiRMSppAi6GRFxIGqLZEpG8noTsb2pQ/PaYXGmIynMxTbgiK+JHUZGfOHfu45E9e/aUq28IAPcXCJ/AfeXNN9/Uf+/gwT0lk9tUdt1YqezLCyUHj+dMutjKVM6JTGXt1GjGSo/lrHiu7IXKti95HCfSaClxdWcPTfjASqHa7P6ZoLMhYIlP3To94iOH7lsSjyuRkJhPGNJCd1ya6aJC3hiW8k1hyW6MCH6TIXpxVTBVRZyTBXThzbOnzv3xE09U2DsDwIMCQidw3zl69Kiyf//THS5yVOQivuxwaLHi4JmcKU7krfBc0d1yacbsGJozm2ZzVixToW7eIZrr+4aDuJBHiO4RTvY4hJfGwF+ilmUfVM6t/ygoGWuHe7mny7Pa8hdU2GmV0xMQcniOc0SMHMwhW8JcSUSooIl8piEmzjfFlYlNKXVkQ1i81BZVSumI4sZV0Y9oHBEE4gpELL/++o+uHzp0yK69MwA8MCCMAQ+Vl48eFZ5Ib990PWO2FCtez0zBSc7k7fBC2Y1my04ya3qNOYs0FGwvXnF9xfI4npqlatM9g61ru/c9994U3ClQOlY/wT2t3dh6vvk8WLJ6HmAOnTl1P+g553M8tgUel8M8VwzLfMmQcNmQhWJME7MNmjDfoPOzmiaNCxJ/dUMYT8k33h2mIs6GhQCARwaEMOCR8Nprr/Fb9z+7YbJEohO5sjq+aBvzebt3tuj0zJTdzoWK15apuImi6WuOR2TPJaJHfMxcPYuaQdxdyr21nTvlZha4f1durwf3OlA6Hi13cz/qaW49t3TtsjdZLvA3vXftBaGZiiDm1H0ecQ5baM3SFXhkIoHPKwJaSKn8bJMmLKR0KZcIS/mkIU02hfmx9ricNyRxYezjN0eef/55+h4wkxvw6IEQBjxy2KQ3R44cwYXGp/pmS3ZXxSMDCxV380LJa1ksuYmy5YVLpqcXbZfNUy+WHIItx0deIPI0C2PWSY9uPy83s3QBd0jDuDUk3ykt8GAJ7gVdLbt11e2ym7J0Xxm33Nv69cupX8sO33qesBGZkEffsyKJuKyLuBSiLj0sC2VdxgVF5udCijAZkfGlBoWfbAyJxURYKUcMbuZfDDReZ28Bog6sNJYXCQB45DBnH978tX7bJ3sXSnbHXMFtzJXc9GLJSk8VnNhYzjEWS46UN12+4hLewxxPHb3gE4RZnycaoD/L00E3PRrV62E3OFM7DTl/ZcPu2U0CTmH37G4EPjhMV/XTy6/hgqEVqVOnu7gqyDxNSRcXI1Sgrn3RUPBsXBdnU7qQaTbEfFITc6qMr+uqOBHRpKsLv/k/A0F/5ZVXgutB2IGVyvKcDwArAuboL8ya3aWS05ypePGS6XTlym7XbMFpHi/Yydm8rWXKrkTPSVnbU3KWr1J3L1q2z7Nnluh/XI3ZSGTRNxB99iAei/Q35Xh2qLYLrAyWS+UXEfjgEF3ddClNyP591vvdoYl9jke+wCNiSNiJykIxIuHZsITHopp4TZX5y3FFmG2PSMW4wZd5qzA69t4/TjNRB0EHVgsQ3oAVCRN5Gkxp/jyAD/2X+7sszt1Yttz2vOU1Z4puaL5oq1M5W7uWtcM3snaU7usLRVt0XJ8nPnX0CCk0d6tU2hX6bhKN7hJ9T8xm+GCRPhCAIPffUgSgRDxa2H1Zks9lOsqE/dZ7c1uZrR5kEkyTByPKIY6KOkE2IsSip0x6roIRtjgJuaoqei2GYHWFxcWOqHw9rfNn46p8zffy5+ff+8fZi1u3kufpRRcuXCCHDx9emlYBAFYDEM6AVQFruv/ac99pNV23o1i25EzJl2/kLXUkYyYnFpymiZwZms07Utn0BctzWe/7sO2TmOdxUc/3DdvnQrZHVIf4iusj7Po07jOWPH3NGgZruqodBR4yTJ+XhLu2w+7FknOnbjz4LibYX5aWwe4brb7RPYnHREScJ2JkSjwqCxgXJYErCAhlFQFnJIzzgsJbekjw2sKyuSEiLlC3ftlcmH4/Ubk8DR3lgLUAhDFg1cBc/bFjx/hjdL/50qUg77Y8+e2Ez4k9pYqjZUuesFB2+EzFlXOmGy9aXnup4jWYlpssWn4qY3mJrO1HSp6nVFwiEI/jOZ+6eg6JhCM8s3tLJWJJUGpASXl4BLLKxLvetE5fInqbgsP0riGODQfro+BRiuqtWbo9PM8JAkcMETkRnq9EZJyLSGheV8XZkCbMRzVhxpD4sajC51VNsHQNuwlFciIqKi3OTQ1ffPNIFpw6sFaAsAWsepi7v3AhGeTl5uZL6DTddrXsDwlidFu+4iXKZSddtN0N02W3db7sN2YdL0wFX3FdT3RdTnZ9T7c9ZDiECNT1o2p0r3fWW+7sl0MP/NYx4AtTF/UAJtz0NhAq5IGgs/2asBNk8hhZAiY2T+26yCMi0CsEjDiBx7SqhjlRxF5cwlZKwdmEwk8lVGFMV/lr8Yg8n9DkufzV0+eU8tjSKHKTk73BD37llQMeuHZgLQEhClizfP/73xdN08Ru4169oW3DrvmK25YvOx0Fx48VLE8zK65aoY4+U3aS8xUvtWh6xoJLZMvxsO/4mIoK9YJczdnX3D1bmAQEJeeW4rOiSlPV3X7GrU0SKwTm0uvbYI+KORVvzudMulTo39SkBx1EkM1hrsxzJC/zaEaXcSYkCq4hs9naeI46dS4kC5wk80SWsE8duhnRcK5BFmZjijB2fez8J+qUYyrKmP8Xf/EXLgg5sB5YmYUeAO4zTOxjG3ZrybYN20q2G8mViFI2bTVvevHpor1xPOt0jVfc1ETZ1UsVX3QtT/I9X/V8TvWJL1NXL1B7x3nUQno+1aLPk4fbCf9vwS6upammrz3Kd7s3pQluervP+8l1AQ+EkqYJGiJYUzY7hulKoO/D3uymd7sn6mL823zee94mfe1QTc7ppWxLnbnvUUGnf2JsIcwV6G+ZwYRboD9xkqYo0mQ2RqjEvkOnAn/2KXTxowZ6oaKZN/+MZIpL1nY5MeNzkuRzuu6/8vzzDog6sN744oUdAFYhTOglqZdf1GZRKKuicsqQ0k2bniw5/vaM6aUXLd8oWa5SMb2QafnRnOk25G0SKdqeSp2/mLddTNMhy6b66dCFDZbPShHTzWAb/Jjq61tZOkcX9s0yVTO6x1oJqmeoTQ22v0VwuCpOrI5RFe7q6+ojgWygHz54zYZVJYi5Xovu0y0VNUQkekyj12pB2nsVefaTgklWSFC/odv6txjVn80+Q5VqK8dSJ7haJYNVDFgVZnn9gNDfq9rs7tAtc+smPVYRBa5AHfg1RcRTdJlWufI7vc7QJUFWScm0iebzfkzjnR8e/nP2GQEAuAP3VtABYA3yH95/Xx3o2rGNqlfKsl2tYvtKwfKMbMlrmSy6bdN5p3G+7MRnK646VXT5sYKF8iWqsxWqs1TkA/2jmhn0y6dL8BrTnepMOWxAlaWSFkh4MBgPE2QiUuVTOMxJxGevaz37bwcbxycQdvaoF2KPe1HhZD+KsDn1JbqlIk5/CgrO5ekyS1/N0uPsF4zRH9xF9xvo+RDdMlG+O9jPYM6X+Bbdo06aVh7Yd+MoaClgs/7J9KPL9DNRc83GjGHXsJoKmxcdOTQdE247eP48OB68J3tL9mEd+jeidSduivP9PK26FFWFzzSJhZ9ui8xeIWXP62gt2f/uu99lnwkAgHvk8wMKAKwjXnvtNUlRFEGWZZTLSYiLuXxHz74tZdPvW6i4jQXLTeRsX8+YrjBb8ZFj+yJ2fcGj6mR6PtV6wpkutaFU8C2P7tOtQ7cePcd0njXr+z7xHcLZDtU6mlSkFQrdI6gpeIyPIMkhhI3GVy2TrG7AJJ25XjbiGqGC6SPWMaxA93O05BboQoWTk6haJug2RsWUCXeR7lNh585sFmf+3xQqWENeU/uMp/8P9NgWusSZKNO0zFP/dvkPXDY9zM5UvzhgndxMup+l5+ZoRWOaXkt/B/o7Yc6gv1pMQSgicpzGYyQI9DoeIV9EyBZ4riBilEMYlYKx3THvS7RKIIs8R4/7kogshUcLuYX5f+Rnr0zZ9ONrgu9FwpHikcMw2xoAfFl+u4ADABDw/e+fEvn0uMITwhfzhPcVBdtWBRWLHPf0wa+0xULKZir0XMb0uKxpc5kS3a94XL5kc1mHCn+FCj/dskqA43mc7aGyWLx2Eru0umALKCOF9Sku9S/o6c4S8dUSdfEuFf9AVtmqvs+8Mn0LWkcoch6Zpy8XqOgOPmaMnVMcC52yO7aWifANmpI1lecJQRO0VnHlL9zBt1999UXnsf/u/0mfKLR+lwrtTvpmTVTbtaAycFuBr22rAs9mVHMJFWn6aoqeukIQOv6MfP0kS/I+197LEf5AVEBJHWNDwpxEFyQL2NN4VFHoR5R5PEtVP8/z2FIk7IdVkdN1ngvJIjHonzOiioXK3KWP/vVzv5dh7wkAwP0DBB4AvgBHjx4VXNfQOS5D/1Hoim2X71eh52svXCT5beVPSvXnrF9++agw1JHabztcY9H15DK1x9TeL5VJz/eYf2YtAKwpwMUeqlR8fzSSuXa9jC3r07/5L0os3dMvH22cwaHd2Ce8y+HFiHVj0HKK5qd/86/KtIiTP3j5/w6PcL1/QB12P0aokTpxnQo1z9rTMfX81HEvBYJ6233QOwBjQisFNvX6War0Y6btvZewrp47fvgQreJw3PMvvyZNRDu7YprWpyGsqxInqpjnZAH5GnXn9OctZKbGLpJCyaJ1Gz8WY1fF6L9gw6mWQ3hZ9VPcXAWmVgWA+w8IPAA8Ql7+wQ+UshcTc56Nl9UKlqgfkioWkTWD6Ipk/7vvfvOm76RffvllfDXUrVpFBZEw8X703/zx0jPeAdTS/8nfHEtI0dQOKtwNtNgrmI3TJnCIOm5O5HhOkWppKYHI0xVmAo+Qg0RcKlru5fEbH4/c+t7sZ88lt2q8F8KaUqTxJJBvTtEcEiK892/+1dfL0HsdAB4NIPAAsB6gIv+v//aYLjpZAYfUulHnwrXtrdSP2xo1+6LpV0qCdfjPD0LPdQAAAAAAAAAAAAAAAAAAAAAAAAC4Exz3/wPpePkXNvEt6gAAAABJRU5ErkJggg==;" vertex="1" parent="_Qa4FRTeHyNOR7-FeHma-89">
          <mxGeometry x="150" y="249" width="57.25" height="56" as="geometry" />
        </mxCell>
        <mxCell id="_Qa4FRTeHyNOR7-FeHma-61" value="" style="image;aspect=fixed;html=1;points=[];align=center;fontSize=12;image=img/lib/azure2/databases/Azure_Cosmos_DB.svg;" vertex="1" parent="_Qa4FRTeHyNOR7-FeHma-89">
          <mxGeometry x="651" y="110" width="64" height="64" as="geometry" />
        </mxCell>
        <mxCell id="_Qa4FRTeHyNOR7-FeHma-62" style="edgeStyle=orthogonalEdgeStyle;rounded=0;orthogonalLoop=1;jettySize=auto;html=1;entryX=0;entryY=0.5;entryDx=0;entryDy=0;" edge="1" parent="_Qa4FRTeHyNOR7-FeHma-89" source="_Qa4FRTeHyNOR7-FeHma-63" target="_Qa4FRTeHyNOR7-FeHma-56">
          <mxGeometry relative="1" as="geometry" />
        </mxCell>
        <mxCell id="_Qa4FRTeHyNOR7-FeHma-63" value="" style="shape=image;html=1;verticalAlign=top;verticalLabelPosition=bottom;labelBackgroundColor=#ffffff;imageAspect=0;aspect=fixed;image=https://cdn2.iconfinder.com/data/icons/social-media-2285/512/1_Slack_colored_svg-128.png" vertex="1" parent="_Qa4FRTeHyNOR7-FeHma-89">
          <mxGeometry x="5" y="195" width="50" height="50" as="geometry" />
        </mxCell>
        <mxCell id="_Qa4FRTeHyNOR7-FeHma-64" style="edgeStyle=orthogonalEdgeStyle;rounded=0;orthogonalLoop=1;jettySize=auto;html=1;entryX=0;entryY=0.75;entryDx=0;entryDy=0;" edge="1" parent="_Qa4FRTeHyNOR7-FeHma-89" source="_Qa4FRTeHyNOR7-FeHma-65" target="_Qa4FRTeHyNOR7-FeHma-56">
          <mxGeometry relative="1" as="geometry" />
        </mxCell>
        <mxCell id="_Qa4FRTeHyNOR7-FeHma-65" value="" style="shape=image;html=1;verticalAlign=top;verticalLabelPosition=bottom;labelBackgroundColor=#ffffff;imageAspect=0;aspect=fixed;image=https://cdn2.iconfinder.com/data/icons/browsers/Firefox.png" vertex="1" parent="_Qa4FRTeHyNOR7-FeHma-89">
          <mxGeometry y="305" width="60" height="60" as="geometry" />
        </mxCell>
        <mxCell id="_Qa4FRTeHyNOR7-FeHma-84" style="edgeStyle=orthogonalEdgeStyle;rounded=0;orthogonalLoop=1;jettySize=auto;html=1;" edge="1" parent="_Qa4FRTeHyNOR7-FeHma-89" source="_Qa4FRTeHyNOR7-FeHma-66">
          <mxGeometry relative="1" as="geometry">
            <mxPoint x="495" y="279" as="targetPoint" />
          </mxGeometry>
        </mxCell>
        <mxCell id="_Qa4FRTeHyNOR7-FeHma-66" value="" style="image;aspect=fixed;html=1;points=[];align=center;fontSize=12;image=img/lib/azure2/compute/Function_Apps.svg;" vertex="1" parent="_Qa4FRTeHyNOR7-FeHma-89">
          <mxGeometry x="339" y="249" width="68" height="60" as="geometry" />
        </mxCell>
        <mxCell id="_Qa4FRTeHyNOR7-FeHma-70" style="edgeStyle=orthogonalEdgeStyle;rounded=0;orthogonalLoop=1;jettySize=auto;html=1;entryX=0.384;entryY=1.018;entryDx=0;entryDy=0;entryPerimeter=0;" edge="1" parent="_Qa4FRTeHyNOR7-FeHma-89" target="_Qa4FRTeHyNOR7-FeHma-56">
          <mxGeometry relative="1" as="geometry">
            <mxPoint x="675" y="310" as="sourcePoint" />
            <Array as="points">
              <mxPoint x="675" y="347" />
              <mxPoint x="675" y="455" />
              <mxPoint x="172" y="455" />
            </Array>
          </mxGeometry>
        </mxCell>
        <mxCell id="_Qa4FRTeHyNOR7-FeHma-86" style="edgeStyle=orthogonalEdgeStyle;rounded=0;orthogonalLoop=1;jettySize=auto;html=1;entryX=0.428;entryY=1.05;entryDx=0;entryDy=0;entryPerimeter=0;" edge="1" parent="_Qa4FRTeHyNOR7-FeHma-89" source="_Qa4FRTeHyNOR7-FeHma-71" target="_Qa4FRTeHyNOR7-FeHma-61">
          <mxGeometry relative="1" as="geometry" />
        </mxCell>
        <mxCell id="_Qa4FRTeHyNOR7-FeHma-71" value="" style="image;aspect=fixed;html=1;points=[];align=center;fontSize=12;image=img/lib/azure2/compute/Function_Apps.svg;" vertex="1" parent="_Qa4FRTeHyNOR7-FeHma-89">
          <mxGeometry x="645" y="247" width="68" height="60" as="geometry" />
        </mxCell>
        <mxCell id="_Qa4FRTeHyNOR7-FeHma-73" value="Azure Bot Service" style="text;html=1;align=center;verticalAlign=middle;resizable=0;points=[];autosize=1;strokeColor=none;fillColor=none;" vertex="1" parent="_Qa4FRTeHyNOR7-FeHma-89">
          <mxGeometry x="118.63000000000011" y="215" width="120" height="30" as="geometry" />
        </mxCell>
        <mxCell id="_Qa4FRTeHyNOR7-FeHma-74" value="Azure Function" style="text;html=1;strokeColor=none;fillColor=none;align=center;verticalAlign=middle;whiteSpace=wrap;rounded=0;" vertex="1" parent="_Qa4FRTeHyNOR7-FeHma-89">
          <mxGeometry x="339" y="205" width="60" height="30" as="geometry" />
        </mxCell>
        <mxCell id="_Qa4FRTeHyNOR7-FeHma-77" value="Azure Function" style="text;html=1;strokeColor=none;fillColor=none;align=center;verticalAlign=middle;whiteSpace=wrap;rounded=0;" vertex="1" parent="_Qa4FRTeHyNOR7-FeHma-89">
          <mxGeometry x="695" y="300" width="60" height="30" as="geometry" />
        </mxCell>
        <mxCell id="_Qa4FRTeHyNOR7-FeHma-78" value="CosmosDB" style="text;html=1;align=center;verticalAlign=middle;resizable=0;points=[];autosize=1;strokeColor=none;fillColor=none;" vertex="1" parent="_Qa4FRTeHyNOR7-FeHma-89">
          <mxGeometry x="635" y="80" width="80" height="30" as="geometry" />
        </mxCell>
        <mxCell id="_Qa4FRTeHyNOR7-FeHma-79" value="Respuesta Modelo" style="text;html=1;align=center;verticalAlign=middle;resizable=0;points=[];autosize=1;strokeColor=none;fillColor=none;" vertex="1" parent="_Qa4FRTeHyNOR7-FeHma-89">
          <mxGeometry x="373" y="465" width="120" height="30" as="geometry" />
        </mxCell>
        <mxCell id="_Qa4FRTeHyNOR7-FeHma-85" style="edgeStyle=orthogonalEdgeStyle;rounded=0;orthogonalLoop=1;jettySize=auto;html=1;" edge="1" parent="_Qa4FRTeHyNOR7-FeHma-89" source="_Qa4FRTeHyNOR7-FeHma-83">
          <mxGeometry relative="1" as="geometry">
            <mxPoint x="635" y="277" as="targetPoint" />
          </mxGeometry>
        </mxCell>
        <mxCell id="_Qa4FRTeHyNOR7-FeHma-83" value="" style="shape=image;verticalLabelPosition=bottom;labelBackgroundColor=default;verticalAlign=top;aspect=fixed;imageAspect=0;image=data:image/png,iVBORw0KGgoAAAANSUhEUgAAAHkAAAB5CAMAAAAqJH57AAAAY1BMVEUOo4X///8Ann4AoYIvp4rv9/WCw7KRzLwAm3nt+PXX7eiZ0MP0+vms2c7k8+/M5+A+rZN3wa653tXA4dlvv6tkuqRIsJdVtJ2l08aHybkMj3UNmHwLhm0KemQJcl0dp4sAkmzOF7NdAAAHTUlEQVRogcWb2YKrKBCGTZVGNMa4RGO6z0zm/Z9yUNAAFpvpnuGmL1r5ZKnthySnyFbdrlN+Pj+nrox9VW9J1NP11CAAIG/zn6Gr/htyOSSAidIQ0mf9++Ss1bGiQXI5OO5gcschZIPm2IKHkp+M5i5zfv1F8mAH88aev0Z+WGZ6Q7e/RB48YI6+/Ap58oI5+vYL5NK5xrJhGmtcAeQHYcb7BmfllSoriizLnB/jJ3chQ57ne/Vm9bUdE2CMJc1wsdu6nzyGDZlJXzaNjPt1uQQI7JUXB8l90CqzVnAvsHOxwAbSt3vJg3/IyB5iUi0eFiE/QK5fXjA03fLobbRaH4z7YfvIvc+W12BVt+iYHXzt7N1HfrrJCHcxmostlK0PYh9JdhszNGIofeN3c2CM2kduXH0lIjzWDxZieZDFkLPU2hHKKFG1QVz+wvgjZGR34SEmCIgnoukB7SAZxvAFVt5SbctKrnizkSGdlmfKgUoKHWQ1gaDIVT3dH+PY5DQZ8bnsleyJMQNeXq1d5PLZMJHLnykygnSV11cslw/6YieX3ELWSEOR4SVdZRMYPPXPbmzkbFAshCLLj67vgZZkNihpcqdtGIIsXqzyuI2ldnAlybm+cDZy51pgcE8GDhS5NTq0kF3ZESRTb4+VibbQiRVsI1+tPSO23K9VkytsvVPUjXzZPR5J5uYmo1FBVp2yFSaZSKrjyJB0im3anWptkoknY8hb4LqPMiWzbUOTnH9E5oFLprzcDbG2kMtHTXma6eSMHEcoeU09+3T5F+JFLjdhYamxt6khh5IhFQusBC5IRdLFs1GDrWQHC7kiU9sgMmIuAtdZTT0RBhlWUv074amTaecQQOYEsWOupg0jyFCaa8kw63XynTQ/PxllZkIGLjo/rDWyJeXxk9PLtatP9WDx1SyVH7ZZGD5OGrmkTS9otnmEsMcIXIu51aFCr5MtMSDab1N94HOx9Oo573JsKp28d9k/Rp4t7LoZHVOFs5nc0tNFk2tX1UF2A+PqaLRUP7FubZpcJ/HpCIJwqFV9nIx9eigPAtzrZctsB69z4hrxy5klvagqNnyHORueO1eNxQxNOM6q3A1KZ125LvchT+Jus4cqH45MaI1hGznce3qaSIod5SUq5U1cxPA0XGJglTu0mrdI6YmSVRrlsaTx1I7qdkOLzIDuZn6mOkdVUKvx3FJrPcAmhUxrT3gXA3hEVY1rUrbLFd5P3BRyQU/3qjlFTTk3niUbEeGJekDUGY6s962zVaTO9vX1/fVNvbZlI5aUQSRja6ZvcYtvbXE/gD9//fX3F/mWIuDQVlMr5JttQu166vf3n28L+a1Kkga77G9HRbd2su6Zc5wOJCyMXsZX4axiFfZ5nvIuUpGBpLKRZ+lArdzt1gNzwVbHajKssG7dh65WXFxqAHf2sUkBWMnJK9MVmt5R7fNyIuBgIZSMN0OVKu6OGBedBznIfKFNJc5xGOFtaKSlLnJOqI92h+slG4certm+U4pr9Twm8EFb6VvURX6YZKElFLYazdWwOWUfkB/p6nCjBVVuKBHkwSDf2OZwnXoa0eYMK5zMw5VOns+IMMmX8FScXUdfn5InnSzluE1zcWWwH5J7nbxFo+2I01aw7L8ojpzUGrl6p7jIREpzyqldDtgiM+YjijxLvipZ0z5XPTHbyfciaNbdRdOyosh8mfVYZbggeWRRjvoXSe2jM0rrqNmudbKZuWzHNN07+YSml59jSoER5CWfVsn7c1fE81L+Zbk4mnIkhDHkpf5SyBWVKMJLlAT1fT7Dau1JcARZHNUp5IKu3tYz5ls67ub+4JgLk2y5UsD3lFJx24qdcDITG9c/5oW9SrR2USCYzGQxqa6z486KLFhonT6KDKv06d7b6htN6azsWBgZtqMylWzRAmVDdCkgOAc4P1k5gVbJkYqm8lFSYC88ZMTpRJKji4iVIP2aWTka5M0l7smuLebgyoHs73ZoZGSprgJq8dlaT9obN7jKZm4reb6shXfz+o5GJo+t3NyHzNrI+68zmUHSDLkpeppkz+7edy0X+EaLbzP5tFzRoJpRV8XsMUgnEbjullQRLLfhKLI1bdq3NYBWuTU9jiKfaEllzwXfmetMjrr7WIfdN1wTJadKBy7wvqLzXoJ7K7bkYavy2CuO7L3f6TlgVh50XzMmqtjeeaHPc89RadDt+3aTT6U9GsYUPui+wk/e0qoslyNgLfac9xxX8Eh17SFzr0SMCWTq6b3nKB/33KG33ky7DQjvkSEAngU3VHNOM1vXHjKf8+78YrI1m88v/gnialfBYskCVJZlrXnBMAerHfgeIlOvhLg5RsTFj8lWKVyda//vJA6QA1IXHP239o+QT2cPGn37+jDZg8ZXyO8UjpHdUnjAVB8n821mU40YdTX+B8kW345sDP0xymEyj1d3o9JCznVHxh8izz+rGxPxq7r5d3XYtDE/vvmIPMP7Szs2TfN4Xsu4X958Sj7e/j/yv2GLU/SLDlyXAAAAAElFTkSuQmCC;" vertex="1" parent="_Qa4FRTeHyNOR7-FeHma-89">
          <mxGeometry x="501" y="249.5" width="55" height="55" as="geometry" />
        </mxCell>
        <mxCell id="_Qa4FRTeHyNOR7-FeHma-87" value="Azure OpenAi Services" style="text;html=1;align=center;verticalAlign=middle;resizable=0;points=[];autosize=1;strokeColor=none;fillColor=none;" vertex="1" parent="_Qa4FRTeHyNOR7-FeHma-89">
          <mxGeometry x="456" y="215" width="150" height="30" as="geometry" />
        </mxCell>
        <mxCell id="_Qa4FRTeHyNOR7-FeHma-88" value="&lt;font style=&quot;font-size: 36px;&quot;&gt;Arquitectura Chatbot con OpenAI&lt;/font&gt;" style="text;html=1;align=center;verticalAlign=middle;resizable=0;points=[];autosize=1;strokeColor=none;fillColor=none;" vertex="1" parent="_Qa4FRTeHyNOR7-FeHma-89">
          <mxGeometry x="65" width="550" height="60" as="geometry" />
        </mxCell>
        <mxCell id="_Qa4FRTeHyNOR7-FeHma-90" value="" style="group" vertex="1" connectable="0" parent="1">
          <mxGeometry x="-1930" y="160" width="960" height="525" as="geometry" />
        </mxCell>
        <mxCell id="_Qa4FRTeHyNOR7-FeHma-23" style="edgeStyle=orthogonalEdgeStyle;rounded=0;orthogonalLoop=1;jettySize=auto;html=1;" edge="1" parent="_Qa4FRTeHyNOR7-FeHma-90" source="_Qa4FRTeHyNOR7-FeHma-10">
          <mxGeometry relative="1" as="geometry">
            <mxPoint x="310" y="307" as="targetPoint" />
          </mxGeometry>
        </mxCell>
        <mxCell id="_Qa4FRTeHyNOR7-FeHma-10" value="" style="shape=image;verticalLabelPosition=bottom;labelBackgroundColor=default;verticalAlign=top;aspect=fixed;imageAspect=0;image=data:image/png,iVBORw0KGgoAAAANSUhEUgAAAfgAAAHtCAYAAAD1M2xXAAAAAXNSR0IArs4c6QAAAARnQU1BAACxjwv8YQUAAAAJcEhZcwAADsMAAA7DAcdvqGQAANFjSURBVHhe7P0HnGTHnd8JRsTz6TPLm66q9t43GuiGISwBggTNDAFqNavZmdUNuaPbPUkf7qxWc/dZAJ+924/2dPpo53ZvJIykDyVqdzQEZkgOhwsSBDkNgCAI00AbtLfV5asyK30+/yIu4mVmo9DsRrvy9f9WxbORme+9ML/4R8SLwAgAgDnhT/7kVW1g15ruvtXdO2nA0n7ANMunxKQIVW0PWX6APA8hL0DI8SlyAoo8fi7g+z4NEN9FlP+Jfcq36xv8v34C8Y9y/9wHP8z/P4X4HnE8/JhYEISk8Ey4GaLwA4rYaZwQmwohSGnsEEksxJp74GuJ7zfPyUTi+/XPG3yh8c+JfY17iMgKiukSMmTCzyEqEWxhhnJXRsaOHHn9LyZefPFFcUUAAMwxIPAAcAe8dvRoNIZQFNUQmuD7tSoXbbEj1oFLXFOTcFRriaXaPucHdC31aZsbMMPyGDG54pouCwXe4SLs8v0qY6jGFZsfRixgobAL1Wb8uBB3xsQ+PykIhZsicUgcuaqWjdMCxv/E8fB84zjXYoRnpPhwX2QBjWP1fe74hthubmBJ+CGIazj/PN8O9Z6ExzW+HefrKF/L3I/Yj8gSiqj8GF8bCg5kCZuShKcUWT5fNvNvsFKhFJNUqmqUxcKHGEViHYuKHxX7/JopZbaqBiOnTlWfe+45t34GAIDboZG0AQC4Ed997bWo5aiGSxXVrjqKj6m0a9uWnkw8ssnkolzi1njJpqhkBqjm+rjqUqlmsyi30tssJ1jtuEGvHwQZbq1rdkCJ5TNkC4udK6/HxZ1/FJlchMt8n2t+XZW5sNedWNXXdbVuqLpwgtlOweH3Nr5ciLkQeS7adeXnxYHGuu7qtQAJglGEe9P4MZWLvR46Yb3zfYIDRcGOIpFpXZOGI5o8GNXlbEwhVlQnQVSVWSoioaROUDKi8AKChFSFFyAw8WSJ1Gw/OPvRyY9HkuUREHoAuE1EcgUAgPPaa0ejqsoUx7GIMDkty8QFG8mta7duqDp0S8H0ust20Fp1/JjpUMWxfcXiJrfDLWsu3NwSZ6E17lEmeQHTvAAlfJ+2Boilg4BFuGxKfsAw13fkc9HmGs+N8rql7fG1yzfE9lWRFWvhRCoNj80Tzd+6Xu4gjoXH+YL/c11HGl8oXNzFNuFrmW/IYs3Pc+ud8U1fwtgkBOU1WZrmGl5WJOxw8WcaIYz7CQsEGi8QRDQJRTWJxXTJjehyJaFJk0mDDEUk5ePpobODnQk5iPCH6Uf5AzYM6k1N2U8//bQjrggAgE8TJlUAWMlwCxn/+x++kdy+Z++2IKBdlkcN26Fy2fGVyaofn6h67RNVv3ey7Hblq26maPlGqerLpZqPuT/EQgt3RlLimsYXEiNI5WJpcNWL8JRGmqlNGOQzU94taffM718Iwov+bD51hdz7NfsUUWbygxbfcjFmvNyD618qlvz7cYBQhFvyibhMUxE5SEXVWktUyXfGlbHOuDzK3WRbVKklNNnTNcXXFWzKRBr64OgvTn7ry182w+8CAOAqC5xrAMD88fzzz5O1Bw8aOAgks8rNRU7gOaTqRrXYmo33c8t8W9EKuqq2H6txC73m+nLVCSIVhyYrHk1X3CBpCvH3uPXuBcR2uTUetovzr5qZksR22LjNJZ4LfbgdNl5fw28euQHc4y37vQNCgeWu+RvX+61QisPFzbmeN9HOIP4QF3aERUVF3ZdYXnUMKdzs11TCdIVQ7ryISsy4IhdjGikkFFKK68SKqrIfNSSPC305beAxQyFHnYnL71Mz8CJRn0ViHou7CVZIet7vP/KILX4GAFYic5ltAMCiQAh7bO1Bo6OjI9o10LujZgepqs1Ux/Jkx6H6eMXPjNecAW6tD4xX/Q4u8pGK5cuWH5CAIpkyrHMDVKMYa9xel7k6hemm2XntuoQ+xOIzTO/FkvqaAisIL7m+eVfc8NmIqoAZJ5ubMw6JJyYcLx0xwstQBDGHl5BsXlKyZQkFhiIFMV3yW6NSrSOqTHTE5Ss9UeVyW0wrRnTJ1g3Cz8uOoZFc9tKZj81xx/z93wehB1YeiyWLAYBZRYh6d/devShRCUVa4y19A/tyVdpXcr3eksOtcSfQPSeQfY+qZZvGi27QVnL81hLfNr1A5VY69n2GubiLqnWuLdwaF1Z46Bo/IjaWQwoS4toUWHE/C3FPn7qGxkZ4jBcIqKi/R6JKP+Biz7iVzzRZolGVuCldKic1KZdSpVzCkKuqJrmaSnx+3OIun1LloaRKBgvjEx/msxesgWibD2IPrBSWQ/YErHBefvllaXw8JucTkziRj2Da5hCmb4zHOnp3Fipe23TJbi9afv+kFfRmbb+j4LF4xWUa9ahEfUoChjSfUYOvoz5lCrfaEeUyHvZev0oo7o3N+mrZ8ClxbbjFQPOawnD4JDBECYvwa5T4QVnCnoxQVcLYkgl2iUKowgW+RZHcjI5Lrbo8kdbJSMpQhlJJZTITVabyudGjTnbSSqQsljFNFo1G6bPPPuvxstvV3wCA5cByy6qAZcyhQ4fkQYTkyNRUGG9HuKOOQ1pX3dMm6en103YQrTq+VrWoUXK8VMWhPVXTa6uYQSu32NtKtp8p+CxuBlS3AyQxSgniVjqrt4/LXNIlbio2LPTrJI3lmlqulbXFdp/Xk92G3mOxwS17vumHJTJu3UuE0LiCgpgs2XHRbi+TfMwg2ZguCys/y7dHE7pSihuSldRkpyUmVe2ydXJw8I3iC7/3ew4IPbBcWK5ZFrCMEMJ+3LKk377/0QHK2IBpU71Qc+VsxZMHc5YxOO1mrpS9zpGSF7cc33C5gPsBTbgBTvmMJT1KY75Poy5CuhcgLWCMW+08DxdSLjq8f2K+fiLuKy1lXH0EjfViR1zvVaP+6kb9+rnki9f2FIIpt+xthTBbxqTGLfyqQlBRkUhRlUhF1rAd1WWrP6WW+lPGSF9KHiKV7EcT1vnsi/DOPbAMWGnZGLBEEKKezWbJMGPSEwefXu9StLFi+b0lJ+gu1LxooeqqUxVfGi+7xmjJTlwp+cnxihe1faqigIkRVTVEsM7tc41n+Aq3zLljRLSk82g/I95fkwQgRSwdPpH1GczUei78VBThMOXbHj/nYYYdRJmFJOJggj1dJW53Uq30JZWp3pg60haVLqTj6hXsVI5ZH34whVCUdncX2De/+U0fLHtgqQHZGbDoeOmll5QHv/x3N1p20Jur0NaK6/WWa97qsZrXPVzyWrjlHpnm1nvZCqSaH8hVN9ArPtVrHlMoQxJiVLyeRnjWLqrdhaQ34nnTQm/CdyAFLC9CCZ6hw/X9+gHRWU+8ooeRz4/xNaGShP2ohJ2YSqpxmeQiMh5Px9ShVES50hKXJ1bF5GpnQqlqxL1w6effHXvhhRcCEHpgqQDZG7CoeP7ll9X7tz26x3TY3umaP5Ctup1F02vjVnv7ZDVIDVec2FTNV8vVgDgeFS9UC/NM4muZimHUmKhzF/l4M26L7ljXAWL+8ua6EiwONsQ+fCefRwIu1oQLP2HI4aVCk+t+KWHI05mYnGuLysXOqFri61IyIo3qunIlquPT/92jfZfE58LvAYBFDGRzwIIiXmfbunVrGA9/OR6TezduPmg69EC2FmyfsrxV+Zqfsdwgbjs0WnGpXnKpUvMCLMQ9uDqLirDMQwcxGrh1mhItNJ9yi15U6GPmqhK2NEWqRVVsxxTJjMq4qmtSNqpJwy2GfDqG5V/3Df35yVNbt7Jn+cdPnjzJuGUv+mqC6AOLCsgOgXmnKeonazXlwQNf2TBZ9tNj02ZsuOCmczV3c970t03WgjU522stuzTiB0ijAZN5HkwCno2KYdCoEPOrObQAxB24TUT0aUahpjYzJt6Q5A75RIyhL3rnY27dE1xRZWmqLSJdblXR2ZSmnGuNKZXOlOb0txpOS0SZOvPqyUtbt2bZs88+y6MniD2w8ECWCMw6Ymz3xibils2n4ljm3nuVnesObDk/6bSez5tp02GrilW3tWQGqZLlpYtO0Flxg+6qE3TUAmrYAQprUHlG3PgevhJbYK0Dd0tT4JvxqLkOpZmGHfTCPfGHsSNJqBKVSS4hk4mYSqZ0lVQSqmylI3ItHZGyhkaGuzNacVVKm7xsnjmL3nhDlEWvIqz8xqaocLq6DQBzBWSRwKwixP29996L7969f20Q+IaPkFJyAlyq+iRbc9VcNYhP19yBjyfMjuMTVttUyW0pVryk69NogHEkwCzmM5zkoi4GnhFt63VETP0ke6zvQ+wF7oaZEnttXArPzfAgJuTHOJAYMrllX+GWfZWLtCMx5ioIWRFVLral5OnetJ7d1mlMrm0xBntSarUtpnnJqERTuoz4P5Nl5ElMrr7zzpvnH4Fx8oE5BrJIYNYQ4n7x4sW2tt7+/TUr2Fi1g3TF8vRs1SPDRYeMll0tVwniuaqXuVJx0kNFN1mqBVHLEaPIMQWRcLAZlcdKviak8bWNWNqIqiLPbcba68Xez8q0AeBuEHGLiQn5sce3uRMz4oVt954iYSuuS9VMRCn1JdVCb0rNt8WValtCdVclNdqXVFBLRAkMXbaiqjRtqPjUxbMn39m1a1et/uUAMPtAFgjcNULYz58/39o7sG6D59PVJdvbk6v4A1MVJ5MtOvrgtEVOTzn4Yt6WC2agldwganvMsBnVfFofeIZHRTHMeGNS1bCBnTMjeorNm4l383yzEHA9PwBwN4RxjDER6Xk0rVfjYx5xGbfuMXNkgh1NIlZUJmYqqtjtcTnY2KqzbW06603pNJNQrHRcnW6NKpfihnRYw+TKqVPHT4LQA3MBZIHAXXHhwnh7vK1lXcH0V5l+sK1Y89dwC71/vOx1ZMtuPFt2lLGSg6+UXTxR9XDFYZLtU4Vnj1K99/vVSVwa33gLzBR6wcyPinMg8MB8IwRfyH3YF58FBCPPUEmQMCTWm1TZmqSGuuIqa00obktMLXcmlPG2mDKYicqX44Z8Mq6SoanR8pkNG1rLjW8EgLsGskDgtimXy62xWKyb63KiagU9YzVn83De7hvMOb2DWbtrtOy2coFP5Gu+UrB9XHV8bPoM2dzxfxTUB6Lhot74QrFxOzGxKeIC8blrPzvzHADMF2G85Iu62DNJIkzhSq/LBMVUjBKaxDIRibYaiteZkIvcos+tb4+Mr2s3RrqSypVMVDqjStIo/5byqVOnrmzbtq0afi8A3CGQBQK3xVje7EcS2Vp26KbpmteRq/mduYrbOV50O4bzVvpKwU1MVdzItBUoZZti06PIDbhZIyz0UIwbUe5uYt7NBB4AFopmvGyuG4goqssIxRSCUiph6YjsdiU0c6BFK69u0fNdSW2yLSZPtMSUiUxEGTdU6czw+RPv7969u1j/BgC4fSBrBG4KpbTL81CrHfjxadNfX6j4e05lrf4PxmttZ6ecVK3mJWzLi1XdwKj5TDa9gNgBwl5Qt9jrI4Q2vkxs3G2suybzhFgMLBqujZszkHg8lbnTuFWvyYgZskTjquQlNGJlInK1PaGWN7dHCtu6jan+FmOwNaYcjRnKWUNGlQsXLoxu2LABqu+B2wKyRuCGVKvVzqrD2iRFWWt5dF3ZDjomSt6qwZzd8/GU1fmr0Wr8TNaJ+KavsIAqlOdh4g14MUpIM58LX1+HWAYAdXhhVyQH0ijzEsaYjDCNasRLRxV3c7th7e6JljZ0GhOr0tpwe1wdiWvSpKZI5xi1LpWy2bG1a9eWwu8CgJsAWS/wG4he8UXbHpCwvLtsBtuyFWfVaFFMx+pkLmetzIUpJ32l5MSHa56SNQNCfSqFbY8iNl1bBX87necAYLkj0km4rq+QeOmOH1O4ea8rJGgxpKA7ofprMnp5U4dRWN2i5XvS6nRHQhtvjapDMQN/PHT58rvcms82vgEAbgjkvsCnEOJ+bmhydTyefqDqBntHi866kaLdNZhz0penrciladu4nHO0nOWrYsJsr/6xeoY1G+3rALAcaQr6zLQhjoWubtWL5KMIRxDrjqvexjbdXtemW/0tRm1VRi/0ppSxzrh2LqaRw1fOn/zFnj17QOSBzwSyYiAcG/4f/IN/0M43Y6aHYi6J7R8t2vddyTvrLxXsnsGilxovu3qu7MnTVVfK2z6ueWKabf4JkSuFLvwqAACupSnuTWamlea5cM0XDcFPaBJqNyTaFleDTFLxuxOa1ZfSimsz2tDqFv3cqoz6LnXMw6ou1dxyudjX15cX3wAAM4FseQXz8ssvS/fcc0+bzZRkW2vrtloQrCpVafdI3u4/M1FbfWbC7Dlb8JJXqp5WsX3J9SjyfIY9ngkFzapGEYUgFgHA9Wkmk5lcL73M9MfTluiQJzrjKTJBqkZYMqIEq+KKszmt5rd2x0a390QudSX1oYQqjekKvlKs5k9Wsk5h2zYQeuATIGtegRw6dEhes2ZNO6VKMtnasidf89ZOlN2e0bLXMVJwWofzTsvQtN06UnISozVfmXYCJHrFh+2HIiMCix0Abp2Z4n2zdBP6baSzMK1xx9XeUCSU0TDricreQMYormvTc30ZY3pVWs11J9WJ1qg0EtfVC241fySfzxc2bdqUE98ErGwgm15BCIt9z549LXoikUomM/sqlr+2bAYDl3LcUp+w2s9OmsnzWSs6XvGNkhNErCCQLC7sXN8bE2s1ogvEGgCYG0JhF4sGIq3xAjU35pGYpMGQEIqoxMtEVWt1RjO3dBq1DW2R4tpWbbI7qYykDfVKXCPnJyZyH1awW9y6alUBZq5bufDoAqwEXnrpJeWpp77Sn2htf8ilykPTNW/3xZy97dSEuf7jcbPv+Git49SknTyXtaOjZVcveQGxAozFe+xh7hCK+o2UvZl/8PM38gIAwO0hasoaCYpRhnzubJ+iihOQkumrfK3ZLopWPT9Rc4KU7dE0pSzDCwNt8US0uzUej5dLhYphGNU333wTRH4FAgK/AhDi/sBjTw/EUunPl2xv70jR3nExa284MlLt+/Vgtf3YWC15YdqOjFddpeJTyeO5CsM8mwjzFyHajYymntfU9by5LZih73W/AADcEWHy4Ysw3YVHPilhi/16WuTpE2GPUlJ1AmW65mu5iq/xdYwyliQEpxkiKSLjhKpH4ms3bZjKJBIg8isQEPhlzquvvqqt333fmkii9enxsnPPlWl729lJc/XJ8VrHx2Nm8uMJM3Kl6MjZmoerHs80xBs7obiLDKWZqTTctVx7LPR3PY8AAFyXmZLbTDphOqpvformce7Ex7wA4ZpLcckOcMny5LIdaB5luhOwmOWxhFh7AYskjWhs7cYtk23peAVEfmVxvWgELANeOnxY2e66cZLo7pSi6adGi87eoZy9aShv9wwW3PiVsqNP1wKct31kiZ7xgZgKq8FM6+F6NLOIpp/rZVIAANwckXaEa6ab66WfZvoSbfMzzzeOCytNlbBom0dtEZm1xVXam9Ts/pRS2tBmjKxrN053JdUP7FLup045m9u7d28Z2uVXBpAdL0OE1d63fu8qNRW/d7zobLicdTZfmDLXX56yegbzTnq06kgTNR/xwr+o6kPC1WlsQKwAgPlByGxTakW6u1HaC/01PIZ++EKsw0N8wf/Dj/OFJiHWGVVQb0LzN7fr+a2d0ZG17cb5VWn1ZEtCO1vIZt/dtq5nBER++RNGFWB5INraN2zYEI13bei0pegTF3LWlnM5ew0X9lXDeae9YPqpkuOTskdx1RfTVjc+GMYCvoDYAADzy0yJvVn6u5Hf8DhfNM6LHvdi1rq4KqFWQ/Y7o3JxTas+ub7LGOLW/MVVqcgJz8y9PnZ6OHvkyOu1F1988WrlHbC8gCx9GfDyyy+r6XTaaF+7uTMSTe2fLLhrTk5Zmw+P1lZ/PG52DGetdK7qRwPMCCWkbrXPDHqIBQCw9GmOU8ERSVrY5ySgTEGY9mXU6ubuaGFbb2x8Z5dxaU2rcbo1Jl8wy6X3zh67OA1CvzyBrH0Jc/jwYaVSqWid67f1IKzvHSt4fcMle93laafv/LTdc3Habh0tubGi6ek1brUzjBud5/iHoTMcACwvQnFvKHxjJarpCGUspUusPaFaAy16dW1Gza5t0Uf6W/WhnpR6oSupDSqO/f7hw29nn3nmGQuq7pcP0It+ifKdQ4f0/du2re7sW/c515fuuzxp7T01Wt3+wVB1w/tD1b6TE1Y7F/dkwfIVl5vr4Wtvou4uFPaGyAMAsHwIk3YjjTfTOU/zjGDscqGv2IFSrPr6dNU3SpafsD2WYhi16LLc0tZidG1Zv6ElWymZMV2H3vbLBBD4JYZoZ//mN7+p37vngU1WID16KWvtOzlu7vhopLrx2Hit/2zObh8pe0LYDTNgxOfKLhL4Jwmff4lwAAAsb66mdS7yfBHwgr7PDXo3oKrpMa3kBrGyzVK2F2R8j2V4XpFOGkZ6196d5Weefro6MDBAQeiXNiDwSwRRHf+lL31J//rX/7NN7X2rP1f22MGhvLPn+Ght80dXqgMfjlbbT07aSS7ukYoXKA7FhDYVvSnsAACsPBoiL5xoZHfF+/NeIOdNquWqnl61/Zjj0QTCLGGocjweNdrWDAy07H/goKXJcglEfukCAr/IERb7t7/9bXXfvgObO1evu3+q7NxzOefs+WisuuPISG0tF/ju81k7PVRwo1Omp9R8YbWLKnnx6Yawh9sAAKxYGnmAUGrKGPJ46d/xKbEDKrs+0kw30MsOjRacIF5zgxRjLKFKUvK+vftLkYhWAJFfmoDAL2LE++y/9Y1vbOpdNXDApXR/tuzuuZg1dxwdrW44dL7c9+6VavvFnJ2YLLtKyQ2IyxMtnSnoYLkDANDkar5Qd0KxuTGPbT/ABdOXh6u+cbngGiU7iGkEx3QJRxNxPXbw/vvKhqpOg8gvPSD7X4SIWd9isZj88OOP7/E8dF/VpRvytaB/cNrqPDZSzZyYMOMfjdUiQwVH9SkilDLEuJhfHbAGhB0AgM9ihlRjbtGHr9RJiKkKYevbDPu+7kh5V09sfFt35ExPSjsi+cGrP/3Rn5/75je/6UMv+6UDWPCLDDFX+9NPP721b/Xqg46P7iuZ/t7hgr3pzJg5cHSk0v7u5Urq9IQVnax5iumJN2AaabUp6qGwg8ADAPAZXM0r6gjjgOclohMedt1A4ha9UXUCjfvRCCG6EZFTu+/Zkw4Cyd+zc2vplVdeAZFfAoAMLCLEgDVf/erX93mI7qk5wdZs1V89WnRWXc6aLWfHrfiZKUv9eLwmTdV87PGgC6vjZyazmZY7hCwAALfCzDyEW/PC6lO4609pwa6+WHF7T3RiY0fkykBavdwWV86mDPm8hqTzuo4vgTW/uAEZWCQIcf/6179+wHbpwbJDd4yXnbVnJ632kxO1zMWcrV+ZtqWxskemqh6qefTTYn6VxjEIVQAAbhch1c3R8Pg6oUmoJ6kFfRmtuqFdz69vN3Jb242R1S3GldYYOaUR9K6qqidA5BcvUEW/CBDi/qWvfvVeLu6fK5j+3pGis/HMlN1zbLSS+WC4apzN2vKVohfO/OaI9NcU8VDkZ7rGcQAAgNslzDuaGQhGPhf5shuQsh2oFYfplh9EMcIJiaCkREiMSFKMoaCqSlIOOuAtTkAOFpi6uH/9vrLpfm665u0bzNnrTo5b3ScnzOjlgi0Nl1xSsANUdSnyRYP7dS13AACAWSKUamFJhHtIkwlKGYS1RtVgIKE6a1u08q5VsYnNXZGLq9La0bgufaRp8mUNobNgzS8uQCoWECHuT33pq/u5Yf7IWMnZczFnbvh42Oo5PFiJnZyoSQWHIpunMp8nmeCT9AahBgDA3DJDpoVNIXOnEox0hGhbTPbv7U9UHtiQmNjaExvsSigXWnTlNCHSe1EVHQORXzxAFf0C8Z3vfEd/+reeu3eq7D58OWfvOzlW3XBkxOw9Nm7GzmUtaaTioprHxZ37Dad4gip4AADmi2ZeIxyXa/EqrsetDMuj2PKYxG0PzaHUcHwW9T2WDBCKKxKL6ERyCUETUGW/OACBXwDEADaPPfXVfRXXf+RSzt5zdLi64fBQtfvwcC12btqWclZQb2sXk8MQ/gEh7oLGCgAAYF65mgeJ4W4xqvmU5ExfKZuB5lIaIQxFIqqsR3WsPvi5R6uKhLIg8gsPCPw887133jHu3Xff/uG8++ip8dq+46PmhqPDlZ7TU05ssOjWxV0MXCPUvDn7m0hbjfQFAAAwr1zNf0ReFE5cg8TsdDVXWPOBbPtUtz0a8X2mBpTJskTkJx5/rKJKCEa/W2BA4OeJQ4cO6S995zsbetNt28oWe/joUGX3W+dL6z8cqvWcyTqx8ZovVTwatrfXE1L4MQAAgMVBM08Sa1HDyJ2YuKbiBNJ0zZeLpk8sl0oJjaCOpEoeefARU5JQHkR+4QCBnwd+dPhwZNe2e3bma94D53L2AyfGazveH6qt+/BKredS3olNmlzc3XpnupBrxX1m8gDhBwBgobhG5MWbPSY3TGqOj02HynxbJoTIEmIaP5e4/4GHpf/hhT+WYVa6hQEEfo55++2345vWbd5edNmj57P2nrcvVTb9/Hxx4OMJq32s7MTKLpOcoNmRLvzIdUScpwuRNMLjfPEb5wEAAOaJmfkUdyJr4jqPXT+QTDeQy7av5qpBhB9PJAzSoSty4uFHHnU+/9jD+f/wH/5DmNUB8wMI/BzyQy7ua1Zv3mEy9cnTWXvv0TFr03tDlVW/Hqq2jJecSNVjYga4urgLGgnmM2m2yQMAACwU1+RV4RS0AQqt+JJDtULNjRAJpXSZpCVMxKB4qc5VfbV1/atyP/7xj0Hk5wkQ+DlCWO7r123fVnClJ85kzT3vDZkb3hup9lzIWfFcxdU8iohowwqZKdrXFe/G+fBcYxsAAGAx0MjHQkseIxxQKjsBUzFFEc9nUW7dRxWJ6boiRbdv315a/+xvTf/4z/4MRH4eAIGfZY4ePRr9py++2GekuzZXfOnJk+Pm7qMjtQ3vj1V7jo2bcTHvsu+LuM1VPRT2hmBfK9oz98Pzwp9w9UMAAACLB54xETFlNUaUIswNGMn1qFyxfC3gQk8x1iWMtLihxjcnEuWN657lljyI/FwDAj+LHDp0KLZ5x47NWNYfnq6x+09PmtsOD1fWfTRqdl0u2PGcmAXOr8t18z90gqY136R5HAAAYNEyI+MSBghHiLx40ZcLO7Z9JpsB1US1PRd5JaIQJW7o0bVr9OL9B/YXXnnllSD8EDAngIzMAsJqTyY72qLJaD+TtEfGis76k+O1gaOjte53h6otZ6asaNUPsB3w5y1mirneUweBBwBgqSHaGZt518waRn5MWI9iiFtNJShuSHRXd6z88Or46K6uyNmBNuNDGTk/+eCN108+99xzbv1DwGwDFvxd8vbbp+Nbt67ZaMQTj5Y9dHAoZ+04OWZu+Gi41nN83MpcytvRqZqHPV58rX9iRiL4LG7FDwAAwEIj8qowv/p03hZa8VzoxVtCps8wDajqBUj1+VomSI1pWqx/TX/h/v17wZKfI0Dg74J33303sW3bxl1Y0R4vmt6eSzl767Hh6uoPhiodH45U4+enbV3MBOeJsR0FM0u41yKOz3QAAACLndBuabiZ+Va4LY41DlKGbJfifMXVai7VuO5rsoTVRESNrV67unT/PXvzIPKzDwj8HSLEfQcHK8qTuZq/a2ja2XRytNZ7eKTacnLCjF0uOFLW9Lm48xgu4vhniTsAAMBSJczf6pufYuZxruhispqqG2DXo6rPkEYpVlRC1ISuxvpXDeQfOACW/GwDAn8HCHHfu3f/XkmSniiawe6LWXPj0aFqFxf3xPExU79SdlHFY9gXvU2ak8VcLwEAAAAsd8K8r54Bijk2fL5TcQK16lEN+YEqMazFo2p83eo15YP37Z0GkZ89QOBvE9FT/v7779/tBYEQ910jRWfDiZG6uJ8cN+VLRQflbcrFnXueOVkMAADASqUp8vzfo9yS5waQzUU+oEgjjCq6JqmZuBFdu6a/8OUvPjUNI97NDiDwt8Hp06fju7jpzhh7tFDjlvtUbcPxoWrn+8OV2NFRkwyXPVxxZ4p7/XMAAAArnqbIcyeySPEaneVyS95lmoSwqspEixlqrKOro/KVp5/KgsjfPSDwt8g777xjbNu2a6/r089V7GD3SMHZcJxb7h8OVWLHx0xybtrmlnsgqp8acRgEHgAA4FM080Su8H6AUJUbRKbjq/y4KmGsaSpRMhE91tnRXtq4fs00DGt7d4DA3yJ/+qf/ZqvL6APjJWf3mfHahg+Hqj3vD1Xix8csMlLxUNmlSLzmflXcBSDwAAAAn2ZGvigs+fpENVSrOlTzPKpyUVJ1TYnu2bGrsnFdP4xdfxeAwN8Chw8fjkQz7TvKdnD/YM7edJiL+7uXS/Fjo5Z8nlvuRS7uflPYm5b7jEgMAAAAzGBG/ihG7i47FOernuoFVCOIqRFZtMlrsV27dhS/+NQTOaiuvzNA4G/Cq6++qt1z4MD+ibL34Okxa/uRkVr/kZFq5mzW0iZNH1c99slUr1AtDwAAcGuEeWU9wwwteb7DGFItbsVTxBQJI9VQlEimtaPyW888BSJ/B4DAfwYvv/yy+oUvfHmb7dMDF6es3e9frKw7PFxpPzFhRQaLLql6FAVXLfbGGgAAALg1wjyznnGK8cAsn+Fp09ecgGkyY6ouY6U1qcX6e3tL0aeemH4TRP62AIG/AaG4f+UrG3MVX4xQt/vYSG3j+1cq3dxyj01WfbkixF14FMIuImhT3JtrAAAA4OaEeWY9DxVD24qRP1lANSe05FG9d72uxu7rWm098ciB6XXr1rE333xTGP3ATQCBvw6iWv7pp7+y3XKCfZdz1s5jw7XNH12p9H00UksPlVy1FjAsIuLViBlWMDU2Q8EHAAAAbplmtolZOH+Nyy35PLfkXW7Jq7KkGirWYzpO79i8KfPE44/QrVu3iqFtQeRvAgj8NQjL/cFHn75nsuocuJS19hwfNrccvlLuP521WodKjlHyKLlquV+tnhcHGmsQeAAAgNtnRj4qOt45PsWUMY1SpFPKdCKRpCKjJMYksnXrRleRpCmw5D8bUKMZPP/88+SP/viPd01X2IOnx6v7jo1UN348Uus8NlrLTJqBXvIDyREtQOFTazw6sQqjmFjwHXiiAAAAd0ZTrhvT0BoyRhmN0PXtRm1fXyy/pzcxvrXLONWf0Q4nDPkXhJBzjU8A1wEs+Bn8k3/yT1SS7Lvvct4+cHS4uuWj4VrfqUkrM1R09KJLJb9psTeFvCnm4XbjGAAAAHBnXM1X65mpaAqteQw7HlX4SqOIaYpMJFUmAWE0t3/PzstQVX9jQOAbfOfQIX3HjgcfOJetHTgyZu44MmL2nxg3MxNVR6v4jNRHqOORDoagBQAAmHsa+axQbzFBje0HkukymTFGZEKQrhC2detG8949uyZA5K8PSBUnbHd/4pn7L+Ttz713ubLvvcHqhjNTZteVvBOpcXHnpUb+1xB2aGMHAACYe2ZItsh2Ze7ShkS3dhi1vb2x0Xv64qd39EQ+7IqrP0tGlMMYYxD5a1jxFrzoMb/noc8fmCi7D52dtPa+P1Rd+/G42TVe8SIVj0n1eQsb4n61PNSMR83jAAAAwKxyNW+t57eUr3zKxHzyiu0xVVOwnDRkNapLWsCQayhkHDrdfZoVLfDCcr//sScPTpaCR4S4Hx2urj82YvZcmrajZZfWxV1EstBqnyHmM/QdLHoAAIA5ZIZkU4qQ5VJccwIVE6JFdEmNqJIWUSTj849/zlYIiPxMVqzAizb3hw4+eu9E0f/c6UlrzwdD1fVHx82eK0U3WrB9ScxZHIp36PgHZur4zH0QeAAAgLnjmiw2YAz5DGFugCkeYxoiWIkpkhpXJfmBBx6ydEWaBJGvsyIF/jvf+Y7+1ae+dN94yXvk7JS194Phyob3rlR7zmTtaMHyJTd8FY7HqlDIr4ld4W544jfPAQAAALNHM78N82Ph6vuidtX0GSlwS54GWE3pRE7pEtG5Cf/EI49VJAlNg8ivQIH/3vfeMT7/5afuyVf9h09PmXveH6mtPzZe67k47URzNa8u7oKrESvc+zTi2PWOAwAAALNLM78N81y+EGsu3dyKR26AsIKQnJCwFJEINlTJj+qoPHT50nmYZnaFCfw777xjfO6xfXtzZffRwby99/0Rc8NbVyo9Z7N2rGD6kheOP8uZGZEAAACAxcHVvJk7xsLp5yTGCAqYhBklcU1icUP2du3dW75n1/bJlf763IoR+EOHDul77n1wk+nRh06H1fLmho/Gqj2nJ+zYFLfcPVEcFFyNQOEeAAAAsJho5s0im+bZNneYBlQKKJKIhIhECI6oRLtv187qjh1bsytZ5EljveyRZdkIqLunbPlbTk7Za14/X+z4aNiMFaqeRD1a76kZtqmDuAMAACxqwjxatMVjVOXG2WgtICem7OgvL1c737pY3jBUcPcyTJ949tlnt7/88ssrtjP5irjx1157Lbpm695t2So9eCFrb/v1lUrfr4aqqfGyo7gew3VxFw7EHQAAYEnQyKtFQ7tLGXICRmw3UANKlZaIKqcjCuYWrLRh7Ya8pkmFldjpbtkL/Ntvvx3fsnPvdovKT35wpbrrzfOFNcfGam2jBUd3fFavwQjFvbEBAg8AALA0uJpf4/AdeT9g2PeRIjMm04BJikz81qTulAu5i3/5l38Zjji+kljWAv+jH/0osm33/m0WVT5/JW/vfn+wsu7XlyqdQ3knWnIZuTqn+6dewQAAAACWDI18m4n343mmHvgUUYYlIfZRjbB0VLbX9PdPHdi/N7fS2uOXrcALy33//oPbbaQ8dX7K3HN0uLbh6Git+/SEGS+6FLuiAya0uQMAACwbhHpzQx67lEkWpXJElUhCJyQa0aObNqwrRnVVvB+/Yl6fW5YC/9prR6M79mzdQmXlydGyu/v4cGXj4aFa1/mclRgue9gKEKZNix3EHQAAYGkzIx8X6u1wE94JkKzLRFYJlqOaLLfF9ei+nbunN/xnzxV//Gd/tiJEftkJ/NGjR6Pbdq/f4iPl6eGis/v0uMnFvdp9dKyWGKt4uOwyHIZsKO6g7gAAAMsDnp83DDcx0nhAxUygVOMGncqFXstEFTWdjMZXG5HC7/yd5wp/tgJEflkJvHjXffv27Rt4ue2JqbKz+9S4uenYaK37CBf3MzkLVxyGxRtxV8VdrAEAAIClzzX5uaiut3yES26g6bKkpgxZjShEaU1GIpGYMR0zDNGzflmL/LIS+D/+4z/uiKXbH8mb7q4LOXvz4cFq95GRaurStIOnrICLOw/yprgLQOABAACWD2GeHmbyocALg87xGJYQ05iPFIUgJRmRSVsiptz7wMGpPTt3lpdzx7tlI/CHDx+OpNq61zlMenC44G47Plrr+/XFUvL4SE3O22Gnurqwg7gDAAAsX67m7fUNyhiy7ABPlz1NkpDcmdCklCH5MVUJGPWHXnrpJTv0uAxZFgIvqubXrdu8QY3FnxgtODvPTJlrjgybrVzcjcGCjWzGQ1q88d6slgdxBwAAWL7MzOO5wNsuRRXbxxFZkloiMo7rsq8rpGJEtcED99xTWq5W/LIYqnbTpl1dajR6T7HqbRrMOf3Hh2stZyZrkbzjo4AQXLfaQdUBAABWDDOzfC4DPsZ4suZqH49Vk8dGat2jRXdtNJI5sG3btlTD17JjyQv8q6++qiEFtxVsuna05PRdzJlt5ybNyJW8gysu45Y7D+UwoHkBbdm2tAAAAAC/QWjbCQ3AiPLVtOXjU1O2fmq8lhkq2H3TNWe9Ek13Ltfx6pe8wO/Zc7CHydq+0bw9cGqs1nlmyhbvuqt5O0B2wBCX+Dog7gAAACuPUOSFBGBU9hgeLjrqmZyVPDth9VyZdjZLkeQXDhx4eM1yFPklfUPf+973jI6B9euKNnro7IS5+dhQtefEhBkbKrty0aFYzDT0KZpt8ABwp8wsKEJcApYiIg7PjLsrIU437kv0qrd8YfZhRZOJZChYTuiy3NESj3at6srHI5FlNSnNkhV40bFux54Htldc8vi5idrOY8O1gSOjtZbLBUcX4h72mg9DVYRlwzUPAcBsAfEJWEqE+eIMhb9e/F2ucbpxX+LuKTfnLSdQfZ8pEYVoCZ2oyUgkumfH7mIsZuSXi8gvSYF/6aWXlKeeemqrjeXPX8pae44NV9cfGap1npwwoxNVPxxn/qqoi0Cd6QDgbmkmfYhTwFKiKe6fkq5GBF4pcbpxb45PUcH0ie0yLaZLasaQ1agmK63pmHbvPXtzmqaVloPILzmB55a7/NQzz2y3mfzwcN6554Ohysb3B6s95/N2PGsHkk15EF59JU64+ucAYNZoximxhvgFLAWa4i64Gn9nRN5mXF4J8VncI38UYtwzQhjGDOv8mBxTZSkTk1k6FqE7dmzP/vN//s8r9Q8sXZZcJ7uHH364z6NoZ9H2t46WvLWnp+zuo5NW4nLZk2oixKSVEkuBBaEZtSCKAUuFpriLdbjNaYr7p4411isBfv+iJb7sUHw2Z5L3h6rxs1mzq2QGq72ArTcMo42xq120lyxLTuBrLktO14K+c5Nmz8fj1bahghMt2D6xAxrOInTVal9JkRWYe5oZoXAz41YzcxTM9AMO3EI7Qbhu7FzNF6/JHK8eX2Hwe3a5aBStAI0VHe3SlJU4P1XrGi3Zq6mk7Mvlcl0Nn0uWJSXwzx86JFtukJ6seN0nx6zWo8NmdLjoSGJqwKsl0jCyNmJs4xAAzAqfyjz5gs1w4YIyxMCBWwQurIBuRE5uis6MqAiH6zqNrHLFEd4zrg9j61Gcr3l4cNrWT43UMley9irTQRu4Fd+x1K34JXPxou197bb9u4t28NixMfOhty6UN30wXO0YKztGwabYC+Msv52VGFmBuaeeNdYJ41h9R2yqEmISJhRTGvDCZf0Ez1bDNQAsBGEcrWeGQt99vuYOC9nnBQCCKJL4aWEYcU91fyEzNlcEYVkIoZiC0eq0Srd1Rs2Da2Kj961OnuhrVd/E1P1pWyJxgT+mJZmel0RwigEIvvKVZ7dfnrYePTNRufeDwdrWd4YqPScnzETZo8Thj76p7wAwJ4gIdm0S5/FNIYjFFeLrRLJ4HmBzLx43kERXz2t9A8A8IzLEeknT5CJWCxgOAkaYTxV+UOPirvGzKvfGPYohPxsfqW+tDMTD4U4mXORVgrpiSnBgdbz4+Prk4Pbu6EedKfWXBvJ+HovFxusfWFosiaAs2XQj9b2DH49Zn/vVxdK2D4bKAx9P2snhois7okbqmkIoAMw61wi86MupSpjFNeJ3x9VKOiJP82NZzHCZR0dRoRR2CQGABaOZJ/J4awYUCWPI9agS+CzieyzlMZpyfBQ3PWpYfqDyfJTUBX6F5aciXfP7Fe3VcQ2zPV0x+6HV8dy9fbEzm7tj76WM4PvpWOxI6HeJseiDUVjvD37ha5+rWf4X3hks3/vqmcKaI8PV1qmqp3Hh57loI3RWUoQE5p9Q3PmC/4uopnODJ6lLQXdCrW3rjowPtOgXNRmd43njBKbEZBgF4hMAsBiwvECIPLEsqnlOkDJd2lW2g+4p0+scK7stkxUv6VIURRKS6wK/AvNUbizqMkZrUyrd2W5U71+THD6wPnl0bWfkdSWQDkUieKjhc8mw6IPQtumGoZL1+KVp5+G3r5R3/vRsqev0hBm1fUaCsB8J97TSIiKwMIi4xk1zEd3iMmYdEdlb36pP378+eX5LT/RDnjm8PXhl+CPkI094V7SwxRMAFhRLLEyEXMnBZlUmjGiRRCq9u2QGa8Yq3uoLWavvQsHqLti0vUaDdMCwcjVTXUl5K0+uCjfj2w2J9cdV997VielHNqXPbeuN/iohST9qTanvN3wuGRZ18D3//PPkH//3/4/Hjo1Wn3njYmXvB0PVdcfGa6nRkqtSUQEKwg7MNWHnjiYiwjFE+KGEgumqmGJt7TTGHt/acmTvQOIn08OXfvLYfdunlmqHHGBlIHqGf/cH72f8eCop6Yl9lwrO5nNT5oYzeXvd2byzynJpC/ek1o2nZiY7I0pfPbbM4GldVNNHJILSKqY7eqLVB9elR/YOxD5a06If6sxoP4sSMlL3vDRYtK/JCXH/oz/6451lO9h5Je+uPjZSbT8zUYuWap4cvgUyM8IBwDwjYcI0QvyIJJlJVSq0GvLUL3/6V1kQd2CxI+Lof/Fb907//Sc2XlL80b/ti1p/sX8g8cttPfETvRn9SjIqTWsEu41ud3VWRJaLkegda/kU5ewAX552tOOjtfTZcbN3uuJu9C2/p+FxybAoBV6UMP/bP/7jrVM2e+hS1tp3KWcNDOXs1qmKp9seI58yqgBgocCMEsI8TJApE8luHAWAJcPvPLIv9395bPPZiDf+1/t7Y798dF3yxO6u2GBbVMlHZOzJocivkAy3UaARnWfEkOeTVU85OVaNHxuqdQ4X3LUlJ9hbtKw1dV9Lg0Un8MJytxlb63ho30TJ3nV2wlx7Ycruyta8qOlQyRPWe1hFtEyriYBFRjOucXdtlOOWEGWhCzzGoFMdsGT5r75wz3iH4r3+2Nrkewf7YmcG0spYSpVKCkJ+WCcVJoFmWljGNO4znDveoeRi1jZOj9daL0/b/VNVd2fNIQeqVbpkRrhbdAK/detWHDjBuqrpbx3JO2tPTVpdg3k7VnWo4nPTPSxLroB4BiwSmnHtRvGN5wU8TopoGUZNAFiqfONg32hGr/1kY5v+/s6u2KWBjJaLqcTClNZfVhKsmHyXhe+6Vj0qTVS92KWs1XFh0l47XXW3O4G/uuFp0bOoBF5UzX/5y19eWzP91bma1z+ctzvOT5nJ8ZIni7HmPzOjBQAAAO6KxzasGutNqaf29EQvb2yLTCZUUiViILwV1e+pcZ9CaySMagFVLk5bKW7Jd4+X3HUOQ7ssiy4JkV9UAv/KK68QM0Ab86a3hVvvvUMFJzVS9LRpy5PEpAD1KiIAAABgLhAd8HQrf2ZLV/TU2jZ9OGbIBSJhm4te3YpfKRovEHpDuMD7VLpS8owzWat9MO+syde8e6vU//xSEPlFI/BiQJunnvryettF6yYqbv9gzmobLXnRAhd30xdFSB6zQn0HkQcAAJgrDu5cm+3LGBe6UtpwxJCzSJWqXOj8eta7EhSe32hTZvja4vozVvXkSwU3MVR0uifKzsaa6e8PCH04l8st6p71i0LgRce6g4891s0U+UDRCnZcyXu956ac9EjZ0cLhFSlD4aQ+okTVfPAAAADArCOs+K6UfDkekc8lo/JYVJOLskQcngnXh19e7hovNGaG1oiO3WUnQOMVT7k0bWcuZe1VQuQtJ9gdT6UOjoyMtNR9Lj4WhcB3d3dLqWhie9kKto6W3DWnp8yOIxO12JWiI9m89ASiDgAAMH8QQkZrtn+2I64O9cTkqahGapKYkG4lVdEL4QnFnjt+31Uu8lzclaMjlcz5SasnV/HXWi7d0N7evXaxTiu74AIvquaffvrpjqrL+iYq7sBg3u48n3cSlwquNFUL8NW290X5+AAAAJYnMV0ebtOli+1ReTIqSxWCiceVbuVIfCjunwiPzcVorOigs5OWzIU+wa34torld7lBkHrhhRdA4K9HLBaTOzt7dpcsf+PpSbPn6Eg1NVRw9JoXkIBHpcaLcQAAAMA88ts7W0cMGV9oiym5qEKqBCMPMVyvpl9R1LVbVNUXrQCNlVxyJe9oQ9N2aqrsdXDh7/3mN7+ZCT0tMhZU4EXb+/bt29ssRlcVat6qc1Nm68nxWoSXjIgb8KcaPtdFWTACAABY9rRGZSujyxWDIBvX+zqHZteK4eqtYiQMzpoYxtYMyHDBUS9mzfhY0W03Pbq+vb1ru9CzhudFw4Je0L333qtE2zp3T1e8DaNlp3t42k6MFBytZAc4gPFoAQAAFpS4KgUxlXiyhCkWA7ytOHEXt8ydsDO5E9UXVT9Ag0VH+njSilzM220Vl/ZRSvv/4A/+IC0+sZhYMIEXbe8DA1sypu2vmqy4q0YLbutE2YsWar5kuRSH4ypA2zsAAMCCocsK0yTCJIzrvchEvhwK3wrh2nvlmuRwlR81fXIia+nnc3YqW/W6TZ9tbOnoWHRW/IJdDGNM7V/Tc2/RDDZcmjK7L06Zyamqp1kBxaLjfBibQNwBAAAWDEXmIsFVArJijjA4+bMQVrzpMTRdDeTBvBM7l7U6+Lq/5tD+3/7t307WPS8OFkTgRSlnz/33t1oBW52reAMXJqy2yzk7WjQ94ounKB4kAAAAsCj41NSxKwVxz2EtsnCN/RlFHSdgZLLs6SfGq6kzk7XuXNXfuHnztt2HDh3ixaLFwbwLvBD33/3DP2xrSXU+Wjb9beMlZ9WlgpO+UnS1shvgcEqu5jMMp/EQrrEPAAAAAPPFVWFvMGPfpwzlLU8SxunFrN2eM93+qu/1t7S0xOs+Fp55F/iDBw8afS0t99Rcb+tYyV07XHQ6hktefNL0pCo338O2d4FYN51YNI8DAAAAwILBFZ7/i47gFZcKK97gWpbKlv2ekkk3rFq/eZfoY9bwvKDMq8AL633Dhg1xn+G+shWsHivYXSNFLyHEvegy7HB1v66Og7gDAAAAiwUu8PW2+ADlqp40XnJikxWnnW/32y7tX7NmTazucWGZV4F/8skntd7e3h1OwPqna37n4LSbHC87Rs32cVAf1YY/OFE6up6rfwcAAAAALBihFol3BjFyA4RKXoBzVV8fLzipbMHprjn+hp079+x56aWXlND/AjKvAj9FqWx7uL1mBx1TZTc9mLeMsaJDatx6pzPfexcP8FoHAAAAAIsBrklCscTodjWP4azlSkN5J3olb7eXTL/fp3Rg//790brnhWPeBF5Uz/dFInrRdFrFO++Xc1b8wpSt8G3+gCii4omBpQ4AAAAsIbyAoawV4BM51zgyZaeGi25PyfQ2rNu08D3q503gv/a1rxnrN2/fNW3R7svTVuZizjYuTTvqeNXFJhf4sPUdxB1YYmDECOEO42Bea8MAAFgciNblgk3xmYItHc1ascsFuy1f81Y5rtenKIrR8LYgzFum5Pu+TBnuHCnY7R8OVZPncrZWcnzscbMdJpQBliJC3PlS4lFYoxgteHsbAADziDBIG33EKGXIcQJcqPj6SMFNXsq7nXlLVNMf3Hb48OEFyxvmReBF9byu64YT0LbBott6eLQau5B3lGpAMRMPqP6kQr8AsCQQ8z8zLPFYq3OXIAwnt27dumgGuAAAYB4IZYsbqFzgqcewbflkuOBGzues1HQtaKE4aKlUKgv2yty8qOrrhw8nd23e9tBkyX/s5Q9z9/3lR7l1IxU3WQuoFIiuiND2DiwVGEOEp+eMStiahOLu7IlNfWln66kDG5LvRFX5Z2/+/KdHhoeHV+CUmsCdsmHDhrAKM5vNsueeey4c62ux8MqH2X0fj1Wf+dnpwqPHJ6yNpkfTSMLyyhza7gaI0GvkC0kV03VthrmjOzbyxe3p95/YlP7pqz/8qx9+4xvfsOqe55c5DyVhvT/51b/ble7t/juDOff+Hx7Jbf/x8ULnlOlGPEJIeAWhFQ8AS4BGQk6rElqdUPxd3dHKM3tah+5bkzwdVclxnu9dJIxZvoQWVUYNLGoYN/F8xuPNyGDu7KFDf1MUB8fGxnhMexht3Zplzz77LMWiNXOeAYG/BRoCL9YKT/xxVbbXtxlT/8X+9uN/Z2/rz6+cO/nd3bt3h2E638xpKPEIiz88e7alp2f14yfHa49+PGLufuNcYeCXFyqpoutLlPBYAtY7sJTgiRjzxByTCeqMSGx1WnPvW5MobO6MjksyGeWRfpqfdyhjIPDArYFFkZG5fFF2PDbu+DTHD9o4YH5cI34qrpiGFFz+3Jb28cYn5g0Q+FuEB15d5ClTEAl60mrxP9/Xfum3d7Z+2B6VXxu/dOL1ffv2mXXP88echtLhw4eTW3fuuXei5Dz65vnSPW9dKK4/Pma2n5my1JrfaH8HgQeWGjwdKzzORiSM4rzI3h5TnJQmVwhiFZExI0R9xqN3wzcAfCaYqwI3z30eY6q8VFjkOlHmOmEhLvBtCcVZ364XNvQYF9oT8gdf2tF5qfGxeQEE/jZoiDw34llbVHGf3pKefHJT+vymTuPDdS36oTMnj7013yI/Z6EkrPePPjrTtXrT2q9fmXYf/PGp6e2vnS52DRXs2GTVJ2JY2vDXoXoeWIrw6MsFPayul3hklxjy+a7HIzTl2TW0wQO3TvgiEQv42uVbFsPIZpTHp4AGPUnN2bUqmrt3bfzMzr7Yuxvb9V8NtMfmzZIHgb8Nrgo8QmmdsHv7EtbBgejY/oHE2T398fcSqvy3P/zhX37w3HPPufUPzD1zFkrvvvtuYtPOvfunK+6T57LWwR9+XFj3k3PFdMH0ZNOhWLw7CAIPLGkaCVr0oBUlWr5ff+NzAdpKgSWOiDmi7UcUFBF3YmhPimhvSnX39kSm71uTOHnPmviv1rbFfrq6TT9T/9DcAwJ/GzTyA/Fk4gpBW1r1YGdXpPy5jcmRg+tSR9IR5Y3Txw7/1X333VcO/c8Dc/aanM5xPTqQr/pdYwU3M1VzjYIdyGJYv7BxEuIHsNRpFlDFy3Iyz/EUQpDKnYwlcOBuyylcNGWi8LXO96N8O8bjU5wLaYJIOCkRlOSxLC4RDOMtLFbC/KCu82II27zpkaGCHZ0oei35mtdru0H/9j37N7/66qta6H8emDOBZ8xQLJ+1Zqtuy3jRiZWqvuK6AaKh6d4ArHdgqRMmar6Y6YR1Aw7cHTm+kHghUcLiDSMJEcaLj1z8GRd2Me4Cnr/ByYA7J5wr3qZ4uOLKIxXHEHOvlC2vjQtgVyKRUBve5pw5iSznzp1LrN24ek3V8tsmyl76SsExCqYvh+Ie6juPyCIjBAAAAD4TxhW+sQmZ5hLB5zpX8gI0UfXRaNlTRguOPl3zIzWPGrIsz1s4zonA27ZkWB5bnat5reen7cSpKUvLmb7ECzWfRFUAAAAAWE6EtXjNanqEqj7FIyUPn56y5aG8K1fsgFQqlaUt8IwFStl045MlN3Fx2jbO5V0pZ/soELfVeAAAAAAAsOyYoXEBt2qzVRefnTTRYMHCxZo3r+o3JwKfNwM5Vw1SY2Unlq16WqHmSZYozgAAAADACkG0Sk/XfHS54ODRkounawEuNM7NB7Mu8CdOnIhFW9u7xypeZqzsxWs2VVnASP1VIuEjXAAAAADAskbIXsUN0HjVx1NVXyranlyrLuE2+Ao1oo4krz+Xs1rOTzuJacvTGBZDLUOvOgAAAGAl8Ek1Pdd3UnYCJVfzjOGCE827zpzUnF+PWf8hFvhy3vQSJ7Nm4th4zchagcSar4CEN9y4awAAAABYjjS1LlwziQVMnTb9+MW83YJb13Y9//yheZlaetYFftKmSrbiJ4fyTvxKwdXKtj9D4Js3DAAAAADLmFDruOgxMZo10vNVL3kx67SWLHmjsdWPhn7mmFkV+O++djRKlHTnRMlttc0gwbxARZT/BjS7AwAAACuOulFLCZILpm9cmLLiQzknUszNTzX9rP5IPKG12UjaO1lxu2sOTSEf6aJ6gp8Cux0AAABYWQjlkzBmmJGyR+WRvKuMFl0la81PR7tZE/hDhw7php5qnyo7vbmy1+kELMkIUsI7ZMI1PAIAAADASkJMJUSZ5DMql9xAdlVzaQm80rkmQxVl81TZ7ZyuehnLpwaSsYIw9J4HAAAAVjJEjOIqcVtXt1zfsMr60qqir1ZcKVf14tmKmyhYXtShjIs7PwEd6wAAAIAVDSMIE40LfNzyWKsZ6Wh99uWXRfP1nDJrAp+ruCRX8ZVs1dfKdiB7ARXz3n8i7iDyAAAAwIojrMWWucgbGJMWh9JVFOP9rRcjifr5uWPWBD5f9Ui26ihTVU8q2gFxfQpzIAEAAACAmPw3tOBZxvHYqrzF1mYjrV3PP//8nL4PP2sCX6xa8lTRi+RqnlYSAi9mjmv8AwAAAMDKRVjxTOXrhB2w7rwdbAqUyOO1Tb/T//IcVtXPisA//51DeikwMmJ62IoTxB2fqkFwjbSL+nrGF9CbHgAAAFhpYEwYxlGbsjZuBA9MO8FmParcO8x6kw0fs85dCzwvfajpjr4NgWI8mLf9Pm65p5mEdUSYxG+oLvKhqDfFHRQeAAAAWIkw4gc0WvNoR9kMBqo1b60aS7U+//zzs1abPpO7/lJj/X1tkqZvGzeDddN20O0wmuaH9Xq/ghmArgMAAAArlVASMQ4Y0myfJqoO7S5a/mo9Et+/5d6vtIR+Zpm7FvhC2VQnLK9lqOK1TVp+2vYZF/ew8f0ThRdbYjc89MlhAAAAAFhRcH3k9q7u+iyTN/2eqVow4GpGhjExItzsctcCn3cCOVtzIxNVN1Kwqe5QdP0OA01tB30HAAAAVizc0mVMtQManTaDtvGy1y1FM9tf+/VJUfs9q9y1wOeqVJ6ueoZtU40GlIu7eKG/oeKiWn6mAwAAAICVSlMaCcY1j2rDFS9+qehkxqtuS7ZkafWzs8ddCbx4h2+izCLFSpD03CCCKJMRbah701IHcQcAAACAOmFzNUImZdJY1dUv5Z34WNlJlG2un7PMXQl8cdNXe8uBsiNbcztcyhL8qjWERe/5hgeB2J65DwAAAAArGa6JjNvxQcBUywvi+aqfKjHVaJydNe5Y4EW3/pylZUYKzpqpmtdpU5REREwuI85eY8UDAAAAANDQRYK5wkuIMt11aSpv+p1SPL37pUNnWkM/s8QdC/yqJ/5OZ0SVN+WrXnfVoa0BZVFeJlEaF/4J4maaDgAAAAAAoYmYEay6lKayVtA9XvbXVkyaaZydFe5Y4CmNx2yXdlZsv8X2aIIypHHDvS7u0O4OAAAAANcnNHjDmm7VpiiWs/z2obLbo8SSm39w5HJKnJ0N7ljgpyu2VnWDpBuwuE+RJtoTwhNgqQMAAADAZyP0nSDsBVTL17zEeMltKdt+p2u50YaPu+aOBF68kJ8zg0jVoRmPoTg/IgbRF/Pl1AGRBwAAAIDPhmslN5BJxfTVQsk1ChVPt2verE0+c0cC/69+NboBy8ququ93U8aSvCSicZHn38WLJELcmw4AAAAAgN8k1EiMKGXEc6lUrQVyxQ7kvO/dcc36tdz2F715qtqFfbylZvnbbI/1BAiJ0XdE+/usXRQAAAAALGvCvmp8wR1liDg0UMqmrxVrCyjwlm8lbdfvL1tet+P4rYyx6G+8+w4AAAAAwM0J672ZTCmKlJ0gVXF0tXHmrrl9gXcCpWoHsarlx52ARXjhQ0aY8AsEhQcAAACAWyfsSS+mVtcCjFO2R7tUI7L7f/3+qVmZXe62BT5veyRveXLJCmTHZ1IgSh+g7QAAAABw6wjdDHvS8wVBBmUsY7q0z7Tp7kRHct8P3z4dr3u8c25b4KdqHhqv+XjKpdj0GeYX1TgDrEhmtCPB2AcAAAC3QWgchwIvBwzFLNdvL9a87opN+5gq3/X78Lct8KM17qo+mrACVAkoChrHgRVMKPLNDQAAAOCWEVY8dxQjhRvN0YLlJwo1P246VGn4uGNuW+A9z0NVl4q2eOTRRpYeVjWIDWBFAmEPAABwV1DGiOUzqegESskO5EKN3LY+X8ttf4HLLXjKBZ5SJiat50dA3Vc0YdDzhSiFQjwAAAC4Iyg3l+2A4oob4Lzt47LjNM7cObcv8F4gBT6V+dUQ7rjI85wd8vWVTVPbIR4AAADcHo28k/KVwxdll6ESN6IdOzx7V9y2wJc8X/MojTAmhqdtjD8PAAAAAMAdgpGoFLcpQ2UvwKWFsOD//r95J2NR1m4HKEORmB4WifnfwW6bbZqd1qDPGgAAwPKHqyjXd+wHDJs+JaYXSBUm3bUBfVtfkKfxtY5Ht9k+7eBXlEAYK2DFzzKhqPNF8/VDEHkAAIAVgMj3kYR8pHkujVqmLTdO3DG3LM7P/8d3E2UXdeScoNcJUDu34GP8ML+AsHcVMBdcFXm+plT0bKQoEGsWzJ8Lf48HN78IKGwAAADMEZjwvFahAY25bpDGWqzzH/+L7xmNk3fELQt8kOha5VK6rmD5HTalKYawwT8NY9DPNuHz5Auxbj5bhgLuXESRyV0F+bQ6P45VeYSr8isw+cW4XORFPxAAAABgVgkNZTHlukYJTnIjuovntrvk3h199fN3xi0LfNX1jLLlp0sWTTmURRgOx89tShAwm4TiHj5ahhnyFYyqhkyyUZmMJhQ8lFSlwYQqXZ5Tp0iX4zIZjMjSsE7QhIxZkZcvbRB5AACAuUC8kYYV7uJc4DuKFu21kdT5J6++qjU83Da3LNDf/N/PPvTWpfJvn5+27wsQWocISfBP33UbAXAD6lXiVCGo1BpRJjpj8kiLLmUTulRVMPHrFeZzq7UuZaRsBXrO8jM5K1g1bQddPOJlEGE8wkHhDgDmDMqTd8BQb0L27umJFQ/0x0/uHYi/taEr9v1VGe1Yw9ec88qH2X0fj1Wf+dnpwqPHJ6yNpkfTSMIyEvOLAbOLaALl+b6MsNkSIaMDKfXDvT2xN7d0Kj/9rx9bc6Xu6fa4pVD6lz84lDpZ7Xz8rQuV37qYd3YFGPUiiUT4p6WGF2C2YTyFB9iMKHh8bYt+dm9v7OO1Leq5rqQynVSJx8+yYI7HCRY9OYcLrnFhyt5wOmftuVh0Npdc2oswiULYA8AcAgK/MuECTxB24zLOdkTlY7t7o2/u7NL/+o+/uPZcw8dtcdNQ+u5rr0Wr6tYDH43WHvvbc8UDV4rO+gDhVh7IoioBQnlO4Pa5GOaf0nJMli9u64588OCaxBv9qvW+Mvr2WMPTvDA2lsZjfVsfOpd3vvpx1tmfd4J1/HA8TOQAAMwNIPArEy7wmCFPJXg6peITu7qjb9zTq//g//lbG083fNwWNw2lvz4yvfXjycojh69UH/hgqLpzvOL3UsyiiPAQhjCeI4TAM58n8HxclU/t6DJ+ubkVvdxz+YenX3zxxXlvA/8H3z1777ms9VtHJq37p21vE7fgkyDwADCHgMCvUMLGV59QltcxPrGzK/rGwW7l+//i72071fBwW9y0k13ZcyITZb8lb/qtLkUJ/usqWO7zgAhmjBnjQk8wtiXK3IUQd4GMGSUSC/jV8IIHL18CAAAAcwblhrznU2J5gVQK7lxvP1PgRW1BzaVyzvT0ohPoHqVC3OufAYmfexoiTxGjUsDFdYHg4i6uBIQdAABgrhHzuzBMuDWnBAwZdkDvuLb0phZ80UE4X/VEb2riBIyEuTyI+/zBg7qxBQAAACx3ROM3RjIjOOoylvGon3725ZfvqFPzZwq80PGK5aNs2cMF00e+D69AAwAAAMDcIKrjw+HfNb6RdinrkRTtwJbIPduff/75mxrk13LTD1iWh/Jc5Cu2j8S7WQAAAAAAzBGijxtBOrfgxaByPdMmXeswtnPTF/9vPQ0ft8zNBd5HiHoUUb4GAAAAAGCOEXY8QrrjsVTOdNunq15bNXDE/C+3xU0F3vd8RJs184z/qqi3ry8AAAAAAJh16lX1dhBouWoQmeSuUAuUxslb5tYs+E81vTdFHgAAAACAuYBb8Nj1GCmbnlSoesT2vdtW3psLPLfgg+aY5yDsAAAAADAv+JRh0dG9bPm4VmscvA1uKvCmgzD/DYyIqJ8HAAAAAGBWEf3Xm24GYvQT32fIdSlyvcbB2+CmAu8GvhJgJMadlxAJe/eB0AMAAADAbPIpkecy21Ravk8pRR7/u10+U+CffeUVYvvEYJjF+K9p/JdgBjEAAAAAmEtCcReLutCLIWhqrjh2e9xY4BnD6dqO9YTQtZTiVn4gxksSCl/f1OoHAAAAAOA2aOj59RAd3T3v9hX+hmL9/AsvYNenqyhlq7mot3OfMf7jMr+CG1wCACxyrlZ/AQAALCKa4n4DkfcRnT0LXkwy0/fAfzkgYzRAA9rDf7CF/2qEn4IqemAJ01B4EHoAAJYCQuxJvaO7cwezyt3Qgvck0sYY7QoCLu4MixF0PplJDgCWGp+ajA/UHQCAxU4o6MJJDDE5YMFt6+8NP+A6VLUDGvUCFgnEHPCM+4V8EViqfKrwy7evVxZuWvZNdz3Cc3wRuvqhkBsdB+6MTz3Pax7ozOPXnAKAZQVGEs+7NGFku5TojaO3zHUF/oUXXsAWLy3YPpNdSmVGofc8sAxoFoivJ+5NhGA0RWPmtiDc5otrjze5evx6J4HbZuZzbm5fu3/1AAAsN5gwqoVxHaeItSQ0PPBP//piR+PkLXFDC75qI2R6DDuUYVrPFD8rWwSApcHMWByKBF/MdPWDnz72qXOfAfQ/nRvCRz8jHGYGw2edA4ClTNgkzhSeZyW4wHcyxja5rj/QOHtL3LiKPgiwFVDkBayeZkgo8gCw9BEROnQNQeBORG0RxUWCEE5UWYX714v24sC1Yt7cvdpsBtwRzbCZgXiazbCQhBP7M1z4tK9+ji+u8x0AsCQRA8whHKEUt9ku7eYxvv87PziSapy9KSJ9XJeKH0iWj2RuxItBasM0BABLmjDjFwJAGaIs4PsBX/syQr4hET+mSH5Ck/wUd2mdO75OqJIfkSVf5ecxxj5iwvHPBZQXqvl38a+6aj0KREqB1HL7iMcXhgt/riJseLjwB+kTQnxVJn6Eh02Sh4UIExE+yUbYRLnTedjwXFC8SVQPG/Ed4ruaBTgAWLpIXKV1Ho+Trhe0M5/24dbOW54X/oYCbwXEsCmNOAFVeEq5oT8AWBKEGb3I8Jloc/IIQ5ZEUUUmuBJVcTltyOW2uFLuSCjl7qRaXtVwnXy/NSaXE7pcVlWpLEm4IjFWI4jZWIiJUJFQnK7+CHC78DDhSzGnlcdtCZNQVpEwf84KKWsaKSdE2PAw6OTh0SvCJaWWe/i6I6mEx1P8vM7DUCaowj9bJfw7+PdxsW8oPAQLsLQhFDONF3ujvseifhCojeM35TeEW+R/Aw//XrvPWItJUdJhOEIZk/mJul0iEgskGGCxE8ZTkblzRxtrxigXdIsLRq4rpgyvblEvbWozzm3piJ7d0Rs5u7PbOLu7O3p2V+8nbg/f39kdObtduM7Iuc2d+vn1rfplLv7jaYMUuOXvcOtRWI2iVqDxO/VLAGYgnslVJ55Rw4nnFjBPQawaUUm21ZBH+lPqJf6Mz21t189t7zTCZ7+jJxKGxcyw2dXFw6aLhwt329qjZze0Guf60/ql9pg0FpNJngu9w3+jbslD2ABLFiw62xGXMsX1qeKzQLRS3RK/UZn4/PPPk3Vf+MP9f3u58thPz5UeztaczYFL2xjCjVID/whUQ84xPCfimR63aKZjqnScC8+hnQn6V3/6B3svNDzMK//oz0/vOzVpf+2jMeuhnBVsQhJOcSc3Ti8+wky8kZk3M3Uu7liRzIhGpgaS2ui6lDraldTyHUnVSuoyjRsYaYQg/s8duTqik6iJdylCjk+R5QWo5gRKpUZjY2Wn7VzO6Rkp2u0F00+ZdqAzwp8JNz0RDh2kkSbh869vztgQYcILRcjBlJXiupRLRpXJgbQ2xcW90BFTrHhUCrjoI0ORkMbNc76JJBFAHBEuYnxun68dn6H6lJqBNFn1IqMlt/VCwe4dLnjdPMza+O/oPDA+CZOlEDaiQBIw1JuQvXt6YsUD/fGTewfib23oin1/VUY71vA157zyYXbfx2PVZ352uvDo8Qlro+nRdJj2RYcIYO4R8YBH9ZSGi2uSypntHZG39vXHf/DffL7/cMPHZ/IbofTyyy9LtVUPPvj6pfJTr50vPzRd9dbxVJTmpxoZeiNxQPjOISDwd8QM7eBFXiZxpxCJqZgFmio5uiFNpCPcOmzRTqxNqh+s74hMb+hQ7ZSmU11BSJlxR81Nv7H2+Ebg+7jm+NJU2TMuF7w1J6esneez1uqpktuTr/lpy6cxmzLdoUz2GMO8UNxIJY00sxIRYXI1XOobEmY8TEigEuxqBOc0CY+0xJTLrQn5UndKOb2vN5Fdn1GdjogWxA3+AUW5GjbXCxff8xDXd1SuBdLZvKldmna7L+ad/Wdz1uZiLVhtuX47t3xUhyLiBxRTXgC7GjaLNVxA4AGBMFAC5Ce4wK+OKWe2tutv7exL/uCffPEuBD7fefDhv71c++Lrl8sPFqruGh7Rkjxt1o2aGXkWMFeAwN8RoZjwrBsxyoVDdMxyM4bkt8cVuyelFQZa9MHujH5MlfDbU6O/fPOFZ5+t1T94+/z1R0NdPo48PG36m7MVd81Uxeu5krfbufWYGq94sZzp6dzqr0+xLCx6kWBWYpoJw6S5IR4BYxEJe51RpdYdV/M9SXWoI62d1iTyfjoqX2a18ZN//LX9+brvO+P/+5P34npi9RM133tgOO9uG5y2+kYKTmqi6mlFO5BtLvYeL4Qh3FCpxRguIPCAQAg8t+ATal3gN3OB390X4QK/7pYE/rqd53xhrfCSLo9k3M2I/mKr6YB5AR71LSASgXCiFMpjLLcI7aQu5bti8sTqFm1oZ3f0wgNrEqe+sCX94de2Zt5uGz0Tirsw5O7UfXVv/9iuLv3nT29N/e3TO9J/+9SW1Hv8N45v7TAu9CaUsZRGpjVZMgnC9Y544XWGy5VHGIkZkwgOIrLkZCJqYSCtjO3s0s8/sDZ+7ImN6Tf36sVX7Xf+3dv/lIs7LxBd95nfqvuHT99X3qtXf/61bem3vrApdeT+1YnTO7qiF9ektaH2qDIZU+WCSogjannC61up4QIsKcRrP1TMKtfYvxWuL/DcBfyLkM9jfjPyh4kU5GYhCKtOtHATuBHc4pEYCqIKqXXGlbHN7cb5A2sTRz63Pv3rg2sTv9rZE/llX0J/4/ivThx69tmHQ3FvfPKOWdcVn/q3/8s/e5NYtb9Z06K9tn1V5GcPrUu+c//q+JHdnbHzfSl1LKpJBYyJmAeKCz2/yJUkJuG98nvGKCAEe8mIXF7Xpo/f0x+9eP+a1LEH1iXf3dJpvOFOXvjFc1/YnXvxxRfrteezwL59a0ujZ4Z+3teqHtqzKvbL+9fF3354ffLdA/2xo5tatUvtMXkyImMLRB5YCvDMI5RjO5w2tn7sVrihBR8q/FXLSAg7iDuwyBBRs+EwY1RF2Mxo8vjqpH5ha1fkfS4kPz24NvaTe1Ylf7a5O/rm1KUj7zzzzF5rtkREIERp17quqf/0r/8/b7RL7t/cNxD/OXe/2L8q+t6GNuPjTFwZVGU8RQirIdaw5mft1xcx4T2KembkS/zeDU3Otcbk0S2d0bP3DiQ+vGd14hd7++NvYXfkza89vj8/m2HS5IEHNlfssQtvbe+IvnHvqvjPHlwde/W+vtjPuDX/YX9KvZDU5UkZI0tUVYYXLK5g1q8CAO4eEUMdnnvYPuXrZjv5zbmuwIcKL74xFHm+Hwq9WDccACwKRLwUsyChQJOkWiZCxtZzy31Pf+yDTW3R18sXT37v/N++8up/+tfvvvXmq3/98YEDB+y5EBKBEPo9G7qzL58//IZeLf5wU1f0Zzu69V/s7op8tKZFP5/QpAleCClfFfnlTHh3YUHGkxAppQ15fG1GO7+7O3J0Z0/03c3t+t+Wpwd/9L+fOfzLh3ftKs1VmAh27dpVO/SzHx4V4XLx7e//n8Ho6H/a0hV9fX9f/MiajHYhzsNFxdjiYVN/nU5cyZxdDQDcIaLTLmOER1HJ8f27FHiOGAyqHuEbIt+M9ZAAFgansQbqNOIg5hFVQcxMGGS8I6Vd2NQZOXLPQPSt3JWfvflHv/tk7Vvf+pb34ouP+M899xwv986dkDR58ZFH/C8/sil39qf/6lCnUv7Le7pib+zs0D9sj8jnuCU/yRNcJRR5ISjLkTB/EGLJLXdMyqqCx7qiyumdnZF393ZHfsEF/s3SyAd/+3cf3jstntV8hIkIe/FbIi78w793X9nPXvnZnt7EG1vaI8c7IsrFqEQmJMYteRB5YLEiRpRFSKaY6YxJSuPoTbmuwAfCghfxHCL6giMev2h/AWYQxknRoQ4HhiLV2qLK2Ib2yPkdvdGP+tP6W6Pn3/zVi7//+3bod4HgFr3/D5/ekyW0+Nrm9ugvt3YYRwdS2qWESqZ5ocRCNBTB5QlDVELMSutkek1Gv7ipw/hoQ5vxBs2f+0Hl49ff+c+/8IXKfAj7jfj2Nw5aE+eOvLGuzRDt80fXtBkXE7o8oUrY5pcFOR6wuMBh+7jsMxbxGE5weU89//LLtzSa3XUFXjTBCwM+pNn83njT56oD5gV41DdAtLkTZKYj0nhfRr+wpyd69L7+5JuV4Z/98tvf+IbV8LXg/NMv7SiodOjt3b3xD3Z1Rc50RqURCaESF/hGO9hyg98TpYGCSLUnpkzu7TLO7+w2DqsjQ7/6J88+XubWtLuQ4t5E1O4k7COHDqxOvrmrJ3q8K6lcjqrSlISIszzDBVi6MMJjpOIGKOoGLKPLZM3eTY+saZz8TK4v8NxkFANDfwoQ9wXjlsclXAmIrJeLO8LE1BQ80RFXLq5p0T7qSeqH8In3f73Qlvv1+KdferCgBEO/3NimfdgZVc/rhExKBNer6uv1ZMsDfieYkUCVpFpcI/lVKW14c3vkdHRs8Nf/3d+/v7oYhH0m3/ryl03zyvE3BjLaL9e2Gqdb4/K4LPPCl7Bxwslq6v4AYGHBok1PDFWr1yiLc6FPOh6KNU5+Jr8h8K9wF/axazTBA4sEeE2uLu5164pbgShvaMrQQIt+vL9VfUsu/Oqdb33ry2KSkUWJEPlaafIXrQn1VDJChjWJFHlZ2eG3szyERNwDpVRC1ItpuNCeUIZ709r5dZ2RwWI0ay42cW8iLHkte+bnWzv0o2vS2pihShUet8SLSPx66/8AsNBwS4BYDMsmZZrFqB6wQGbN+WE+g+ta8DZXeDHO8zU2PAAsMGFu68sE1aIqmWoxpEtJQ35PHhx6dzFVy98Imh2p9CbV890J/UpSl3I88fFrFsK3DFSEhY16NiF4MhORB3tT2qm2hHy0Ojhy9IVnn72dsTnmnX69ZO/ojuYGMkYhoxFLl7BPRIEkDBZQeGDhEca2iyh2AkacAOGAu8apz+S6Ai86dYnJHABgURG+J4K8iERKvRFpdHVCudCX1Idf/K8fqTZ8LGr+5be/YSX94fe29RiDXXElJ2Fk8nvi4rfU68rE9WOe/7CcirC4txNr09q7kdLoW7/31bl9DW62WN2iW6vTqtkXV9yMJomhjqE1Elhc8FQU8KQmRpn1b7HIfF2BD6vo+Vq8IQcsLCJnDHvRr/TX5OoS4WOGzZiCp1fF1OF2GR9HI8dOhWeWCtWKuas7Ot2TUEsGwTYJX5lbwmaieLVMzOOOWUmR8Ai3fk9mNPkd7F059E//7gPFpSDugu6U6vSlNGsgKSa5kX2d8JARJ8TVL93QAZYTPB6KorSIjrdaJXZdgQeAxQeP2lwMMUYVQ5Um25LaYG9rdOLFRdzufj0G1GnamzSqXWmt0hJTrIiK/TARiq4FS1NIKA8aS0Ek12Iol9uj8oet9ujr/7/ffTwcU77hZ1Fz8uRJltDkWmtcLQ60R8tdScPSFR7XROEFABYDIiYKg5tbe2KMGl9Y4bcACDywRMA8ejOXMFTWJTKlKPhkrHLufOPkkiEajdLWlFTqSMj59rhcThqyLYX3JlhiehJa70wM2lOTMZri4n55VYtyubyqXFoq4i4QoxCeGLp4NhVTBgc6IxNdabUUUbDN74AXXhqeAGChCcubPFJybQcLHli61ONx3TUJe5uLKXSZqUm4EDVwQfSAbpxdMjz77LNebvLKiYwhDfcktcm0SioSxqI3/dJrEAubFrDHl/we0JRG0JlOv3j0leeeC1uVlhKv/8Vf1BK6NNKf0Uba42qOFyJr3IIXhRd+lrtmfBQOAOYNHP5fJaDcgueR8G7a4AFgwQgzUb6YmbEKxAhjFFOJR21DwnZGUcUMbUsO0SZdPnek3Karw31ReVRMa8sTocUTcb0lvnm/SwFhpWMughjZvJBSMjRSGCi+UW6cXVIIK35o6NTxnqRyviOmZDUiBJ6IjoN1K35m2CylMAKWNqG4N0Sex7uw0oyLvH+LvexA4IFFjojVfMUjuMzNRF0hNKJJQVqXl2wX0N/7vd9zvML04WREuRzTpJwkYdGPwAsLMUuFq1dKKBd6D0vI1hSy6AYZuh3e/pu/qWR0JWuopCApxMSEF17I0mlqAJYpTQteZA8i17uNN9xA4IHFhYjMTScQ2SuP2GJXkTGK6TJKcKfc8nQLiw9hxQ9mPyjye8lpmlwiBHFhbPSmb973oicMGOEYlritq0pBxNCWbKGrSURDjqpiW1Kxh2RReGmcEDp/dbuxBoD5QiQ1kbpE45dYQxU9sGQJpzv+dC4qIqouExSPSigekVE0ektzLSxaMuUOFjFkW1UlCymSj7hIhvcsEvJiJtR0sVEPH8LDSpEIMmQJRdQlVANxA2QkU02WAkOXmaFLTOL3FtK8MxB3YEERPT9vHRB4YHFyTUYqhERVMEoKC97gAr+09T3E0EigKoRiKazm5hLSUM/FrpONyxSBJPFw0njY8HIXL4DJ4uCShkmMabwgmY5ILMkLkmIbNB1YTIga+tnpRQ/yDywkwpIPrfm63iuiDV4jSFfJkq6ib6KrkhATpso47F+wFMdOE8GjcXHXCA+XxrGljsYLkgmNFyR5PFN5uJClFyzAMkVY78Ld1XvwoiBOeIIFgMWEyGeFoCyXqCmEUedpLcpvShX3FQpJeJdiY/ETWvL1YokIk2VgwIco/F4ivNBl8A1FDFm7RIIDWP6IJOdzE15Y8LcSLa+bVYrpSYWDeA0sFkTEDkuvfCPsRHqrdVSLGIkLItcRxA3GcB0KSdMtGRgStkRoVYT7Sx+RKcqYIJmLO1jvwOICi1fhkXU3neyWSUEcWGb4XN2dgCG7UYJd6gRiRCpeYHG4E+uw6b3pFi0zL5IhHhzIFRkOd7dYa7joCds4GY9jPL6JAiUALFWuK/BC4a9/AgAWBpHPejzjrflc4H2KluQoN9fgBGJqZopMruyuGGM6PNoUz6WBuGZbhAtXxSX9EvwMRDwzeYnL4hseD5ul/24AsFK5uY5D5AYWAWKkWpuLe9kOUNGhqLYMFN4NAi7yXET4fQXcVAznNlli6U1cs5jC0uP3YS0TE94KGCq6PipxkXdFuEBjJbCIEG9uGrfYyfizBb5uUgDAgiOiosOFsMQFvsRNRm8Z1NF7VoCpzzCi3HxnwjVOLGq42F3b60w0CvKwWRb6zu/B8Skq2vXCpGgSouJ2xT2DzgMLjIiCMiHoVl8iuq7Ay/xPnLi5eQ8Ac0yYudY3hZVrc+vd5tZVzV36JnzNpbLnUIl5lCC2RPpqN8Nj5tVyC16Mj+25wdK4h8/ACQLsejyO2R4WcS0QnQwES/7OgOVCqMvyrdkDv6Hhz3InXncR1QAYFB5YFPDcVcTmsEeXj6lo9F3iFnw+MYlrpmc4XqAzymTUHBQ1XC4FNeHX2Lxihgj1qezwwkp4ZAlj+0hy3EAKbF7oEgUWEedE0wkALCZusbbsuhIuetHDe/DAvCDyzqa7EUJIhIVLGaYBIz63fGu2v2Qj6PPPH5Lb2nZ05GpuW80OUowig9+jxF1dNevCubgJrzEMGMLDTuWGb9Ty/Ig4upTJWo5es2nEdwOFBVzkoRs9sIgQiU0g3+KgE9cXeF4OB3kH5o1mHnozkceMMMwUhwZG0aFLdiy7xJYpxdfb9kxU6UDBDlp9IfAIKfV7DL0sEcJRbnhOg6MBYq1lh636KP1gW+PkkoIxhu/9yu+0XM65LVOml3IpM3h0FBWhSypEgOXP7Wjzdf2KejZhwEPMBuaNmxlKmFvwGCsU45jlo0zV87qef/lQrHF2yfDyyy9L7e27W6ZqXs9wxe0tOn4mQELghZAskXb4JhiLvgNiVoCEz1hvxQ32TvstX/iDf/1BF1fMJXUvr7zyCokl2naMFJyNE2W3zaYsxqOkEk6CIHLCm8VPAJgnhDbfVSc7AJhXhBTcXA4kIfB8Ha/6fvt0zd9SVLrX1U8tHWq1mqImktuyFa9vrOS0Fy0aDxjTeEqsC8lSA2MZYcYFHnUVLH9joRbcp6bTn//T77+zpCz5rk2bEvmK3zk0ZfZOFZxWy6cRRjC3dbjAQxs8sGi4vTziswV+CeY3wBJDxLGmE9woLxXnCeIWPIrXPNY5nHf7h6a8vm9/97Vo3cPSYNBtIcNZp2W07HZkq36q6gZ6INqxsRj0vOFpKSGuWSIqL6S0VOxgYKrqbc9Vnfvl9tVP/fnPj3eIqu+6x8XL888/T3q6124o2d7AYM7uGC+7SdtnOsMiXBqewIQHFhoRF28zNd1Y4JtfdptfCMw/hw4d6jxy5Mj+N998c3Xj0NIjzD/Fgrsb5qVYYggbls8yk6a3quixHUpq85bGyUWPEBIz3pM6OmG2j5a9Vpsybr3fcm3b4gZjlSLUZtOgf6jobv54wrzHj7c99PbHQ6mGj0XL1q1b8UjRjY2U3MxQ1U1O2p5h+1TEtXruFy4hIwQWkKYWC8W+jXr363sNu9FzFzY/8Q2I24uaTZs2Pbxz586fPPjgg/8jF5Fb6165GGno+2eJPM90FcdnibxDu0ar7tqpirX2j/7tD+ON04ua6tqDhqUk7zs1Za6ZqHhtlLGoEEaevpZHCiNYcSluHSq5q46N1dYPFpwtRjK9jRdAF3WcPHnyJL44acYHi15yqOZH8i5VHMbt92amKhaQBwILxdW8cEY8vEWz4AZlgYbChyIv9iF2L2aw6OyEUJK7eHd399INLHHlV6/+BiKPmcQtxYgbBO0lM1gzbQUHtI6dD/7zRV5VLzrX6X46M1py1kyW3f6qQ1sChnV+k/yOl8OcZfwWeEQMEJOLVpAcKbgdV6bdnss5ty2bzd4gn1l4RBOCtuaB5NEJq+Ny3hbNDFFegJQpbTYtiPuqbwHAvBPmgY2MMExifC0GqbnFIvN1E554x46E81deVfj6b1wvwwUWnCAIpvnqBHejY2NjSzOURDQLY28jvoVccyvhKeGJqYyytGn7fYM5e+vlnPUI6tzy8P+2SHvVC3EfRP1tLN32WK7ibSlbfq/tBSmGsRb20p55y0uVMOiwmIkN83tTC6abHJq2289Omp2Tcv+irGER4v6//eDnGTOz7okzU/bOwWmn23JpnEc7RRRWwptaDmEDLGF4HtjUXhEXJYlrs8T1/dZM+BsIPP+ucCi7Ruxu/kDTAYuKP/uzP3v9xz/+8eOvvvrq//3FF19cJpN23oAwSvKIyZDh+rR9suysOZdzdl4qWI9I3RsfeulHP1pUg62IdvfzbF2mrLffd3rK3D5ZcddZPusIEIojTMWbActHQsSdEIaDAKk1l8VGS077icna2pLRcd+fvPpuou5pcSDE/Z/9+dspL7HpkStF58DgtL0lV3W7PI8l+EmRAy6XhhNgudAoc4avyd1NFb0Q+HAgO0l84TWxHER+0cFFnX75y1/OfelLXyo0Di1dRHQLI/J14l6T0A/BHhf5kh10DBfstYdHzB2/Hiw/XDT2PPrd1xZHdb2w3ON7n8nUIqk9H4xUtx2bNNePV4MuKsSdieEmlkPV/LXwQMOI8FKmMVbzWj8arQ18NFbbaqs9exeLyNct9/czQabv8V9dLN3/8XBtR7bs9psebQ0Q05bsGw3A8kbY3FyTw1Fm76qKnrvwS8TZMDMVRwFgEcHjJBdKbAXUmDb9zktT5rqjw7VdVwr25+TM7of/xffeEaPDLRjNavkSydx/asLadz5nbxspirZ3P0MRNsKBaZcl/Lb4vVGG9JJN09w6Hjg9Ze84OWHt95Teh/7X77/X8id/8qrW8DzviBqVf8Utd6Oz79HzU/b9H4+bOy8X3NVlXlB0A6pz2wXEHVh0CFtHtJorYi0hUcV0S1xX4IkkMRnjgMd0iogY5WGG2S4iPyQAYFHAIyK3toS1WHVpx2TZXXtirLrr3cHS56T2vscWouOdEPZ/8b3vGWeDge6c3PLkB2PWgyez1j05y9/kBayTIZLgqa5uvS/HdBTeE783fo8MoyS/5+6Jirfl8Gj13l8NVR4pqm1fX31w7+e+//p7LaH/eUBY7K+++qr20ks/isQ3PJypdfQ/+cGV6gPnstbOaStYY3lBe0CQHlrukLkBixCJK7xBCIvKhGoSYZIs31I9+nUFXpWZz0sJjiJhl2Dic22vfxnEfWAxIeIjj/jifWWHW/JFi1vyWXvN4aHarpNj1Yeljk2P/s//9ofx+Xh1UFiGwjJ14qvbO3sfeNKUU18/MWk9dGrcvGew4G2tusEqRlCaF5jro6Mt57QU3puwOZBMEWop2X7fhWln+7Hx2n3Hxs1HT0zUHpFaVn/+u6/9qv2ll16as3EAhLDzApf6wzeOJju3PXBf34H7v0Ta1v3OyVHzkaPD1V1X8s7qiu23u4xb7vWhkBvXDgCLC4IY5da7r2PkqgQ5XOcDHmVvKvK/IfAnT55kBMsVlZBSBOOqhpnDy7UU4cZ4jZAAgMWEiI/CEYI9bskXnaBzqGCv/XjM2nV4pPbEdMv257oe/dbB//mHb8dFZj8X72SL2eF2P/F3OnsP7ns8j9u/+u7l6sOHR83PXchauwpmsNYPWAdPjqL9mf92Q9xFaprplhthPtEQeYq5JU87p6vu2pMT1o5fDVX3/+py5WE7subZ1Qe//uj33zvVIsRYfGK2EAWuX//6ZHrrwS88JLWs+tqvL1UeO3Sh9MS7VyqPnpiy9gyX3TUlN+jwEaq3uYsLntUrAIDZQmgvpjx6WhiTMhf2gqRoZuPkZ/IbAi86bI1fvnAmCIKhCGF5jWCTYJ53Ml5agAQALEYalhflMb8WMGPK9LvOTdvrPxiu7vtwqPr48YnqU0py9TdS2x9/qn/7/r0/+tHhWelpL0REWKCbnujpryqZz58crT38wZXyo78eqt57ZMzaNlh0B2qe384YjX7Kcm8K+nIV9yZhfiHumUksoJGyTVsuFZ3uw6O1Db++XNlzeLD0iLDmidH21CtvnOyYrZoWES4HP//3WjPr1jx2Ke9+7vho7XH+ew/88lJp/3sj1e3nc9ZA1vTbrIBqlGDSjD8AsDjBwsB2eTytcTu7ULb8S+Pnzl5qnPxMrltFXz71miNjUtQIKWsE2QSzgCeAZkU9ACw+QmOxXl3vMabXHNo+ZXmrL+WdnR8O1Q6+eb70+e+fyD/xH4/kH7mU6X74T/7jq3fVo/vZl1+W0N5ne0d6nvz8W1fQl352qvDg24Ple05mne1jFW9NxaOdboASlHGrPRyI6Bpxb1K/7OVLeG/i3jHhGYjkUBQt87ARne+OjNS2/e3Z4v4fHZt+6J288dv0wH/5yP/r1Y/uapIaIe7qnqfaPnaNx/78cPaBvz6R3/+ry+WdJybMjVeKbt+06XWYLkt5jKo81+RXV/8HgEULTzg8AQUqRhY3uEsKQZVvf+Og1Tj7mVxX4AUqwq5BGBd65PEvp/WMCRQeWMQ0MmqGCHYR06oubRkpOz3HxmubfnGusPt7x/P3/YePsgd/cbb4yKCx8Yn//v/4ZVoIQv1Tt4bwLyzNTnP1wMkseuy10/lHXz1deORvjud2vzNUWXdm2umesv2My5hx1Wpv0kw+Yi2cOLMSxCW8R76oV4VLNmXKeNVPnZiyut68WF7/g6P5PT86nn/ktTOFxz6ejjz5f/3zD7vDAtTtwBgWn/G6Hu0Yt1ue+NnpwgP//vDUru+fmN7wy4vl3rNZsy1b8+OmR3UP0XonR8FKeP7Akke0wWsS8jUZ2xpDbuPwTblu9BaZWH7L7zx49Er1K7yk/cCkTdc5lCW4bzEwR8MXMHcwhgLG8yE0HVOl4zu7jUM7E/Sv/vQP9l5oeJhX/tGfn953atL+2kdj1kM5K9iEJJzibs47rt0VoYhy+5mJwinljmu+gu2IJhdWxdSh/qR8OqGRDzOGchHVho4V0oVq/YM34BWEtmw5iYdXfbnHIvrWkh2sG694uyfL3uqi6XebvDDB00cMSYSnkRvMDjdT4MU54cJjzRP8wEpIXpQ7ETaU/wVhZ6GyocvTyag82p1QL3ZF1aNJA10IvNKx4GfDOfRs/WM3YsvJk3iy4/OZWrR1R8Xy1pQdum+o5Gwerrj9jsvaeHJSwjBpvrnQMNxviWbQCOYzbPjj4XkA6k3I3j09seKB/vjJvQPxtzZ0xb6/KqMda/iac175MLvv47HqM7zA9OjxCWsjLyClw7TfKB8Bc4xofqfIjyq42G3IZ9a36b/c0RP7wT/77bUfNHx8JtcNJSHwZS7wH3KBHwSBXwBA4GeFq+LJn6eogyI8l+elX14KzmkSHlUlMqhK+DJ355OylDNU4hCZUZlI4XumYkhAhy+qXIMKDpMrfhCRfdSlYLrB91m/E7A+O6DtlOFkQJn+icVe/78uTcFonhcJeOaxlZC+GkESOrFgOOB6YUkSLvFwmdQJvqLwsHF5uPhEmkgryEqpJOBpgT/kOjZ3vhtgXrCSag7TTT9oxZht8AO0xqWs32a02w1QK2VMDR/q1cfKN271EYeXV9+sh019c14AgQcEIo1wgU+ouNgXk89sajXe2toT+cGLX113uOHjM7lh9aSuIMQzQCRDQAKLjWbGe62bydV9Hn+FNR2O3IQkrvO65bE2boGvzlb97WNl975s1Xsya7lfmqx6X5ys+E9zy/yLo2Kbu6ma88Vpvq7Y/hctK/hi3vEfn6p690xb/paqE/R7FLUGCBk8JfHCL/+d61mHM69RnFvpSar5DMJnJcKGhwvGEf4s27hY909bwbZJ09+fN4PHLdv7Uok/+1wYNk4YLmHY8O2pmvd03vafLrreF4uu/+RELbg3Z/lbSzxcbL8h7s3X38QPXi9sbodmGALAAsAzGK7HCEVu48XSGwu8LCODmzGKGBrvaqK4m9QBALMFz2WbFmDTzcx5Z2yGiP0w6ooMXmT4TOOH0gyzXorQRtNnu6cdeu+k5d0/XvUf4KL/wFiJO76e5Pt5K7jfdPwDnh/cw/xgOzeu1vDPdzGMRa2WGJVN1GzdPHGI67j22sJrqq8aixXCjPsOw0Q8Q6YyjFLcieF81zFGd/Jnvr9qBwdzPAzGy5+EjdieMoMH8nZwf9Vn+12KdvHPbKAE9YTjDaCGuAuujR+3Q/MaZ37FHX4VANwRM+Jb3U65dYW/ocDHuLgbCgmt+Hr9Vj2tAMCi50ZRNYzGfBFajVjhTsw+1xow1GMHdHXNY2tNj66rcVcRzq1vO9x5AVvLGOvnia2bf0+Gfy7CU4/oIX/7SWOmQFy9pjv4nqXMp+676cJwEc80ys+Lke66uTb3i2cvwiAMFx4mImya4WTxcy6lqwOGRbi08O8Qc+zz7xBmCf+/G8THm19xl18FAHeEyCsw42VWwmQZU67H7K4t+BdeeIEJCz6qSEyXECViuFqeuzVOA8AC08i7Z7r64hNm7l5zqv6ZUFEkngJEByyDIRzllmOcW4GJmY5H+gQ/Ll6pi3P/Qng0/llROOBp59ovvgFNb9eugd9EPJv6u+kKz9x0fkAMNxwXYSDC4jfCRpwL/Yi3FkRYNmpTxPeEz5kvmus7pfnRa9cAMB+IXiqEBbos+bpKPEUTA0TeGjeuolekwBBfJhFfEs38obyHCwBYWEQG+ynLT7j6qU8hjl3veJPwvLAaiRAUIQw3d3W//HPC1b/mlgh/q+GAWyMcPyAU7Ju7eoHrN59u+Mz54m6fe/g9DQcA80vAo7etKaQaVaVqRCa3/JrcDQVeVbFjaKSqyrjGd536q0b1cwCwbJmZkUOGvriAsAFWHgHXXYcLdVlRSBZhdkVy6UTj3E25rsBjjBmrmlcUIo0qMslihCv8MBd5dstVAwAAAAAA3BVisrcqwWhKlaURROTh33mkJ9c4d1NuaMH/7ufXZpmErsgSGSOITfMfMXmJOWicBgAAAABgrhAGNUMedxVuck/5lJ7WdHmkcfaWuKHAczOeMUTPIUzO841JfkRY8fzHwIoHAAAAgDlFjMJJmcs1t0IYztk+Gv6fnukbbZy9JW4s8Jz/92+tH/WYP4Qx5hY8E23xPld+xksU9f520CYPAAAAAHNEXeQJYrWIwpzGwVvmMwVeEFEUSyK4xi16l/9YvYoexB0AAAAA5g5RiS4cQgGWkCfL5LabyG8q8LokBdxmF1XzAXfCegdpBwAAAIA5B4t/JnOp1qRQ7G+Lm1vwGhMzaCBEG1XzAnhFBQAAAADmHq67Ygz6tKI2Dtw6NxV4QxFlh2toCjyIPAAAAADMLqExLRbccZ2VCUGKehtj1Da4qcCLaTPD8e0BAAAAAJgHuLALfRdGtBQqPFJuX99vLvDcgEeqQpDE12CwAwAAAMD8IKZVkBUJqSrhrnHwNripwKcNBbXHlXCtyFziRTu/KFkAAAAAADBniNlcUzEZZbiL3oEJ/5kCL3Q8YcioJaEy8SMKwSy04m+/Mx8AAAAAADdDyCt3Qmt1blRnuAZnElzgxbyKt8lnCrwYk95QZdoWlYOULgWqhPnPNtQdNB4AAAAA5gShtoZMWEdURr1RbmTPRS/6WETyW6OqndBlR8HYQzR8Fx4AAAAAgLmAayymiBkSpp0xNeiMK7Q1oty28t5U4OM6K3ELfjoTkQsKITUcDldL+Q+BygMAAMwHIqO+aWYNLCMow4wFKkFOiyGb3Io30zrl2nt73DTOWCffuJTQpfMtujyuYFbADJsowGKO2qu19cDC8frrr7f84he/WCvWjUMAACwTeH4bdnuiGBHGHcZeuD+fYMaNScjq5xH+sMU8cgjZKiGFpIankoY0pSiSWT9/69xU4J977rmgzdDHuMhf4T82yUW9irCw4kHdFwN79+49+Oijj/67xx577A+ff/55KOQDwHKBS7nIZQNKSRAEiuvRiOOS2KFDh8TwJPOCbQayHzCZUQZ5y3wQymq4cBDGRUXCYzFdPheTyUl78OhtTRUruKXS4PPPH5ILm1d9/vWzha+fm7b3BZj1I0Ki/ALCUWyB2YYHcMA8XoqbjqnS8Z3dxqGdCfpXf/oHey80PFzlT/7kT7TNmze3+L7vPf3009nG4VnlH/356X2nJu2vfTRmPZSzgk1Iwinu5i2TAYAVR6MVtDsqBzvbjeqe3sjQrp7YkY3dxq9UIr375quHLlRTlhCCOYM6KRLp2XT/hSnnS29eLh84nbNXWz5Lhmm/XrEAzDa8JIVoWENeVQm6zMP98IFV+v9xAJ/4NTe23YavW+aWQ+m//csL9//ifOnrZ7PmQZvi9RThOLf/IZOfE25d4OcDEHgAmGcahlyrQdjalO5sbtWn1rVql3rS2glDxRe9AE0GCHtkjro8SwSTUs2NjJac/ot5d8eRMXPLlZLbbVMUQ4QbdqDvc0ND4GUJFyIyPru3N/arA6u0v/ifvrbxaMPHbXHLwfTiq0P3HDpX+NqprPlA0aGbvYAlGcIKBPRcAAIPACseLt2GhFFaJ6xVk6t8neX5wbgkoSxjuMy13edeZl3gRZaOMSGuH6hVN0gX7aBzwvS7Sw5L+YhqiCs85PtzQFioo4wX2ryoRvKZqHxiT3f8rd29yvf/hy+sP1n3dHvccjD9y0Mju966UH7m5KT50ETZ3coDvoVb8aoIa2C2AYEHAIBn0DzTF1msRCmVELK5dVfmxywu7i7PvXkWLHzMAbwEwZdca5AWIBahBMcDhDWh/CDuc0RD4GWEnbQhZXvT2rHdq6Jvbm9X/uYfP7bmbN3T7XHLHSfiCrJao1Ipo0klTcIWD+N6R7u5iV4AAAArHpG9BnzB1ZxYAdOtgGZMRjssxnosSnutIFg1J058N0M9NmLtHkIpfg11cW9eFOT7cwN/rhgjX5dwrUUlpRZVLqYIdhpnb5tbFvjah8cHE1g636JJEwYhBf5BK+wMAAAAAMwNTWtZdGoTc4aqWEES1pGMI3w/OqdOQhFE+G9J/DfJdcQdRH6W4QYzN5wxZaYh43xalyZIgM6gwcGJ+vnb55YF/h/+w6edpErGWg15RJPJFA/cxutyAAAAwJwhRD50fIEJRhIXejKPTvxm+NuN6wDmEk+ScDmikMlMVB5OEC/3+7//iN04d9vcssALov4H53hwn9BkNClhVOYlDtFtH6x4AACAlUJT5EHsZxFhvWPRp8Lh5amSLssT2HM/Us0rww0Pd8RtCfy3v/ENi0jSlOjCzwgRo+r4/LqgHX4Bef7556GzGwAA80PTigdxn11CDWVC4H0kk5qk4LxPaP6PfvfJWnj+DrktgRcoKvaIQkxCMLfeeYkjLHmAwi8Uf/iHf/hFSul/1dgFAAAAlioYBYQQF2uSpYnJ3e6S2xZ4Q5NpVJECXSaUW/KfKDto/IKgKEoXX90Pw9QCAAAsQRraKQYtElOyR1VME6oURKJ3PwPAbYtCOopQQicopmCmYP4FUFWzYExMTHSk0+nexi4AAACwJGGhlka4IrdwbW3VCEsr6vwLfEpRUIsuo7Quicno6wIP1vuCYBhGgq8663sAAADAkoRrqJjYJSpj1KpIqE0jKKHVT90Nty3w7VEVdUVl1s5LGBEJMxiUeEHBHOhkBwAAsJRpCrxEWMaQWFtEZm3a3Sv87VfRJ+SgLSp7Ge4iKvb5F/BLC1/QB+YZSqnHGLvjUY4AAACABUAoZlM1w37qjAs8phGF+JmI7KWikh+P3b2u3n4VvSa7mbhaSkWVoqFKNYKw17xAYH4ZHR0V08OO1vcAAACARU8olWLxad3EEnKjmlxtTSjFdFSrKDg6/73oXZllNY1cScfUMV2WsgSzan3IWlD4+Wbbtm3VM2fOfB9j/IsXXngBnj8AAMCSg2snRR634KtRjUxlYspYTJMuppFdani4Y25b4B/sTxUolg5HDfmYoZAR/gUFftjmhREQmAVgy5YtJ7jA/3vu4PkDAAAsKYRhLMaTwZaM2DQX9iFdkd7zrfLJffvWzr/AC/7ePe3jtmOeMGQyQRAu82ucMegNAAAAAADXJeyXLhYNxxjl5rErYVyKKtJ4uZw985UDayeFr7vljgRe0BJRnIgqlYksWfxbfIRB3AEAAADgMwmVUiyaji8I9iVNNnWDlGKqMmsdp+9Y4FO6HBiG5Cgy8jHBLJxtCCQeAAAAAD6bmfpOCJM0TBVd8jVDdo2oQoWX2eCOBT7GBb41IvvpiHhdjviii39YQw8iDwAAAAC3hIoR4waz3xZTvHRE8iJysPACHzcUvzMmVfsSarVVky1+kX5d3EHhAQAAAOC6hE3vYsHhRrEuY683ophbMkqlL6qbGUmZtSnY71jgFckrtkfVsdVpdbzNkHNc4E1E+V9z+tjQmgexBwAAAIDfhDHMkB8huNobk7Pr0vp4ZwwPKwnDani4a+5Y4J/Y0juNfeejVRntdGtUGdUILnBht37DigeNBwAAAIAZhIawUEdLk3A+E5OHO+LyCbcwcfLJravEq+ezwh0LvOD3H1k9qCHv3ba4MmTIJMe/zEKiqr5+8SDuAAAAADCThi4SggIZY9vQSD4TVYad2vS7x9/4/thsjmlyVwIviGmonIwq44m4PB3RJVMmmAs8vvqKHzA/HDp0qPPNN99c3dgFAAAAFjEakYJMRHY64lq5NapMq4Fvv/jii7PWwU5w1wIf0UklE5fHeAlkKqZLJV4icUVLfF3kQeHni02bNj384IMPvvD888/D7HIAAACLkbBmm4XDxqgy9loicq0rIZda4koxkmR3Pfb8tdy1wP+9g2uz2LM/7omro62is52EqvwmxAQ0jcFr+SK8KbENzBUYYxGW8e7ubihVAQAALFq4NlIcGBKqtUblXHdMGU/rZKJNMWZ9ZtC7FnjRXtDKWG5VQrncHpHGdRwOXVufYe6quIO6AwAAACud0PBlGFNTJyTfqsvD7TH5bHly+vivX3ul2PA0a9y1wAtyR/5iAvnWkYQuTagyKSIs5igXM8zxW4G2+HmBUioix9TY2BiUpgAAABYbzZyZYA8RUpNUko0b0mUrl31z7MPs2Gy3vwtmReDFhcnMrsYMuSgrkokx8cJGhvCGGgoPIj+n/M3f/M3rnP+Bh4XfOAQAAAAsKoQoYh9LuKYqJBuNKOOImuUXX3xkTvLtWRF4QWtKDloMxUnq2DMUTCWu8I1TIO7zwLe+9S3vySefnGrsAgAAAPOJULxr3acQbe+IKdyCj6pSJWUo2WRUHtPb5Flve28yawLfpqqsPSnR1ohCE4rEtPCbf+MOAQAAAGB5IfqZXXWNYzMRx/g5buv6hoScVl0udUalKTufP77WHC/XPc0+sybwKd1AnTGNdkVkmtElqiqkcZvXu1sAAAAAWAbcSNCvA0aY6jJx23RS64grRdm1zOeee27Wxp6/llkT+HgioG1Rxe1KqE57TPJ1idBwinhxo6DxAAAAwHJDaFxT4GY2RX9Gs7Rows5EVbctotipiDRn4i6YNYFXGXEzUanUlVJLbTG1ZkjEQ6JPIIg7AAAAsNz4DW3jqi4Gd2uK+6dEnnsWVfSUsqhMWEdCpl1pjfL/OVXIWRP44TMf5gj2T3Wn9PGOhDYdkXANB40BbwRi2XQAAAAAsJQJBfxTKl7fbbpr4QYv5i6hSmggbaA1LRrr6Iw2Ts4Nsybwoh2BmMWprqQ23JFQxqMqKRMxbO1MQNwBAACA5cJVkefueqI+A3FajCOe1CU6kNGEY3Os77Mn8IJj75YnJep92BpTxlIRpRBRsaNgMeDN3FZDAAAAAMCC0ND369KotRYvjesKYcmYGmRiqp+Oym7CUDyDRuZUG2dV4L/1rX2eVZucao8r0+m4VIkZsqPKOJx6pn6XoTcAAAAAWBmEr8cxFtFk1JJW/JakYsYjUsWQSVVV3aXRya6JgSW/NSKXBjJ6ZXWL6sR1Kbjam14AIg8AAACsCIT2sVBoW2KSv7k94qxu0ctJXc4WS6VTnGrd39ww6wIfiUteJqqW17capU1thtWiy77oWHBV4AEAAABgpcC1T+KuM6LQHZ2Gs4ELfMYghbHLI9PPPffcp/upzTKzLvAfHCoXVRmfXZVWp/syRjkZkV1MSBCOTS8AoQcAAACWE0LXmk5wdRsjRSIookmoPaYGq9Oa3Z1UK1FVLsuyM6fV84JZF3jRDp8bG5xsi6v5jpRaMaKyg1VCEcH8hmc+AQAAAABYDnBdC5uihftkn/C1oRKUisosE5fd1rha5dslQ5bKqqouPYEX6BHitcaVUndCq6xKak5XXA1i/CZDxM2HDwAAAAAAlgPcgL1O/zKJH8vohPUlVa83qdZaY8p0XJXHPds6Oz4+bjW8zRlzIvBJRfFjilLuSijlzS2ataNN8zt1GUniJIg7AAAAsJwIxf03RV7GGHXFFLa1TXdWp9RiJiKN6woZvXTp7NjTTz89Z7PINZkTgR8eHi5rGr3QGpFyGzJ6aXub4bRzK14S9RXXKeV8CrDwAQAAgKVCU7OEtjWGqsX8T+HbEQWzzpjib24xrL6Elotr8pXAto9wnyZ3c86cCPwjjzxin7pw4UpEk6Y6EkqhO61ZyYjkE5n/nGiLv5HIzxR2EPlFB4+vECoAAABNrvYr4y5ciTULq+ajCkYZVWYdCdXrzKjVdEye1mQ8fvr08cF9+/YtXYEXxAnxVBVn03E125XSKqm45kV0iSlc5EN9Fw8DWBoETAxF6DGKXB5uHnc+oixAAaXhIIXgwM2Gu9pBCQCWMDwOy1zkEipB7TGZtcdUszWlTceiyoQi4SlCiN/wOefMmcCPj49XNUm5lIzIEx1JNd+TUMyuqBokVMzqbfG3kJjF+UaJCBL+wuEGzKEBLrOAFpAXcEdL3FW55Fv8pMuPecilPj8WgAN3644XEj1eSPS5ugeQxoEljoi/3IlhaSVuxiY0QjuistkWl3NtUXU4rsmXZSxdyOfzc9723uRGleWzwvHjxzvWbtry22NF9+HXTxd2/uJsoev0pBW7nHexJUrs4tdnTq8naCZycWymsF/rb1nDbzxgYrrd6ZgqHd/ZbRzamaB/9ad/sPdCw8O88t/8u3NtFwq1+3nY3Zuv+Rt58bSVlwzjPEAiDLMIYUjlRUUJMRFIAHCLYMyjjuh7yzSPGz0eRkS8NxSIhA4xCVgqNDVKrHnWLQQ+qWC6vdOo7eyJjj20PnXugfXJw7EI+cVPfvCDj77xjW/Mee/5JnOajA4fPhzZuXPPfXnLe/qDwfJ97w1W1r1zsZL5YKQiVzwuDWF7/GckZhD4RSHwgmf/lxN9DqJ7/YCtwxJuIRinEGEpHiRpHjRRHqllJnqWAMAtwLVctNUpPK5HeJaYmKx5yfGSo5Y8Smo+48Z96AkAlgYNcRdrElDaYsj259YlJh5YGz+3qzdxeGdP7NAvD/3k3S9/+cvz0vbeZM6T0EfnzrWtX7XmuUt5+8HTE7Xt/+eJ6Z7XPi7Ecw4lVPREuJlwXxX4xnpFsPgEXvBvfj7Roep0FRfyCGUoFjOkjogsdfOgiTHEVB6UKyqUgLuAEYlgZjCM2xyP9R0bLnf/6mIpPVh01DEzwCYX+bBCCGIUsBQIdYovKGMyQ353TC389u6Wi89sS7/XntReO/nL429+4xsH581ybzLnyeedd94xdt9zz31Fmz42VnT2f+9wbuNfHZnqGK96qs1TMBWXAIn4GhanwAsY4/LOeeGFF/C3v/3tjK7HVvMA1PiZsGsFANwMzOHxRVTHRymjWyo23fXGmcLWvzmSW3Vi0owPVjyp7FFERUwTXgFgMdMUdw4XdxqVsL2mRZ/8nX3tx7++u/X1o7/68Ltf+cr9VR7tm+bqvDEvqefcuXOJzr7Vj+dN7/Pf/2h6318dzQ1czDvJvONLblPhIR3PYPEK/LXMFPzwAADcIs8884y0ZceeewqW9+Sbp/P3/+RYbvOJKav1ctlTyh7DIPDAkkDINs+yRY/1iIxpV1I1t7RFRr62M/PBF7dlXvv1odd+MN9V803mLfUcPXq0vX/Dlt/96Yn8wz8+Vdj28bjZPpi39bAtXniA6rgZLB2BB4C74dChQ/rqnfc++8sz5adf+zi79+Sk1c0F3ij7jIDAA4uepvXO/0UVZqsh0S1d0cqevtjQo+tTv354bfy1H//1938ynx3rZjJnr8ldi+/7jiyR8d60PrWnN1pd16K5UZkwwrVM6FndNTwDALAiOHfuXEARKTPEKjz5OwzjOZ+AAwBmFaFb3BFeGI3rMlvfpvu7OiNOT1w2JQnZ7e3tC6Zs8ybwLkfCZLgnoYzv7I5Ob2jVrXREoRrBrDH0DYg8AKxAsBg8SQykhLi4M54JLEBbJQDcNiKWCs3iiEFaoypmbTE5WN+iWVs6IoX2mJojTMpyaOhpAZg3gT948KD14XsnPo4bylB3UpsYyBjlTW2a3ZdSWUwhSLwQCwDASoRRrusLlgkCwN0gc5fRJLQho9Pt7YbVnzGKbQllIqrLVw4dev3Us88+KwqwC8K8CbzA96ctXcGXMnFlqD+jZjd1RMz+lBbEeMlHvBJft95B6QFgJYKF9Q4AS4Z6dFW4eGV0iW1q1YNtndFqf1qbSkbkQUMmQ6VSyVuI3vNN5lXgxSQ0Vy6e/TCiSBfb4urYmoxe7E5rTtSQGZb4pYQdariDZA4AAAAsVrhGhTPGcXGPKARloipd1aJbfRmtmIrIo4oiXXj//XeOPPfcc27jEwvCvAq8IJvNmorMLqWj8pX+Vi3bm9Fr8YhCFbk50KlQd+5A5AEAAIDFRihRYuZzhlQu8HGdsNa4EnSntAo3WCdjujwoE3RlbGxs3sacvxHzLvDCij9z4sT7CV250JPSx3rTaqknqdqtEZkZMNMcAAAAsAQQE8pEufXeFlWD7qRS60qq+Za4OmLI0tn33zn70UK2vTeZd4EXnD9/3owZeLBdtMWn1Oz6lFpblVBpQiPhPLrA3fPd7343+uMf/zjd2AUAAABmhXoNs9CqpIpZT0Lx+lJqoTOhjLREpQu6RoY8b8JayLb3Jgsi8KJd4vL584ejunS+O6mNbWwzSuszup3RCRWlojpgxoeImqA7YOfOnRuffvrp/1EIfeMQAAAAcDcIWWpIkyIh1hpTvPVtemldmz7eFpPPRRX5+MjghWOPPPLIvM35/lksiMALBgcHqzImgy0xeWhrVyS7pTNSa42qVBFXBNpeR/TiwAwThEnw/2/vzYPkOu48v5f57vfq1dlV1feBbnTjaACNkwTJEQFKI44U3JXGI2J2PLvmTIRjOLHBCIXtjXDY/oNExIRsjz0bYa8nwmKER6N1jD1LaC2J4kgipRUA3sRBAsTR3TgaDfR91l317nTmq6pmAwIhgMTRx+8DvKPey1fd1S/z981vVr5M/t6G9BoaGho8derUv7169ar18ssvC6+//noDW3784x9Ha0kAAACAuyXQpao4sWgsi7yfjsqVLU2hhc2NoRthRTw7OHj+7Y0bNxaCRCuARybw1F1aly8PnTJk8VJ7gzLZTV18a1QyYzLvKzzTNZpoPQ98w8SdENbII/oEKQT59zSZCxsacd++fSOHDx92n3322c7nnnvu39PlJ9/61re+/6tf/SpRSwYAKwCEEZsbPpiEBgBWKlU9EmguDUmYpHTBbYsrxZ6kOt2ekEfCGh6lxiq/Eprm6zwygWe88847eVEg18OycKMxLM5uSCilrgbVi6tCMHgA57O/07pVeBbsRMIh3edI3MVSqD6xy73y5ptvjp49e/a/P3PmzH/16aef/k8XL14s1k4BwKMHcxJdi7RGy9NsH1RsqycAYIVBTSczoG1h2e9v0szeBiUTDwkTiogGLw8Onj106NCKGmr5kQr8iy++6Ixdu/axJqNL9I802dWg5HpTqtVoCIGLf6S/3COFBjnEOmlimXB+1Pb8Fl1V9//vv7m8oZbgnmAufufOnWd27dp1cmBg4JPvfve7j/zxDQBgRKNRwSd+iGZ4g6q6TNV9/RZ7YMVT6zlP2qKit70pVOpuUObCCr6OCT/B3Hst2YrhkRcm6ipziODrUUUcY3+szU1qqS2q+BFF4CS+/thctWlkfRGIvOIhFCs7fmvG9DdxvLb7zTNTqVoCAFjVHD16VHj2D/9wm8DhDirsCYKQRsu5SPM9OHhg5RA0JBNOoCFZlTDH5lBpiyn2hqRcaInKs4qAL01O3lhx7p3xyAWePSs4Nzf9sS7zw51xZXxzWst0xuVKgy56Gv1jBo/NrdtWeoJ9jugllyRnS3brQsXtyNoePPoGrAlGR0cFath7MOZ6aOxM0WCk0Uwv1L6eAoAVQtVgChhxEVXgGiOS356QzI6EnE0b4gwV+Jm/+7u/y9USrygeucCzDgnDw8MZUSDXoqow2hIRp/pSSm5rSvFaDJGT2RC26xUa5nxacSzYnj5VcBvmim7a9XGodhYAVi0/+MEPlH/5L1/Yz3NoK+FQB8KIdfzUoIkeWDHUnHsAjcXMcHbEJNLfqDob4kouqUkzIYmfknk+98orr6xIG7oiChN7ZjAzN3dWldH5VEi6srlBndnZrBa6YrLLxvldlwQeBiOXcHze8tTxnB2bKzrNqZjS7/t+S5AGAFYhr732mvRnf/Znj3OYHKAvd2DCtSGCYjTPi0EnOwBYEVSdO1tYpjRkTHqSirWzJbTQm1LHYjp/hRrQi1NTY5dXUs/55awY9Wxqapq/PjJyTBXxucaINNadVBY7IrKZVnk/TEW+2lRf+4OvF6qhDnkeESuWF8mWnabFots3ulhpDc4AwCrj6NGjyne+853HCSFfodl7gMbFDQSRNBV7BXEI3Duw4pAFxMVVnjQbok1N50JXQhlNhcRBReQ/ymTmT7a3t2drSVccK6ZAsRrQmTNnpmSMhqOGNNKcUGc6EnKpIyx5SYVn3Wtr4r6eFJ5BHY1PROJ6RrHiNo0tmBvHF9zHzl2vdNcSAMCqgDXLHzhw4HFa1p+hpXgPra/30uLMWqM0Ku73NM4DADxwmNTQRRMQaWUj1sXVbGdMHW+OyBcNTXpncXri3VQqNbVS3TtjRdWYWS/EQiFzjnW4azDkibaEnO1JqmZTWPSp8Fefi1+xf8oHCI1+xEdqruw3XJqrdA3PlvdVfOfZmZz9RLHoN9VSAcCK5f3331dfeOGFvcy502UnPdRDl2Yq8npV3NdjwQZWFCwL1pc6VHNCPO+1R5XKxpQ81xqRRkIy/4Fp5t/r6OiYrKVasay4JrFjx47NigK+GlHwaGtcndrUqufaYoqrMoH36F/+1huwHqBVRA9zQsZ0whenyq3npkqbJvPW0yXX+6aL/afKhLTXUgLAioM1yz/++OO76C77zr0q7gg1061OK688oUE06MtUK94A8MioZ0C29eniEk4Tkd3VIGe2NIYmmqLiVVVBl1ri8RtBuhXOihP4559/3ves8kVZ4s83RsTLG9PqeHeDmkkbkhsS+WCYwDX7XTz7TPWlDvu8rPGCbgo2Ea9lrTgV+M5zk+VtF6bKj41nzIP5gv31bKXyhQbBAYAHyalTp7Snn356L939Kl320KWP1ldbaBkO0S3P8nqQ3etbAHjUsIxIFzZ9eVLj7VZDKnQ3KFNdSflyXBM/cTxrpJpw5cPkY0VSqZANZd/5+lzJefy9y/n+Nz9dbD87VY5Nlx0h7/hcMJgl63C7Yj/BPXJrdFv+uWrnWOVGoVWyZEh0t6S1Un+Tmt3Vaoz3pdXLaUM4ndDkE5blVESRsAEXIF4Cjwqq3Qg5jiPxPJ+QZflpemwbXTbShTn3ME2BfercTeqQMmWXe/dSlvvFp/Pc+ekyN5J3OFbG/XoZB4CHQT1iUgPJnG9jSPR6onJpT3to7Om+6LmBFu0XER29G1VVEPj7QaXid5d99/fPXi89+c6V3NZTN/Id56bN8FTJFhx6M/x64V8LMeBOAl+HpsF0xWqWcVXw2mOSs7dNz+5sCU32ptQbrVFpQpP4LI+QxRJWm2cwh1dcOw2wlgmyG+Z4QohG83EDzYltCJF2mnUb6RmDan+QhHWpMV2fy1Y87r3LVYG/MFPhrheqAr9UiQeAh0EtBrPengpGXF9KNfd3GvOPdxhD21q0jzrj8utRXTpRTbU6WPGlJ2f6G8fmS/9seKryex9eL/S/N5JrvDxvagWXYIt9d7dWgsBdCjyrXbKZY2UecTGF57pistOXVPI7WrTFvqSWjetCRRaxKwiYzdzBYZpbBZqWZzEVYiXw8GDjTEs0v+pU0GM048ZoYQ3RrLtU3WQCb3lU4E2P+2Akx/3qQoa7NGdyE0WHK4HAAw+TWmxlmVMXqYFSBG9nm1782qbojV2txummiPBWKqa8o2M8HqRfJaz40sNmUBvPmgdyZfebJ0eLj/9meLH7k4lSYrLoSVnLC76bDoLAeokDtYoAc/Ii/dwqFe+UJng7mjRzW5NqpQzJ0xTelyWew0FFAHOShIMKAQA8RKius2yKBJplZZpx6cKOfabYTOBt3+cKtsd9PFbk3r6c565nLG6h4gbOPsjqnyUHgAcHy2w0Q4rUuad1gY1YR917ZO6ZzdHhbU36e4qE3kjq0qlq4tXDqig9i+Vyh+vyv39uovS1ty9lt390o9A6OGfqk0UXOyxK1D/FagwGQRQLVnf/+7Pk9Y6GdKsJmOuKin5nTPFjNHPKMk8keoyn4i7TrS5QK1WfuAcAHhIIEfqPZruqMQrUPThBCbIvXVziB2J+ed7kPp2qcPMlhyvSintQrhkg8MCDhmVEFh3pVhEQ2ZhQ/d0tamFfR/j6/g3hMz0p9Re8h9/XNDxWvWD1sGpKT9m291+dtf752YnSvhOjhd73bhQbhudMpcw64wQ3iMKCwWqLB8GvXvv9GV9A5FmTPRNxTUREEqltwpjD1LFjKu7MwRt0X+VX358GWCMsE3YGy7as5a1ebFn5naeufarocqw8e1Tcg5Y5AHjQ1OIoy6HMEEVUTPY0hyrPdIdnd7Vqg30p7aOY7P3YMIxPqxesLlZNzPd9v3UmZ31tNGM99fGNws7jVwudp8eL0dmSh8u2xwXz9N1OHFf6JwyCXC3SMe5W4BlB5qzt1PfZ5WzBbPgQFDQ56XRhIwGu9D8FsD4IsipdMRGnWTOg4hGuRJ08G+oCAL40y/PRnQJfLSNKNFbGNJ60RGXviY7Q4jM9kZGtjdrHDSHxuG/m300mkyt+UJvbsapi/mzO7KVC/gdDU+UD747kt354rdAyNFNWJwouNutN9Uwg6zc3eF3dXdHcbWa8HUvX0p2lz03fpDZ6ImuYZ4/XwTigwEpiKdsG+R1RYSdsTJGbigIAfCHqmYhtWf76vJjKzjP3TpeIhEhfg+YPNGvFfZ3G2O5O41xrWP51qZI51p5OX0MreDjaO/F5H33FQp38E6MLlT/65EZh73sjhY0fXC/Ez0+bUsGm1TD2Td9qFPgHAauZrsosCawr6i1W67WcAvefetxj2ztpAD3PxF2ku2nq3ve3G+WneyJzO9v04Y2N+gnsFo/E4/Hzq1XcGUuPrKwW6B97PCQLQ71pbay/OZRpisimLCJ/aR6q5Td1XQcN+uEDJw8LLCt4qWVVALjv3ClfBZJNOAEjTqPuPRGS3I6Uku9r1ifbGpTLisKf9zxvfjWLO2M1CvwNXRHPtcbU0Z5GbbozqeaThmzrEiass1ngXIOqWTX9uoV9flhgWQ0LANxPflf+CiSCruh/medIXBO99pic7UyoEx0NyqVURPmkVCme+tu//duZ6gWrl1Un8AwkoklZQMPpkDCyo1GferwtVNwYU/0Qe9abfRcf3MBqWgAAAAAICLShqhGIEGLIgr85rRX3dugz3Qn5ii4JJyrF/PG333rr+uHDh1f9wxyrUuBVjhvDxP0woYnnNjeqVx7r0Ke2pJR8QsY+NfLBAFgAAAAAsERd3Ck8VT5VQFyDypubkkp2d2torDuhDpdyC1Tb3xplU5cHCVc5q7JzNa1ZcTzPZ3bteaygyZKBMTIc19ct11ccl4g24RDrcxcAag8AALC+WSbu7NHMhMqT3qTm7W4J5fZ0hMaoi7+QCEuni+Xs8IEnn8wHCdcAq/bpqePHj5OQKi08+cQTlq6IzfTehT3P18uuL+dMjy85PqI6DwIPAACwnlkm7kwORMyR1ohEdrXoxcc6jKn+5tBQW1w5UZxfePvMyQ+mjhw5Uk28BljVj0czkf9v/81/jWRVTfgkmMwiUnK8UK7iSSVq4T2q8PURL0HoAQAA1i+sP7wiIC6mClxPg2rtbgstbmvRR1pj8tnsxPjrk5PXxp577rk10TRfZ9WPf6KqamnP3sc9VRaaeMRFK45vLJQ8qWC6gu0RRBeaqqbuIPIAAADrDyoDmLr4qIJJsyH5W9JacXd7aKo3rQ8mVOnj+ZmFC08+ubdYS71mWJWd7JbDejpiz5wNyeKVdFS+1pPUprc1acWehOpHJZ5DTOCD5hm2rV4DAAAArGFqIb8a81nsZzMeIS6hCoSKu7m1Scu1RdXJuCqMLCxOfDQy8mmGpVxrrIkRTJmL3//Ynooqy2GeR5okYMXxiDyTs+T5vFMdqWBpcI3gEgAAAGAtEgh7EPWrMZ/CnKyMOLIppftf2RjO7G43xjoSysWYxp9ZnJkePHDgQClIuMZYEwLPvovftWtXtr27M6srsiFiLLkeUTIlTy6aruzR22yx+83udX30LAAAAGANUhN3Bg33PA4ehyPtUdnb0xZa3N8VHutNKYNxnT89szB3fPLGjfkf/vCHq/6Z99uxJgSewXo+7t25M9Pd05XVBDlMD+me7+seh5Sy44k5y0PBHQSBBwAAWBewcC8LiDp3zXuqI7S4ryN8Y3OTOpgKS6eyc5m3Rq8Mjx88eNCtJV9zrBmBZzCR/8bXv56JxI28rulpWnMLc4joOcuXsmVX8AmH2IxVAAAAwFqlauLY8+6GjElSl9w9rXrm6e7IWH+zNtgYFk+WK7k3f/nGT2985zvfWbPizlj1nexuhdXGCgsL41FdHO5OKVf7m0NT2xq1Yk9c8ROqUK3RBN/RsB0AAABgzUGtO3PuLRHFG2jWM9ua9bGNKe1CY0Q8YVr5X1y9eHH0xRdfdGqp1yxrysHXobUyJxwLl+N6KMrznGY7vmo6Pmuql7OmV+1YX0sbAK32AAAAq5taUGfOnQ1mE5EEr79RzT7eYYxta9IHu5LqKd/O//yXP/nJmnfuddakwLMOE//5H/9xXjXUfEjVIlTAZYw5uWARabHsyK7PIc/zqx0tA3G/ReFB8AEAAFYPgbhXnZtExb1BFf32iFjc3WZM7e0IDXUl1FO8XfzFWz/7yfX14NzrrEmBZ7z66qv+c9/4xmIkGs/Gw2pIlXmpYHnyQtmVbduTyg5BVOOrsJ4YtdrfkriDyAMAAKwa2PPQTNAMAZPOqGRublTn93WEr+5qC52wMpnX3/n169fWk7gz1qzAM5iT379vd2Zb/6asgPkwNe4qjzit5BFlruQINj0QKPlyMQeBBwAAWB0sc+4iRlxIQqTJkDwq6pn9ncbY5ib1YltC/eT86XdO/+mf/qkVXLOOWNMCzzhy5IjX0da22Nffn00bckMyIoUXTS90JefIJdvjCZuR5pZBEUDcAQAAVgk0fGO6qAIiCV30elNa9mBfdPyrvdHBlqjycXF+4Z1KpZBZq8+634k1L/CMN954wz/0h/+8vGFDW4MqCOG87RkFy1ORzynE8zHxCcfMfE3mQeABAABWOjRgs1AtU+ceqTn3TWk1t6NVH9vTZgxtadZOOqXs0Tfe+Mn19dKp7lbWhcAzvv71r7td7RsrqsxHBIy1mMyzCp9SqniS5RDseFTkmZMPxJ2uQOQBAABWJoEbI4GAhSXMNeuSvzWlFp/oMiYf7zKGOmLKR8Qp/mrw/Pkr61XcGetG4NkgOM8++9VcZ3uXKQrICIm84vtELtuebDmeVHYJsqjI39SzHkQeAABgZVFramWTx6gC5hp1we9Lqub2Zm1+oM242teofyQR/63LF84Mr+VR6u6GdSPwDPYdzFe/emC+tbWtoMqChnxOEhCSLJfIC6YjFSy/On/8krCDyAMAAKwYas6dhWXWNB+VBa47qTj7Oo3M7g7jxoakeqHBkE7+9Mi//2A9O/c6a24ku98Fq9H96uc//TSsCL9ui0kfb21UL21tUSe6G7R82hB9VaT1QpaJarVEAAAAYAVQj8l0y3rMxzWB64jJTm9Ky/c1adMb0trVZEi6oPH84OTkpFdLva5ZVw6+DmuuH9i2dWZT75aSJvOKKGBJwEii9ULZtHyxaHmYjXYXVBNhchoAAIBHSyDun7kuGre53qTKnHtub3voxqZGbagpLH+kyuTdf3r9x5deeumldddj/nasS4FnBLPP7do2u61/i6mIvCZLWKbeXcqbrpwvO5JL1d4nt4g7aD0AAMDD4TM9X4JN/apJPNegC86ONj3/lQ3G+EBraLjZEE+EZO6d//V73zsP4v4Z61bgGUzkdw1sm9m8dUtZ43mFR0RyHF9yXF+xXV+quGy0u1ouC8SdrkDkAQAAHix1ca9vWdxFVXFvj8rO9iY9v69Nvz7QagzR1x/qMnf8f/ne9z49fPgwiPsy1rXAM5jIayKePnDwgCXS/IODZ+OJWvF8JW96okNtfH0cHBB5AACAh8QyB48xx8ki5hpCorutUc3tazfGdzSFhjvj4smoho/rknT24MGDy64AGOte4BnHjx8newa2TW/e0mdKGIdEHoepc9cthyiuRwTT9atOnn0fDyIPAADw8KAOKyTzXHNYcvpSSm5fm3FjZ0touDshf2DowvH/7X/+3qcg7rcHBL4Gc/LPPfv7M909XRFVwAmEkMFRJ287vlgwPd72qJMPUtbEHTrfAQAAPDhoxMU0zoo84lK64Gxr0nL7WkPju1r0oY1J5WTMEI6ldAnE/Q6AwC/j7//+74ko8UgV+JCEkUYX1feJaLlE8FyCLZ8grz4SDgg8AADA/SWQarqqSbZBnXuTITqbU1p2V6s+tquZOvek8kEiLB47/vOfnu/v74fv3O8ACPwyDh8+zP4giwee+oovS7xKM5coCVigx3jX58Rc2eVNlzr5QNyZyFevAwAAAO4HVXFnzaWY7jQbkrurRcs93hUeY83yPUnlREST3v7+v/3eOegt/7sBgb8F9n38wMC2mcd2b6+oEuYVKu8Sz4mO50sLZU82HZ/3qMIH49bXFR6EHgAA4HdTc+ZLMTN4zRT95iCqCYiLSrzbm1QzT3RFxve1G4NU3D9MG+Lbx9/8KYj7XQICfxvY9/Fbt26d7d/SVxZFgWeD4Xg+p5dNX7c81mTv85ZbH7eeZkwQeAAAgDtTF/eboAfrx1kspfs8IiStS15fSsvuZDPDtRvDPWnlQ1UUjlNxP3/o0CEYpe4uAYH/HJjIb9++fX7HQL+pK0KE5ryI4waLWrE8sWz7iFUhq9VIEHkAAIDfSWCKqru3gug/RUAkImO3K65md7WGxne2hQa3NKsfacT89d9dOD380nPPgbjfAyDwdyAQ+a1b57ds2aQihFOKyEcFHmvE52TXIzwVe85yfHDyAAAAv4s7xUfqlCTq3Js00duUVHN7WkNj+zqNod60/BG2yr+Zvnbx0p+v85nhvgjrbrKZe4U1BymCMJY0xOGtLfq1vZ3GzK52o7QlrfjNIZHTeczRSietmdaX2oW3wo5/3jkAAIDVxheJZ0zkl4S+Gi/ZSwkTEhYFryMiZXY1qWN72/TBgZbQRynJ/fWJ37x+ab1P+/pFAQd/F2zdujWzpW+ry4tcROCRokq8rEi8wvNIoqcRm5jGpm7eW+r2QbPs8trqrQVh+TkAAIDVxvKYdq/xLLiWrtiWLrrAkY6Y6m1v1jK7O0Jju9pCQz1p7QSxi/+JOXeY9vWLAwJ/F7Cm+q9+9cBc14YuSxWxFtcFMaKKsiAgySecVLF9lKu4HGuy/4xarq9n/vop9hoEHgCA1Uo9lt0m3N019Fp2iYgIiauit61JyzzeYYzv6wgNbm0xThhe4VfnTr975bnnnnOqFwBfBBD4u+SHP/yh/8yBA9M9G7oqIo9VkYq7jLEkYqR4ni9ZVORdqvYOXYKpZhnLH/1YLuz3WhgAAABWCsvj2JeIaSEJk+aw7PWltcyedn18Z6sx2J1UTmAr/6v/9NbPrrzwwgsg7l8SEPh7gIn8gQMHZpoa02VVEo2QwkuazMvIJ7Jlu5LlEFS0fc5yfVpBreX4eue75QXgCxQGAACAFcMXiWc148OSCxiRhCb6m9NadnerPrGrzRja3KSfxqTyy08/fHsExP3+AAJ/jzCRHxgYmO/p3lDSFVmjGVXGrKUJIZnKusSa6amDD9w81flqbq4937nE3RYIAACAlUoQ26q7d6Qe+0jV9oRkTBpDst/bIGd2tenjAy364MaUehI5+TfPf/j21UOHDtnVC4AvCwj8F+DIkSPeU089Nd/a2pKXZTEkC1jUVCxJPOYJIbzr+HzJ9riK49eGta3BMjo8TgcAwHrhFnEPBrHRJG9LWsnuaguN7203Brc0qae4wtzPhz75cATE/f4CAv8F+Yd/+Acm8gstba2lkCppqigIMo8wdfRsvAbq3glmi0cVnX0vv5TRWS5fLvoAAABrkXrMo2CMuIiCSbOh+H0phTXLj++gzr03rZ7CTuGX45fPX/v2t78N4n6fAYH/EjCR3zUwMNezoSunKpKkiNg1FN7XZcGXqNAThDF18kLBqk81SwGBBwBgrRMEvKqxQVTcRQGRjrji7+sIZfZ3hMZ3tYcGe1PqSdHK/fz64Nlr3/zmN63gOuC+AgL/JWHN9QMDAwvdXZ05Q5HdkCqWNRnbVOyZlRdLDhErjicwVWdGnkHIMoEHrQcAYK1Qi3EsrEk0AqpU2KMaz6UM2d/WrGee7DbGd7bpg90J5SSu5N8cAXF/oIDA3weYyP/RH/3RommWb+iGNq5LElYkmrlFLFMTr/K0AktVnbcdH/k+x3l1pQc3DwDAmqLq2qmj4WISJk26SPqSmrmrzcjtaw+N72jWBzsj4ililn9+6fzHIO4PGFCX+8ypU6fE5s7OjZoafma65OwdnK5sOz9dbj07VjQGp8ryXMnhMmWXc6myk2Cg4NotgDsBAMBqZZln4YlPVB5znRHJ74lL5f42I9vfGprqalAut0alj+1S8Zcn3v3NFehQ9+ABB3+fefXVV/0/OXQoqxpaMarrhiQg2ZBFkbp5XhF51vmOK5oe53EEUzdflfVgTVcg8gAArCYCYa+69sC5I0JCIk9SumRta1Hze9tDM/0todFNaXWwKSye9ovFNz987yj0ln9IgMA/AJjIf/XAgVxf98a8JvFaWMZ+ROO9iMJ7FYd4mYpHXCrunuvzPpX1oIywpnoQeAAAVgvLxJ0FMfY9pCbwfsoQKp0JJbO3MzS+vzN6qbtBPpeOSJ84+fzb779/bBTE/eEBAv+AYD3st2/fmtm5feuizCOfuveiLuEidfQV1tue9cFzXSL6hPBsYBy6rV3J+AJif8vlAAAAD4wg3lSDDvMmqohIShP9rohUHmgLze1pN0Z3ssfgUupJr5R5g7OLF65cGR6HseUfLiAFD5ijR48K27dvb1IMI12xyY5MyW2bLDhd717JbXz7cr59ZMGMT5VtpWwTtHwyumB1t3enLu5sW78G7iwAAA+CZeLOoGaFiyu839cgV7altPnHNkRGdraFLkQU/hPPKr7/1hv/39UXX3wRhP0RAA7+AcOGtv3rv/7r/MC2bTNdbS3TIU0YTxlK8AgdwkQXeExfILZgl1r5m3rY363IL09T37+b6wAAAO6Fz3Sd46mwR1WBa43IXG9ScXY2hzK7WkNjO1pD5zc1qx/xbuWdoQufXoPpXh8dIAMPGebod+9/unehWHl2IufuuzhV2nJuqtx2frocGZqtYNbLPhjDnhHcHbq6m7u0rODBXQUA4L6z3LlTi6KImOuKyd7ORtXe1qQVtzbq1zc0yBcbdPk9VfGPfvzBB9cOHjwI4v4IAQf/kGGOnn0vv2P7jkKDzodUkZcVgZdoZVj2CJFZz3rXJZzLZqRjZaku8ss2t4Wdqy8AAABfhuWGIYAeYMeo+RB5xCV0geuIK+72Zq3yWKu+ONASGutNa0NtCfmE4HnH3vyn168+99xzXvVa4FEBAv8IOHLkCKEiv7Bpc39Z5rEWkrFsKFjSBUEWCSeapofzRTd4pI4LnpWnQC97AAAeBsxZ1AW+HnNYqyKLR3RrSJjbnNKcJ7qMwhPtxkx/c+h6Z1y+FFOEk4rCv/tPr/946NChQyDuKwAQ+EcEE/mB7Vtn+/v7ixGNV3VZEA2ZlySMJcfyJMsmOChc1Nozca+XtyVA7AEAeNDQOMOz5njq2sNU2BOa4LVHZGt3u579vQ3R8V1t+nBHXD4f18QTEs9/8D/+1eGLL7300lJ/YeDRAgL/CKmJ/Fz/9v6ygJCqCFjRJF7SqNDrMs8LIkK0Gow8WqNmM9ItPUoXiDsT/uAVAADAA0MVMJdSBb8rLjsDLXrl8Q1GZm97eGxTozacDkvvh2T0riLyF//qrw5fPnz4MIj7CgIE/hHDRB5z3MwzTx8s6QpWDUUQYrrAR0IiLwmId4nPhnVGPhV4QgXeo8Xnpu/mQeQBALgf1JsJa1v2Xbsu8VxKF92ehFzub9JzVNxnH+sM39jcpA42GuJHuiAcUyT+NMZ48fjx47/V0Ag8WkDgVwCsYPA8N/u1Zw6aIs+JMi1ZmoQx2yo85jUBYwlzbP5ZZDo+Z3u0HC19Jw8iDwDAfaLeSkg3MVXgeuKqs6VRK2xv1ueowI9taVIvdzYoF+O6dEpG/IeyjIYQjUzVi4CVBkjDCoI6dGQTsp1z/H1lh2ydLznd0zmr/fp8JXlpphK+MF2Rzk6W+MmSgy3q5INeLEt3sLYDdxQAgLslkOaqPiP6D9N9ka5Envc3JGTnsTY929+oTfWktWstUflaVOPPx2T+mqAIoypCN0DcVzYgBysQ3/d7PI/rqXjuQLHi9U/n7I4bi1bj8Ew5cnq8pA/NmdJY3uazlofqFe4l2B1l7h4AAOBOsOBRix8sYog8x2aBIw264DWH5UpfSsnt7QhNbEpqlxuj0smoLl0K8/wlRUGjIOyrA2iiX4EcPnx4EWNu5OBXnlmUJMxpIm/GNMkKq4IbUQRPEjDJ2z4qOT7GPmFFLVD0oMQFe3QFGg8AwOexTNhZJx+FuvawLHipiFjZktZyT24wZve1G9e3N2kXWxLyB3658Ov/6//4m9Nf+9rBLIj76gFkYIUTuHmO6/Zcrm+x5HRP5CrtQzNm07vXCqmLs5XYYt7RC2Xq5h2CS67Psa/nA+5G6IO0bPU70gEAsDZYXuYpEo+4qIxIQhHcdFjKt8WVxb60Oru7WRvfEJdHk4Z0zi5VPkinI9dA2Fcf4OBXOK+88krmP/7oR9f6+rcwV5+jbr5IXbyVMkSvyZC4mMQhicfYcQlf8XzEpqGtXUrLcG33TuK9VNbp6k7pAABY3dTkmck0xojjeY4YCk96GlR3V0sos6/LmHiiK3Klv1m/2BGRTkRU+ayZz598771fj/f398Pjb6sQCOmrBNYB79ixY/zTTz+9oWJ7m8s22TyTt7YMThQ3XJyspM9Ml6KDC6a2UPZkeh7ZPoddWpCDZ+eX7vItIs4K/NL52rngS/1b0gEAsLqplXU2QQwbF1uVENEVwUuHxcrO5lB2d4s2sTmtXepNaqfDMrqWKeXP/NOPfjQ9OTnpwbPtqxcI46sMJvSvvvqq8J/9yZ90c5zy9ELR3jy2aHWcnym3XJwqJa4tWJGJnKXOF12l4PjIZI6+fpfZ9tYOeKzg30T9AE0HuQMAVj+BuLNRrwmni4jEFYE0RSSvPaEUupPKwuakOtmXUoeTYem0lZ9+6+233poAYV8bQBP9KoMWOu6NN97wNUlaPPiVJ2ZjhlROhKScJiFTFXlTRJyLCWLTziKq75Lr+6ynPSJBKV+u2LV9tqkvjGX6HqzqxwEAeHgE5bBWZu+lDC5dtwz6ksYFoguINGiS35mQyptS6uLuVn1id4txpb9JPd+V0E5WFhZ+c+bUh+MvvPCCC4PWrA0gfK9imJs/cuSI+NTXnmtyPbJzuuh2TmatjdcXzM7hObP9wkwlPbpgxRbLNl+0CGJD5i0NkLN052uv6ywv1suPAwDw8GDl8Navz34XQdmlq3oZZtdTD87TQJEyJL8tKpk9KbXcm1Qz3Q3KVGtMutoUEs8lQuLVmbGpkxcvnpyDSWLWFhDC1wBM6P/+2DH56Y6+tBiL7JnLexvPT1e2nxgr9J4bL7eNzlXic0Wbd6i6e/SOs/JfjwFBDoDn5gFgZREU0lopvVMZXSrIDPqi9prV5dki+D6REXJ7klp+R4ee3dlmzG1pVCc64+pIRMPnp67dOHrx4sfzCCEbxH3tAZF9DVHriCcrjZ2Ngh77ZyML9p6rM+aWKzPl9tFFKz5RsPnZisPR/8hi883XrqvmArqC3AAAK4OgcNZL6OeUzaUCTFlWGWCzvxkSIjGJJ42G6LaE5IWetDLdl9bGNiSV0eaIdDmhS6PjMzdODp0+PQ/CvnaBkL4Gefnll/G3/+zP2pOxlm/O5M3HrsxWNg1NV1o/nSobg7NlaaHsijnTRY7PZqqrXRTkhM8JJAAAPHxuKpu3UD8XbKsjXbGZpTGPOEVApFGXvPaIWN7WpOcGWvWxrrg63ByVLhoqvpLJzJy4fPZs9vTp0yZ0pFvbQCe7NQjrINMYjea39W2ZScXDmiJiXpd5LiTxflgT/KjKE0MS2GRRyHSDZ+c/IwgYtYgCYg8Ajw5W/m5XBlkZZY6d/menRboKiWyudp50xRXSl1TdHc16fnuzPr+9RR/dlNYvtEalD3MTYz8ZGT578Revv579y7/8Sxs60q19QODXKKzwRqOhwubeLTPphCFEddFOhsVya0Qy07pAYprAhF3OmC52PFId036puNOIUQ8stwswAAA8fOrls9Ycz4omG2aWFmXSoApce1T2Blr00hMd4czudmN8Z6t+uTulXGgKiyfGLl15a2Tk/Oy3vvUtC4R9/QACv4api/ym3m1TjUnd0kV+PqIIuYjCu2Fq60UBiYjHisYjLOPqTFK+X517/jOWKTyIPQA8fG4Rdvaap1XysIS55pDIdcZlrzepmlub9MJAa2i+v0m93pVULrRF5U/imvDxyPDo22+88Y/zL730EjTHrzMgZK8DWOe794aGQmI+L8XjTbFwY/LZkkl2j2asTVcXzfYrM6ZxebokXV8w8VjGFrKWi1iPe8K+1KsT7NIV5BgAeDgs1bPpDv1fHwkeEZ+oAu+3hUWnP6U43SnN7Ego+ba4NN8SlcfThjSiKOIn82NX3y4UCsWf/exnBfiufX0C4XqdwcT+0qVLze2d3d/Imu7ehZLXe22+nBqeLoeuzFbkq/OWOllwNHqOLzoEmdTN2x4bJodFl1p2gVwDAA8WVtyoY2d1bNYrXsRsYhjMqQJHdIl3EppQ6o7J5R3Utfem1ExLXJ5OhqWxiCKMaAq6dOPatVMbN25kj7/VqgXAegSa6NcZbCS8RCJR6t3YMxWPRgWZBgtDxoUE9fdpQy41xSSnISRwEsaYVvnZePbYoddVW+3pKtjSqHMnka83JTLgGXsA+AJUyxrrQKdRdY8rApcOCaQ7qZkDzaHF/RvCk/s6wzf6m/WrnQlliIr7uYgsnJybGj06OTExsnXr1gyIOwDRd53CnPz09HSyoSG9y/X9RtvloiXbSS6Uvfbri2bH2Ylyy+B0OTaatUMzZUcoWC5n2z5nudTVez5H/98s3vXdIKQsjyv0BOQyAPh8biPDEiZE5REXlnguTm17yhC5xrBktifUmc1pdWxTWrtMj13XJTRFnf3olRsjF72CUNyzpztXewsAgNC7nmEif+bMmUg4HJY9zxOxqqrRWOqJTMkbuJG1eiYyZutYzklP5uzQVN6S5vIOni7Y/HTRQQXLR4HABzlomYiz7U0iv+wcAKwXbhXtzysDLB1r8VpWXOhCkprgd4REvzUqkZaY5DdFFKsxLC42R+VrTRH5QoMuvJ2du/GJIMsVxffLXV1d2eobAMBnQOgFbuLSpUvJ5vaux2yXbKMivnGuYG2YzFqpGwu2cW3RlC/PleXhOVOZLjiiTQOT46NgsJygVb4anKrL8oAFAOuNev5fXi4Y9eMB9AX9z04JiBCRVpgFAXOCiO0NEamyI63am1KK257UnOa4nE9p0mRU4y9Qx/7O9anr7w/09MxW3wcAbg+EX+C3+PTTT2Pt7e0JNRTaVyh7OzMlt3kmb8enCpZxbcGOXZ2vxEbmTWOyaEuzRZcvWh42HYJIEMjoKtgGb1V9DQDrESbmywU+EHe6Cvqz0231NREx4mKy4CU13mswZKshLOY749LCpoRW6EjIlRQV+wZDzBoyP6YJ/AcLC7OnGhsbZ9jVAHAnIPoCn8vQ0FBDR3f3Ts9FHRXbjRUcEl8oOC1TObN1aNZsOjNRigzPVrTZvC1lS65oUyPCBrVmQl9/JicYRBNyGbBeCUT8MzAJ5m7mMOcTTAsGjzlXFXinKyZZG5NKeWNSy3QnlanWuHIjbcgzsRBfUEVcVgVc4BG+Mj09foFWvhdrbwcAdwRCL3BHrl69GonFYhHX5WXPc2VBDW3Pmu6OsYzVOTxXSV6ZryRm805kumAbC0VPzVRcseR6fMXlkO36nOOTJbGv5jYQfGANcouQ3w7WI17lOULFmtMl7EYkwY7pYrlB5wutUTnbGZMyHXF5ui2ujGq8+55AnPGIytuiKLq+77OHWXLxeBw60QF3DYRa4J745JNPop09/Tttj2zOW06ain3TfNlpGs84jZenS4nhmUpkMmfr8xVXylV8VHJ8zvZ86uprwl5vsoecB6wlmMDXRX553q4dY1O3hqjCJ2TsJ0OS1RyRip0JNduXVhe6U/JUTJWmDAXN6CI/5Tr2+dGpkcGDO3dCxzngSwFhFrhnBgcHjc7OzjTGWCMYd+Yq3pbpgtNxdcZsG54pt4zl7IapvB1dKDpipuzhvOmivO1zZSr2LuGQx/k03lGlD3IfXUEuBFY7gcDTVSDohNZnkS9iRBTq1kMS5gwJk4TK+6mQZDaHpUxLTJ7tbFAnNiaV8a4G5brAWZ+ICC3wPF8cHR2d3bx5c4G9EwB8GSC0Al8KJvaRlpZWjkidFdvfkS073XMFt2s67zTNFqzwTNYUry/a+GrW4sayNi5avmC5vkQwJ3AYCVTnqwoPORFYzTBx94lPF5e+cnkO2VGV9xpCgt8ZVciGuETaYrLVGJGzybA4kdCkkXhIuIp863RcFGZnZm6M9/f3F6tvBgD3BwirwH3hzJkz+ubN27st4m2kIr5nvuh0LhTs+FzWUkYXTHxxvoKuLNjiYslRqeM3yq4XqrhEc3wieASx/kY0L1LZX3L2DBB+YIVQa2qvUnvBNoSKOkE+xpwn8MiRMSppAi6GRFxIGqLZEpG8noTsb2pQ/PaYXGmIynMxTbgiK+JHUZGfOHfu45E9e/aUq28IAPcXCJ/AfeXNN9/Uf+/gwT0lk9tUdt1YqezLCyUHj+dMutjKVM6JTGXt1GjGSo/lrHiu7IXKti95HCfSaClxdWcPTfjASqHa7P6ZoLMhYIlP3To94iOH7lsSjyuRkJhPGNJCd1ya6aJC3hiW8k1hyW6MCH6TIXpxVTBVRZyTBXThzbOnzv3xE09U2DsDwIMCQidw3zl69Kiyf//THS5yVOQivuxwaLHi4JmcKU7krfBc0d1yacbsGJozm2ZzVixToW7eIZrr+4aDuJBHiO4RTvY4hJfGwF+ilmUfVM6t/ygoGWuHe7mny7Pa8hdU2GmV0xMQcniOc0SMHMwhW8JcSUSooIl8piEmzjfFlYlNKXVkQ1i81BZVSumI4sZV0Y9oHBEE4gpELL/++o+uHzp0yK69MwA8MCCMAQ+Vl48eFZ5Ib990PWO2FCtez0zBSc7k7fBC2Y1my04ya3qNOYs0FGwvXnF9xfI4npqlatM9g61ru/c9994U3ClQOlY/wT2t3dh6vvk8WLJ6HmAOnTl1P+g553M8tgUel8M8VwzLfMmQcNmQhWJME7MNmjDfoPOzmiaNCxJ/dUMYT8k33h2mIs6GhQCARwaEMOCR8Nprr/Fb9z+7YbJEohO5sjq+aBvzebt3tuj0zJTdzoWK15apuImi6WuOR2TPJaJHfMxcPYuaQdxdyr21nTvlZha4f1durwf3OlA6Hi13cz/qaW49t3TtsjdZLvA3vXftBaGZiiDm1H0ecQ5baM3SFXhkIoHPKwJaSKn8bJMmLKR0KZcIS/mkIU02hfmx9ricNyRxYezjN0eef/55+h4wkxvw6IEQBjxy2KQ3R44cwYXGp/pmS3ZXxSMDCxV380LJa1ksuYmy5YVLpqcXbZfNUy+WHIItx0deIPI0C2PWSY9uPy83s3QBd0jDuDUk3ykt8GAJ7gVdLbt11e2ym7J0Xxm33Nv69cupX8sO33qesBGZkEffsyKJuKyLuBSiLj0sC2VdxgVF5udCijAZkfGlBoWfbAyJxURYKUcMbuZfDDReZ28Bog6sNJYXCQB45DBnH978tX7bJ3sXSnbHXMFtzJXc9GLJSk8VnNhYzjEWS46UN12+4hLewxxPHb3gE4RZnycaoD/L00E3PRrV62E3OFM7DTl/ZcPu2U0CTmH37G4EPjhMV/XTy6/hgqEVqVOnu7gqyDxNSRcXI1Sgrn3RUPBsXBdnU7qQaTbEfFITc6qMr+uqOBHRpKsLv/k/A0F/5ZVXgutB2IGVyvKcDwArAuboL8ya3aWS05ypePGS6XTlym7XbMFpHi/Yydm8rWXKrkTPSVnbU3KWr1J3L1q2z7Nnluh/XI3ZSGTRNxB99iAei/Q35Xh2qLYLrAyWS+UXEfjgEF3ddClNyP591vvdoYl9jke+wCNiSNiJykIxIuHZsITHopp4TZX5y3FFmG2PSMW4wZd5qzA69t4/TjNRB0EHVgsQ3oAVCRN5Gkxp/jyAD/2X+7sszt1Yttz2vOU1Z4puaL5oq1M5W7uWtcM3snaU7usLRVt0XJ8nPnX0CCk0d6tU2hX6bhKN7hJ9T8xm+GCRPhCAIPffUgSgRDxa2H1Zks9lOsqE/dZ7c1uZrR5kEkyTByPKIY6KOkE2IsSip0x6roIRtjgJuaoqei2GYHWFxcWOqHw9rfNn46p8zffy5+ff+8fZi1u3kufpRRcuXCCHDx9emlYBAFYDEM6AVQFruv/ac99pNV23o1i25EzJl2/kLXUkYyYnFpymiZwZms07Utn0BctzWe/7sO2TmOdxUc/3DdvnQrZHVIf4iusj7Po07jOWPH3NGgZruqodBR4yTJ+XhLu2w+7FknOnbjz4LibYX5aWwe4brb7RPYnHREScJ2JkSjwqCxgXJYErCAhlFQFnJIzzgsJbekjw2sKyuSEiLlC3ftlcmH4/Ubk8DR3lgLUAhDFg1cBc/bFjx/hjdL/50qUg77Y8+e2Ez4k9pYqjZUuesFB2+EzFlXOmGy9aXnup4jWYlpssWn4qY3mJrO1HSp6nVFwiEI/jOZ+6eg6JhCM8s3tLJWJJUGpASXl4BLLKxLvetE5fInqbgsP0riGODQfro+BRiuqtWbo9PM8JAkcMETkRnq9EZJyLSGheV8XZkCbMRzVhxpD4sajC51VNsHQNuwlFciIqKi3OTQ1ffPNIFpw6sFaAsAWsepi7v3AhGeTl5uZL6DTddrXsDwlidFu+4iXKZSddtN0N02W3db7sN2YdL0wFX3FdT3RdTnZ9T7c9ZDiECNT1o2p0r3fWW+7sl0MP/NYx4AtTF/UAJtz0NhAq5IGgs/2asBNk8hhZAiY2T+26yCMi0CsEjDiBx7SqhjlRxF5cwlZKwdmEwk8lVGFMV/lr8Yg8n9DkufzV0+eU8tjSKHKTk73BD37llQMeuHZgLQEhClizfP/73xdN08Ru4169oW3DrvmK25YvOx0Fx48VLE8zK65aoY4+U3aS8xUvtWh6xoJLZMvxsO/4mIoK9YJczdnX3D1bmAQEJeeW4rOiSlPV3X7GrU0SKwTm0uvbYI+KORVvzudMulTo39SkBx1EkM1hrsxzJC/zaEaXcSYkCq4hs9naeI46dS4kC5wk80SWsE8duhnRcK5BFmZjijB2fez8J+qUYyrKmP8Xf/EXLgg5sB5YmYUeAO4zTOxjG3ZrybYN20q2G8mViFI2bTVvevHpor1xPOt0jVfc1ETZ1UsVX3QtT/I9X/V8TvWJL1NXL1B7x3nUQno+1aLPk4fbCf9vwS6upammrz3Kd7s3pQluervP+8l1AQ+EkqYJGiJYUzY7hulKoO/D3uymd7sn6mL823zee94mfe1QTc7ppWxLnbnvUUGnf2JsIcwV6G+ZwYRboD9xkqYo0mQ2RqjEvkOnAn/2KXTxowZ6oaKZN/+MZIpL1nY5MeNzkuRzuu6/8vzzDog6sN744oUdAFYhTOglqZdf1GZRKKuicsqQ0k2bniw5/vaM6aUXLd8oWa5SMb2QafnRnOk25G0SKdqeSp2/mLddTNMhy6b66dCFDZbPShHTzWAb/Jjq61tZOkcX9s0yVTO6x1oJqmeoTQ22v0VwuCpOrI5RFe7q6+ojgWygHz54zYZVJYi5Xovu0y0VNUQkekyj12pB2nsVefaTgklWSFC/odv6txjVn80+Q5VqK8dSJ7haJYNVDFgVZnn9gNDfq9rs7tAtc+smPVYRBa5AHfg1RcRTdJlWufI7vc7QJUFWScm0iebzfkzjnR8e/nP2GQEAuAP3VtABYA3yH95/Xx3o2rGNqlfKsl2tYvtKwfKMbMlrmSy6bdN5p3G+7MRnK646VXT5sYKF8iWqsxWqs1TkA/2jmhn0y6dL8BrTnepMOWxAlaWSFkh4MBgPE2QiUuVTOMxJxGevaz37bwcbxycQdvaoF2KPe1HhZD+KsDn1JbqlIk5/CgrO5ekyS1/N0uPsF4zRH9xF9xvo+RDdMlG+O9jPYM6X+Bbdo06aVh7Yd+MoaClgs/7J9KPL9DNRc83GjGHXsJoKmxcdOTQdE247eP48OB68J3tL9mEd+jeidSduivP9PK26FFWFzzSJhZ9ui8xeIWXP62gt2f/uu99lnwkAgHvk8wMKAKwjXnvtNUlRFEGWZZTLSYiLuXxHz74tZdPvW6i4jQXLTeRsX8+YrjBb8ZFj+yJ2fcGj6mR6PtV6wpkutaFU8C2P7tOtQ7cePcd0njXr+z7xHcLZDtU6mlSkFQrdI6gpeIyPIMkhhI3GVy2TrG7AJJ25XjbiGqGC6SPWMaxA93O05BboQoWTk6haJug2RsWUCXeR7lNh585sFmf+3xQqWENeU/uMp/8P9NgWusSZKNO0zFP/dvkPXDY9zM5UvzhgndxMup+l5+ZoRWOaXkt/B/o7Yc6gv1pMQSgicpzGYyQI9DoeIV9EyBZ4riBilEMYlYKx3THvS7RKIIs8R4/7kogshUcLuYX5f+Rnr0zZ9ONrgu9FwpHikcMw2xoAfFl+u4ADABDw/e+fEvn0uMITwhfzhPcVBdtWBRWLHPf0wa+0xULKZir0XMb0uKxpc5kS3a94XL5kc1mHCn+FCj/dskqA43mc7aGyWLx2Eru0umALKCOF9Sku9S/o6c4S8dUSdfEuFf9AVtmqvs+8Mn0LWkcoch6Zpy8XqOgOPmaMnVMcC52yO7aWifANmpI1lecJQRO0VnHlL9zBt1999UXnsf/u/0mfKLR+lwrtTvpmTVTbtaAycFuBr22rAs9mVHMJFWn6aoqeukIQOv6MfP0kS/I+197LEf5AVEBJHWNDwpxEFyQL2NN4VFHoR5R5PEtVP8/z2FIk7IdVkdN1ngvJIjHonzOiioXK3KWP/vVzv5dh7wkAwP0DBB4AvgBHjx4VXNfQOS5D/1Hoim2X71eh52svXCT5beVPSvXnrF9++agw1JHabztcY9H15DK1x9TeL5VJz/eYf2YtAKwpwMUeqlR8fzSSuXa9jC3r07/5L0os3dMvH22cwaHd2Ce8y+HFiHVj0HKK5qd/86/KtIiTP3j5/w6PcL1/QB12P0aokTpxnQo1z9rTMfX81HEvBYJ6233QOwBjQisFNvX6War0Y6btvZewrp47fvgQreJw3PMvvyZNRDu7YprWpyGsqxInqpjnZAH5GnXn9OctZKbGLpJCyaJ1Gz8WY1fF6L9gw6mWQ3hZ9VPcXAWmVgWA+w8IPAA8Ql7+wQ+UshcTc56Nl9UKlqgfkioWkTWD6Ipk/7vvfvOm76RffvllfDXUrVpFBZEw8X703/zx0jPeAdTS/8nfHEtI0dQOKtwNtNgrmI3TJnCIOm5O5HhOkWppKYHI0xVmAo+Qg0RcKlru5fEbH4/c+t7sZ88lt2q8F8KaUqTxJJBvTtEcEiK892/+1dfL0HsdAB4NIPAAsB6gIv+v//aYLjpZAYfUulHnwrXtrdSP2xo1+6LpV0qCdfjPD0LPdQAAAAAAAAAAAAAAAAAAAAAAAAC4Exz3/wPpePkXNvEt6gAAAABJRU5ErkJggg==;" vertex="1" parent="_Qa4FRTeHyNOR7-FeHma-90">
          <mxGeometry x="150" y="279" width="57.25" height="56" as="geometry" />
        </mxCell>
        <mxCell id="_Qa4FRTeHyNOR7-FeHma-25" style="edgeStyle=orthogonalEdgeStyle;rounded=0;orthogonalLoop=1;jettySize=auto;html=1;" edge="1" parent="_Qa4FRTeHyNOR7-FeHma-90" source="_Qa4FRTeHyNOR7-FeHma-11">
          <mxGeometry relative="1" as="geometry">
            <mxPoint x="510" y="303" as="targetPoint" />
          </mxGeometry>
        </mxCell>
        <mxCell id="_Qa4FRTeHyNOR7-FeHma-11" value="" style="image;aspect=fixed;html=1;points=[];align=center;fontSize=12;image=img/lib/azure2/ai_machine_learning/Cognitive_Services.svg;" vertex="1" parent="_Qa4FRTeHyNOR7-FeHma-90">
          <mxGeometry x="318" y="279" width="68" height="48" as="geometry" />
        </mxCell>
        <mxCell id="_Qa4FRTeHyNOR7-FeHma-12" value="" style="image;aspect=fixed;html=1;points=[];align=center;fontSize=12;image=img/lib/azure2/ai_machine_learning/Machine_Learning.svg;" vertex="1" parent="_Qa4FRTeHyNOR7-FeHma-90">
          <mxGeometry x="663" y="155" width="64" height="68" as="geometry" />
        </mxCell>
        <mxCell id="_Qa4FRTeHyNOR7-FeHma-33" style="edgeStyle=orthogonalEdgeStyle;rounded=0;orthogonalLoop=1;jettySize=auto;html=1;entryX=1.047;entryY=0.324;entryDx=0;entryDy=0;entryPerimeter=0;" edge="1" parent="_Qa4FRTeHyNOR7-FeHma-90" source="_Qa4FRTeHyNOR7-FeHma-15" target="_Qa4FRTeHyNOR7-FeHma-12">
          <mxGeometry relative="1" as="geometry" />
        </mxCell>
        <mxCell id="_Qa4FRTeHyNOR7-FeHma-15" value="" style="image;aspect=fixed;html=1;points=[];align=center;fontSize=12;image=img/lib/azure2/databases/Azure_Cosmos_DB.svg;" vertex="1" parent="_Qa4FRTeHyNOR7-FeHma-90">
          <mxGeometry x="816" y="145" width="64" height="64" as="geometry" />
        </mxCell>
        <mxCell id="_Qa4FRTeHyNOR7-FeHma-20" style="edgeStyle=orthogonalEdgeStyle;rounded=0;orthogonalLoop=1;jettySize=auto;html=1;entryX=0;entryY=0.5;entryDx=0;entryDy=0;" edge="1" parent="_Qa4FRTeHyNOR7-FeHma-90" source="_Qa4FRTeHyNOR7-FeHma-18" target="_Qa4FRTeHyNOR7-FeHma-10">
          <mxGeometry relative="1" as="geometry" />
        </mxCell>
        <mxCell id="_Qa4FRTeHyNOR7-FeHma-18" value="" style="shape=image;html=1;verticalAlign=top;verticalLabelPosition=bottom;labelBackgroundColor=#ffffff;imageAspect=0;aspect=fixed;image=https://cdn2.iconfinder.com/data/icons/social-media-2285/512/1_Slack_colored_svg-128.png" vertex="1" parent="_Qa4FRTeHyNOR7-FeHma-90">
          <mxGeometry x="5" y="225" width="50" height="50" as="geometry" />
        </mxCell>
        <mxCell id="_Qa4FRTeHyNOR7-FeHma-22" style="edgeStyle=orthogonalEdgeStyle;rounded=0;orthogonalLoop=1;jettySize=auto;html=1;entryX=0;entryY=0.75;entryDx=0;entryDy=0;" edge="1" parent="_Qa4FRTeHyNOR7-FeHma-90" source="_Qa4FRTeHyNOR7-FeHma-19" target="_Qa4FRTeHyNOR7-FeHma-10">
          <mxGeometry relative="1" as="geometry" />
        </mxCell>
        <mxCell id="_Qa4FRTeHyNOR7-FeHma-19" value="" style="shape=image;html=1;verticalAlign=top;verticalLabelPosition=bottom;labelBackgroundColor=#ffffff;imageAspect=0;aspect=fixed;image=https://cdn2.iconfinder.com/data/icons/browsers/Firefox.png" vertex="1" parent="_Qa4FRTeHyNOR7-FeHma-90">
          <mxGeometry y="335" width="60" height="60" as="geometry" />
        </mxCell>
        <mxCell id="_Qa4FRTeHyNOR7-FeHma-24" value="" style="image;aspect=fixed;html=1;points=[];align=center;fontSize=12;image=img/lib/azure2/compute/Function_Apps.svg;" vertex="1" parent="_Qa4FRTeHyNOR7-FeHma-90">
          <mxGeometry x="506" y="279" width="68" height="60" as="geometry" />
        </mxCell>
        <mxCell id="_Qa4FRTeHyNOR7-FeHma-28" value="" style="edgeStyle=orthogonalEdgeStyle;rounded=0;orthogonalLoop=1;jettySize=auto;html=1;" edge="1" parent="_Qa4FRTeHyNOR7-FeHma-90" source="_Qa4FRTeHyNOR7-FeHma-12" target="_Qa4FRTeHyNOR7-FeHma-14">
          <mxGeometry relative="1" as="geometry">
            <mxPoint x="695" y="325" as="targetPoint" />
            <mxPoint x="695" y="279" as="sourcePoint" />
          </mxGeometry>
        </mxCell>
        <mxCell id="_Qa4FRTeHyNOR7-FeHma-52" style="edgeStyle=orthogonalEdgeStyle;rounded=0;orthogonalLoop=1;jettySize=auto;html=1;" edge="1" parent="_Qa4FRTeHyNOR7-FeHma-90" source="_Qa4FRTeHyNOR7-FeHma-14">
          <mxGeometry relative="1" as="geometry">
            <mxPoint x="810" y="307" as="targetPoint" />
          </mxGeometry>
        </mxCell>
        <mxCell id="_Qa4FRTeHyNOR7-FeHma-14" value="" style="image;aspect=fixed;html=1;points=[];align=center;fontSize=12;image=img/lib/azure2/compute/Kubernetes_Services.svg;" vertex="1" parent="_Qa4FRTeHyNOR7-FeHma-90">
          <mxGeometry x="661" y="277" width="68" height="60" as="geometry" />
        </mxCell>
        <mxCell id="_Qa4FRTeHyNOR7-FeHma-34" style="edgeStyle=orthogonalEdgeStyle;rounded=0;orthogonalLoop=1;jettySize=auto;html=1;entryX=0.384;entryY=1.018;entryDx=0;entryDy=0;entryPerimeter=0;" edge="1" parent="_Qa4FRTeHyNOR7-FeHma-90" target="_Qa4FRTeHyNOR7-FeHma-10">
          <mxGeometry relative="1" as="geometry">
            <mxPoint x="848" y="377" as="sourcePoint" />
            <Array as="points">
              <mxPoint x="848" y="485" />
              <mxPoint x="172" y="485" />
            </Array>
          </mxGeometry>
        </mxCell>
        <mxCell id="_Qa4FRTeHyNOR7-FeHma-29" value="" style="image;aspect=fixed;html=1;points=[];align=center;fontSize=12;image=img/lib/azure2/compute/Function_Apps.svg;" vertex="1" parent="_Qa4FRTeHyNOR7-FeHma-90">
          <mxGeometry x="816" y="285" width="68" height="60" as="geometry" />
        </mxCell>
        <mxCell id="_Qa4FRTeHyNOR7-FeHma-35" value="Azure Cognitive Services" style="text;html=1;strokeColor=none;fillColor=none;align=center;verticalAlign=middle;whiteSpace=wrap;rounded=0;" vertex="1" parent="_Qa4FRTeHyNOR7-FeHma-90">
          <mxGeometry x="322" y="235" width="60" height="30" as="geometry" />
        </mxCell>
        <mxCell id="_Qa4FRTeHyNOR7-FeHma-36" value="Azure Bot Service" style="text;html=1;align=center;verticalAlign=middle;resizable=0;points=[];autosize=1;strokeColor=none;fillColor=none;" vertex="1" parent="_Qa4FRTeHyNOR7-FeHma-90">
          <mxGeometry x="118.63000000000011" y="245" width="120" height="30" as="geometry" />
        </mxCell>
        <mxCell id="_Qa4FRTeHyNOR7-FeHma-37" value="Azure Function" style="text;html=1;strokeColor=none;fillColor=none;align=center;verticalAlign=middle;whiteSpace=wrap;rounded=0;" vertex="1" parent="_Qa4FRTeHyNOR7-FeHma-90">
          <mxGeometry x="506" y="235" width="60" height="30" as="geometry" />
        </mxCell>
        <mxCell id="_Qa4FRTeHyNOR7-FeHma-38" value="Azure Machine Learning" style="text;html=1;strokeColor=none;fillColor=none;align=center;verticalAlign=middle;whiteSpace=wrap;rounded=0;" vertex="1" parent="_Qa4FRTeHyNOR7-FeHma-90">
          <mxGeometry x="610" y="110" width="160" height="30" as="geometry" />
        </mxCell>
        <mxCell id="_Qa4FRTeHyNOR7-FeHma-39" value="AKS" style="text;html=1;align=center;verticalAlign=middle;resizable=0;points=[];autosize=1;strokeColor=none;fillColor=none;" vertex="1" parent="_Qa4FRTeHyNOR7-FeHma-90">
          <mxGeometry x="670" y="345" width="50" height="30" as="geometry" />
        </mxCell>
        <mxCell id="_Qa4FRTeHyNOR7-FeHma-40" value="Azure Function" style="text;html=1;strokeColor=none;fillColor=none;align=center;verticalAlign=middle;whiteSpace=wrap;rounded=0;" vertex="1" parent="_Qa4FRTeHyNOR7-FeHma-90">
          <mxGeometry x="900" y="297" width="60" height="30" as="geometry" />
        </mxCell>
        <mxCell id="_Qa4FRTeHyNOR7-FeHma-41" value="CosmosDB" style="text;html=1;align=center;verticalAlign=middle;resizable=0;points=[];autosize=1;strokeColor=none;fillColor=none;" vertex="1" parent="_Qa4FRTeHyNOR7-FeHma-90">
          <mxGeometry x="808" y="115" width="80" height="30" as="geometry" />
        </mxCell>
        <mxCell id="_Qa4FRTeHyNOR7-FeHma-42" value="Respuesta Modelo" style="text;html=1;align=center;verticalAlign=middle;resizable=0;points=[];autosize=1;strokeColor=none;fillColor=none;" vertex="1" parent="_Qa4FRTeHyNOR7-FeHma-90">
          <mxGeometry x="480" y="495" width="120" height="30" as="geometry" />
        </mxCell>
        <mxCell id="_Qa4FRTeHyNOR7-FeHma-44" value="&lt;font style=&quot;font-size: 36px;&quot;&gt;Arquitectura Chatbot con IA Generativa&lt;/font&gt;" style="text;html=1;align=center;verticalAlign=middle;resizable=0;points=[];autosize=1;strokeColor=none;fillColor=none;" vertex="1" parent="_Qa4FRTeHyNOR7-FeHma-90">
          <mxGeometry x="111" width="650" height="60" as="geometry" />
        </mxCell>
        <mxCell id="_Qa4FRTeHyNOR7-FeHma-51" style="edgeStyle=orthogonalEdgeStyle;rounded=0;orthogonalLoop=1;jettySize=auto;html=1;" edge="1" parent="_Qa4FRTeHyNOR7-FeHma-90">
          <mxGeometry relative="1" as="geometry">
            <mxPoint x="650" y="303.8100000000002" as="targetPoint" />
            <mxPoint x="570.25" y="303.8100000000002" as="sourcePoint" />
          </mxGeometry>
        </mxCell>
        <mxCell id="_Qa4FRTeHyNOR7-FeHma-53" style="edgeStyle=orthogonalEdgeStyle;rounded=0;orthogonalLoop=1;jettySize=auto;html=1;entryX=0.5;entryY=1.016;entryDx=0;entryDy=0;entryPerimeter=0;" edge="1" parent="_Qa4FRTeHyNOR7-FeHma-90" target="_Qa4FRTeHyNOR7-FeHma-15">
          <mxGeometry relative="1" as="geometry">
            <mxPoint x="848" y="288.6199999999999" as="sourcePoint" />
          </mxGeometry>
        </mxCell>
      </root>
    </mxGraphModel>
  </diagram>
</mxfile>
